<?xml version="1.0" standalone="no"?>
<!DOCTYPE svg PUBLIC "-//W3C//DTD SVG 1.1//EN" "http://www.w3.org/Graphics/SVG/1.1/DTD/svg11.dtd" >
<svg xmlns="http://www.w3.org/2000/svg" xmlns:xlink="http://www.w3.org/1999/xlink" version="1.1">
<metadata>
Created by FontForge 20150102 at Thu Jan 29 10:14:23 2015
 By uniteet7
Copyright (c) 2000 Adobe Systems Incorporated. All Rights Reserved. U.S. Patent Des. 327,902 and 327,903.
</metadata>
<defs>
<font id="AGaramondProItalic" horiz-adv-x="360" >
  <font-face 
    font-family="AGaramondProItalic"
    font-weight="400"
    font-style="italic"
    font-stretch="normal"
    units-per-em="1000"
    panose-1="2 2 5 2 5 5 6 9 4 3"
    ascent="725"
    descent="-275"
    x-height="408"
    cap-height="663"
    bbox="-182 -338 1667.56 917"
    underline-thickness="50"
    underline-position="-50"
    slope="-18.5"
    unicode-range="U+0020-FB06"
  />
<missing-glyph horiz-adv-x="500" 
d="M0 0v700h500v-700h-500zM250 395l170 255h-340zM280 350l170 -255v510zM80 50h340l-170 255zM50 605v-510l170 255z" />
    <glyph glyph-name="T_h" unicode="Th" horiz-adv-x="995" 
d="M306 660h415q49 0 54 11l10 21q38 22 68 23l4 -6q-24 -67 -72 -204l-103 -299l2 -2q74 104 158 165q54 39 95 39q31 0 45.5 -19t14.5 -48q0 -48 -23.5 -113.5t-54.5 -120.5q-22 -39 -65 -82q-39 -39 -73 -39q-37 0 -37 29q0 12 8.5 22t18.5 10q7 0 14 -6q17 -13 26 -13
q19 0 40 50q24 58 48 139t24 119q0 30 -21 30q-20 0 -54 -27q-61 -46 -127 -133q-47 -62 -121 -208q-6 -12 -18 -12q-8 0 -15 1.5t-12.5 8t-1.5 16.5l178 537q19 47 9 63.5t-75 16.5h-109q-23 0 -29 -6t-17 -38l-146 -441q-24 -70 -21.5 -93t39.5 -26l37 -3q6 -5 5 -13.5
t-9 -11.5q-75 3 -128 3q-51 0 -122 -3q-6 4 -6 12.5t5 12.5l35 3q34 3 49.5 23.5t40.5 95.5l147 441q10 33 6.5 38.5t-28.5 5.5h-80q-70 0 -99 -17.5t-69 -72.5q-7 -3 -14 0t-9 10q45 71 72 134q3 4 9.5 4t9.5 -4q-2 -14 12.5 -18.5t59.5 -4.5z" />
    <glyph glyph-name="T_h.caron" unicode="&#x164;h" horiz-adv-x="995" 
d="M306 660h415q51 0 56 11l10 21q35 21 66 23l4 -6q-24 -67 -72 -204l-103 -299l2 -2q74 104 158 165q54 39 95 39q31 0 45.5 -19t14.5 -48q0 -48 -23.5 -113.5t-54.5 -120.5q-22 -39 -65 -82q-39 -39 -73 -39q-37 0 -37 29q0 12 8.5 22t18.5 10q7 0 14 -6q17 -13 26 -13
q19 0 40 50q24 58 48 139t24 119q0 30 -21 30q-20 0 -54 -27q-61 -46 -127 -133q-47 -62 -121 -208q-6 -12 -18 -12q-8 0 -15 1.5t-12.5 8t-1.5 16.5l178 537q19 47 9 63.5t-75 16.5h-109q-23 0 -29 -6t-17 -38l-146 -441q-24 -70 -21.5 -93t39.5 -26l37 -3q6 -5 5 -13.5
t-9 -11.5q-75 3 -128 3q-51 0 -122 -3q-6 4 -6 12.5t5 12.5l35 3q34 3 49.5 23.5t40.5 95.5l147 441q10 33 6.5 38.5t-28.5 5.5h-80q-70 0 -99 -17.5t-69 -72.5q-7 -3 -14 0t-9 10q45 71 72 134q3 4 9.5 4t9.5 -4q-2 -14 12.5 -18.5t59.5 -4.5zM655 823l-138 -108
q-14 -9 -23 -9q-10 0 -17 9l-88 108q-1 6 4.5 11t11.5 7l85 -63q9 -7 17 -7q6 0 16 5l123 65q5 0 7.5 -6t1.5 -12z" />
    <glyph glyph-name="T_h.caronswash" unicode="&#xe053;h" horiz-adv-x="1115" 
d="M139 468q5 78 64 135q78 73 230 73q36 0 192 -14q134 -13 200 -13t72 24q14 50 47 50q15 0 23 -9.5t8 -23.5q0 -26 -23 -47l-150 -437l2 -2q74 104 158 165q54 39 95 39q31 0 45.5 -19t14.5 -48q0 -48 -23.5 -113.5t-54.5 -120.5q-22 -39 -65 -82q-39 -39 -73 -39
q-37 0 -37 29q0 12 8.5 22t18.5 10q7 0 14 -6q17 -13 26 -13q19 0 40 50q24 58 48 139t24 119q0 30 -21 30q-20 0 -54 -27q-61 -46 -127 -133q-47 -62 -121 -208q-6 -12 -18 -12q-8 0 -15 1.5t-12.5 8t-1.5 16.5l205 607q-36 -7 -90 -7q-42 0 -83 2t-43 2q-12 0 -15.5 -2.5
t-7.5 -13.5l-162 -474q-15 -43 -18 -61t5.5 -27t34.5 -12l44 -4q6 -5 4.5 -13.5t-9.5 -11.5q-92 3 -142 3q-46 0 -125 -3q-6 4 -5.5 12t5.5 13l42 6q39 6 52.5 20t35.5 77l164 476q4 14 2 17.5t-16 4.5q-122 6 -130 6q-135 0 -195 -52q-48 -40 -52 -99q-1 -29 13.5 -44.5
t39.5 -15.5q7 0 19 2.5t13 2.5q6 0 13.5 -10t7.5 -20q-2 -17 -15.5 -29t-33.5 -12q-41 0 -67.5 38t-24.5 78zM781 823l-138 -108q-14 -9 -23 -9q-10 0 -17 9l-88 108q-1 6 4.5 11t11.5 7l85 -63q9 -7 17 -7q6 0 16 5l123 65q5 0 7.5 -6t1.5 -12z" />
    <glyph glyph-name="T_h.commaaccentswash" unicode="&#xe054;h" horiz-adv-x="1115" 
d="M139 468q5 78 64 135q78 73 230 73q36 0 192 -14q134 -13 200 -13t72 24q14 50 47 50q15 0 23 -9.5t8 -23.5q0 -26 -23 -47l-150 -437l2 -2q74 104 158 165q54 39 95 39q31 0 45.5 -19t14.5 -48q0 -48 -23.5 -113.5t-54.5 -120.5q-22 -39 -65 -82q-39 -39 -73 -39
q-37 0 -37 29q0 12 8.5 22t18.5 10q7 0 14 -6q17 -13 26 -13q19 0 40 50q24 58 48 139t24 119q0 30 -21 30q-20 0 -54 -27q-61 -46 -127 -133q-47 -62 -121 -208q-6 -12 -18 -12q-8 0 -15 1.5t-12.5 8t-1.5 16.5l205 607q-36 -7 -90 -7q-42 0 -83 2t-43 2q-12 0 -15.5 -2.5
t-7.5 -13.5l-162 -474q-15 -43 -18 -61t5.5 -27t34.5 -12l44 -4q6 -5 4.5 -13.5t-9.5 -11.5q-92 3 -142 3q-46 0 -125 -3q-6 4 -5.5 12t5.5 13l42 6q39 6 52.5 20t35.5 77l164 476q4 14 2 17.5t-16 4.5q-122 6 -130 6q-135 0 -195 -52q-48 -40 -52 -99q-1 -29 13.5 -44.5
t39.5 -15.5q7 0 19 2.5t13 2.5q6 0 13.5 -10t7.5 -20q-2 -17 -15.5 -29t-33.5 -12q-41 0 -67.5 38t-24.5 78zM379 -48q28 0 44.5 -20.5t16.5 -46.5q0 -48 -39.5 -80.5t-89.5 -42.5q-10 8 -5 21q77 37 77 83q0 27 -28 32q-12 3 -12 22q0 14 10.5 23t25.5 9z" />
    <glyph glyph-name="T_h.commaaccentt" unicode="&#x162;h" horiz-adv-x="995" 
d="M306 660h415q49 0 54 11l10 21q38 22 68 23l4 -6q-24 -67 -72 -204l-103 -299l2 -2q74 104 158 165q54 39 95 39q31 0 45.5 -19t14.5 -48q0 -48 -23.5 -113.5t-54.5 -120.5q-22 -39 -65 -82q-39 -39 -73 -39q-37 0 -37 29q0 12 8.5 22t18.5 10q7 0 14 -6q17 -13 26 -13
q19 0 40 50q24 58 48 139t24 119q0 30 -21 30q-20 0 -54 -27q-61 -46 -127 -133q-47 -62 -121 -208q-6 -12 -18 -12q-8 0 -15 1.5t-12.5 8t-1.5 16.5l178 537q19 47 9 63.5t-75 16.5h-109q-23 0 -29 -6t-17 -38l-146 -441q-24 -70 -21.5 -93t39.5 -26l37 -3q6 -5 5 -13.5
t-9 -11.5q-75 3 -128 3q-51 0 -122 -3q-6 4 -6 12.5t5 12.5l35 3q34 3 49.5 23.5t40.5 95.5l147 441q10 33 6.5 38.5t-28.5 5.5h-80q-70 0 -99 -17.5t-69 -72.5q-7 -3 -14 0t-9 10q45 71 72 134q3 4 9.5 4t9.5 -4q-2 -14 12.5 -18.5t59.5 -4.5zM262 -48q28 0 44.5 -20.5
t16.5 -46.5q0 -48 -39.5 -80.5t-89.5 -42.5q-10 8 -5 21q77 37 77 83q0 27 -28 32q-12 3 -12 22q0 14 10.5 23t25.5 9z" />
    <glyph glyph-name="T_h.swash" unicode="&#xe04c;h" horiz-adv-x="1115" 
d="M139 468q5 78 64 135q78 73 230 73q36 0 192 -14q134 -13 200 -13t72 24q14 50 47 50q15 0 23 -9.5t8 -23.5q0 -26 -23 -47l-150 -437l2 -2q74 104 158 165q54 39 95 39q31 0 45.5 -19t14.5 -48q0 -48 -23.5 -113.5t-54.5 -120.5q-22 -39 -65 -82q-39 -39 -73 -39
q-37 0 -37 29q0 12 8.5 22t18.5 10q7 0 14 -6q17 -13 26 -13q19 0 40 50q24 58 48 139t24 119q0 30 -21 30q-20 0 -54 -27q-61 -46 -127 -133q-47 -62 -121 -208q-6 -12 -18 -12q-8 0 -15 1.5t-12.5 8t-1.5 16.5l205 607q-36 -7 -90 -7q-42 0 -83 2t-43 2q-12 0 -15.5 -2.5
t-7.5 -13.5l-162 -474q-15 -43 -18 -61t5.5 -27t34.5 -12l44 -4q6 -5 4.5 -13.5t-9.5 -11.5q-92 3 -142 3q-46 0 -125 -3q-6 4 -5.5 12t5.5 13l42 6q39 6 52.5 20t35.5 77l164 476q4 14 2 17.5t-16 4.5q-122 6 -130 6q-135 0 -195 -52q-48 -40 -52 -99q-1 -29 13.5 -44.5
t39.5 -15.5q7 0 19 2.5t13 2.5q6 0 13.5 -10t7.5 -20q-2 -17 -15.5 -29t-33.5 -12q-41 0 -67.5 38t-24.5 78z" />
    <glyph glyph-name="f_f_j" unicode="ffj" horiz-adv-x="746" 
d="M401 357h-171q-3 -10 -11.5 -39t-11.5 -40q-10 -33 -42 -151t-52 -181q-38 -127 -79 -164q-51 -51 -114 -51q-31 0 -48 17.5t-17 33.5q0 20 19 36q15 13 29 -9q23 -37 60 -37t63 83q27 88 68 257t64 245h-82q-8 7 -6.5 18.5t11.5 18.5h88q43 148 100 215q68 82 159 82
q40 0 65.5 -17t22.5 -48l2 -2q80 91 179 91q48 0 78.5 -22t30.5 -57q0 -21 -15 -32t-32 -11q-29 0 -29 25q0 67 -51 67q-50 0 -96 -57q-45 -57 -100 -234h95q38 0 84 7t49 7q29 0 8 -53q-4 -17 -42 -145q-62 -207 -91 -280q-72 -175 -180 -175q-33 0 -50 17t-17 37
q0 14 9.5 26.5t22.5 12.5q7 0 12 -10q25 -43 57 -43q28 0 50 50q39 94 108 323q8 26 19.5 63.5t18.5 61t9 33.5q2 19 -3.5 25t-31.5 6h-137q-9 -33 -47.5 -169t-61.5 -210q-41 -133 -80 -172q-51 -51 -114 -51q-31 0 -48 17.5t-17 33.5q0 20 19 36q15 13 29 -9
q23 -37 60 -37q39 0 64 91q23 81 63.5 242.5t60.5 227.5zM239 394h172q34 113 77 190q-3 34 -24.5 55.5t-48.5 21.5q-58 0 -100 -72q-39 -67 -76 -195z" />
    <glyph glyph-name="f_j" unicode="fj" horiz-adv-x="503" 
d="M158 357h-83q-7 8 -5 19.5t12 17.5h86q51 170 117 240q77 81 166 81q48 0 78.5 -22t30.5 -57q0 -21 -15 -32t-32 -11q-29 0 -29 25q0 67 -51 67t-94 -57q-21 -29 -41 -73.5t-30 -73.5t-28 -87h95q30 0 84 7q40 7 49 7q14 0 14 -15.5t-6 -37.5q-4 -17 -42 -145
q-64 -215 -91 -280q-72 -175 -180 -175q-33 0 -50 17t-17 37q0 14 9.5 26.5t22.5 12.5q7 0 12 -10q25 -43 57 -43q28 0 50 50q36 82 108 323q8 26 19.5 63.5t18.5 61t9 33.5q4 19 -2.5 25t-32.5 6h-137q-3 -10 -11.5 -39t-11.5 -40q-10 -33 -42 -151t-52 -181
q-38 -127 -79 -164q-51 -51 -114 -51q-31 0 -48 17.5t-17 33.5q0 22 19 36q15 13 29 -9q23 -37 60 -37t63 83q27 88 68 257t64 245z" />
    <glyph glyph-name="ff" unicode="ff" horiz-adv-x="504" 
d="M401 357h-171q-3 -10 -11.5 -39t-11.5 -40q-10 -33 -42 -151t-52 -181q-38 -127 -79 -164q-51 -51 -114 -51q-31 0 -48 17.5t-17 33.5q0 20 19 36q15 13 29 -9q23 -37 60 -37t63 83q27 88 68 257t64 245h-82q-8 7 -6.5 18.5t11.5 18.5h88q43 148 100 215q68 82 159 82
q40 0 65.5 -17t22.5 -48l2 -2q76 91 172 91q33 0 57.5 -18.5t24.5 -46.5q0 -40 -35 -60q-10 -5 -15.5 -1t-5.5 14q0 41 -19 59.5t-43 18.5q-39 0 -78 -53q-46 -63 -94 -234h124q6 -8 3.5 -20t-13.5 -17h-123q-9 -33 -47.5 -169t-61.5 -210q-41 -133 -80 -172
q-51 -51 -114 -51q-31 0 -48 17.5t-17 33.5q0 20 19 36q15 13 29 -9q23 -37 60 -37q39 0 64 91q23 81 63.5 242.5t60.5 227.5zM239 394h172q34 113 77 190q-3 34 -24.5 55.5t-48.5 21.5q-58 0 -100 -72q-39 -67 -76 -195z" />
    <glyph glyph-name="fi" unicode="fi" horiz-adv-x="503" 
d="M158 357h-83q-7 8 -5 19.5t12 17.5h86q51 170 117 240q77 81 166 81q48 0 78.5 -22t30.5 -57q0 -21 -15 -32t-32 -11q-29 0 -29 25q0 67 -51 67t-94 -57q-21 -29 -41 -73.5t-30 -73.5t-28 -87h95q30 0 84 7q40 7 49 7q29 0 8 -53l-114 -285q-9 -22 3 -22q13 0 46 23
t58 51q15 -2 15 -17q-15 -28 -78 -73.5t-109 -45.5q-9 0 -16 9q-9 11 -3 27l118 304q8 18 2.5 24.5t-31.5 6.5h-137q-3 -10 -11.5 -39t-11.5 -40q-10 -33 -42 -151t-52 -181q-38 -127 -79 -164q-51 -51 -114 -51q-31 0 -48 17.5t-17 33.5q0 22 19 36q15 13 29 -9
q23 -37 60 -37t63 83q27 88 68 257t64 245z" />
    <glyph glyph-name="fl" unicode="fl" horiz-adv-x="489" 
d="M83 394h85q48 165 115 242q71 79 157 79q47 0 81 -32q38 25 59 32l7 -6q-17 -45 -61 -172l-160 -472q-11 -33 5 -33q26 0 115 101q16 2 16 -14q-26 -50 -71.5 -91.5t-101.5 -41.5q-38 0 -38 30q0 19 22 85l87 256h-170q-3 -10 -11.5 -39t-11.5 -40q-10 -33 -42 -151
t-52 -181q-38 -127 -79 -164q-51 -51 -114 -51q-31 0 -48 17.5t-17 33.5q0 22 19 36q15 13 29 -9q23 -37 60 -37t63 83q27 88 68 257t64 245h-82q-7 7 -5 18.5t12 18.5zM240 394h172l71 207q12 35 -5 59.5t-50 24.5q-49 0 -88 -52q-50 -68 -100 -239z" />
    <glyph glyph-name="ffi" unicode="ffi" horiz-adv-x="746" 
d="M401 357h-171q-3 -10 -11.5 -39t-11.5 -40q-10 -33 -42 -151t-52 -181q-38 -127 -79 -164q-51 -51 -114 -51q-31 0 -48 17.5t-17 33.5q0 20 19 36q15 13 29 -9q23 -37 60 -37t63 83q27 88 68 257t64 245h-82q-8 7 -6.5 18.5t11.5 18.5h88q43 148 100 215q68 82 159 82
q40 0 65.5 -17t22.5 -48l2 -2q80 91 179 91q48 0 78.5 -22t30.5 -57q0 -21 -15 -32t-32 -11q-29 0 -29 25q0 67 -51 67q-50 0 -96 -57q-45 -57 -100 -234h95q38 0 84 7t49 7q29 0 8 -53l-114 -285q-9 -22 3 -22q13 0 46 23t58 51q15 -2 15 -17q-15 -28 -78 -73.5t-109 -45.5
q-8 0 -16 9q-9 11 -3 27l118 304q8 18 2.5 24.5t-31.5 6.5h-137q-9 -33 -47.5 -169t-61.5 -210q-41 -133 -80 -172q-51 -51 -114 -51q-31 0 -48 17.5t-17 33.5q0 20 19 36q15 13 29 -9q23 -37 60 -37q39 0 64 91q23 81 63.5 242.5t60.5 227.5zM239 394h172q34 113 77 190
q-3 34 -24.5 55.5t-48.5 21.5q-58 0 -100 -72q-39 -67 -76 -195z" />
    <glyph glyph-name="ffl" unicode="ffl" horiz-adv-x="732" 
d="M158 357h-82q-8 7 -6.5 18.5t11.5 18.5h88q43 148 100 215q68 82 159 82q40 0 65.5 -17t22.5 -48l2 -2q76 91 165 91q47 0 81 -32q38 25 59 32l7 -6q-17 -45 -61 -172l-160 -472q-11 -33 5 -33q26 0 115 101q16 2 16 -14q-26 -50 -71.5 -91.5t-101.5 -41.5q-38 0 -38 30
q0 19 22 85l87 256h-170q-9 -33 -47.5 -169t-61.5 -210q-41 -133 -80 -172q-51 -51 -114 -51q-31 0 -48 17.5t-17 33.5q0 20 19 36q15 13 29 -9q23 -37 60 -37q39 0 64 91q23 81 63.5 242.5t60.5 227.5h-171q-3 -10 -11.5 -39t-11.5 -40q-10 -33 -42 -151t-52 -181
q-38 -127 -79 -164q-51 -51 -114 -51q-31 0 -48 17.5t-17 33.5q0 20 19 36q15 13 29 -9q23 -37 60 -37t63 83q27 88 68 257t64 245zM239 394h172q34 113 77 190q-3 34 -24.5 55.5t-48.5 21.5q-58 0 -100 -72q-39 -67 -76 -195zM483 394h172l71 207q12 35 -5 59.5t-50 24.5
q-48 0 -89 -51q-48 -60 -99 -240z" />
    <glyph glyph-name=".notdef" horiz-adv-x="500" 
d="M0 0v700h500v-700h-500zM250 395l170 255h-340zM280 350l170 -255v510zM80 50h340l-170 255zM50 605v-510l170 255z" />
    <glyph glyph-name=".null" horiz-adv-x="0" 
 />
    <glyph glyph-name="nonmarkingreturn" horiz-adv-x="333" 
 />
    <glyph glyph-name="space" unicode=" " horiz-adv-x="250" 
 />
    <glyph glyph-name="space" unicode="&#xa0;" horiz-adv-x="250" 
 />
    <glyph glyph-name="exclam" unicode="!" horiz-adv-x="206" 
d="M251 646q28 0 37 -8.5t4 -23.5q-2 -5 -5.5 -14t-11.5 -29.5t-16 -40.5l-124 -325q-3 -6 -12.5 -6t-13.5 6l69 323q14 68 20 87q6 20 16.5 25.5t36.5 5.5zM85 95q21 0 32.5 -13.5t11.5 -31.5q0 -29 -17 -46.5t-40 -17.5q-21 0 -32.5 12.5t-11.5 34.5q0 26 17.5 44t39.5 18
z" />
    <glyph glyph-name="quotedbl" unicode="&#x22;" horiz-adv-x="380" 
d="M276 686q21 0 27.5 -6t4.5 -18t-13 -39l-66 -161q-2 -6 -11 -6t-12 6l18 161q5 43 12.5 53t39.5 10zM434 686q21 0 27.5 -6t4.5 -18t-13 -39l-66 -161q-2 -6 -11 -6t-12 6l18 161q5 43 12.5 53t39.5 10z" />
    <glyph glyph-name="numbersign" unicode="#" horiz-adv-x="500" 
d="M403 404h-113l-68 -162h114zM549 404h-100l-68 -162h98l-21 -48h-95l-79 -191h-43l77 191h-114l-79 -191h-42l77 191h-109l21 48h106l66 162h-109l23 48h106l70 172h47l-71 -172h113l69 172h48l-71 -172h100z" />
    <glyph glyph-name="dollar" unicode="$" horiz-adv-x="500" 
d="M301 386l65 223q-52 -2 -90 -35t-38 -85q0 -62 63 -103zM311 289l-75 -259q67 1 107.5 37t40.5 93q0 83 -73 129zM436 717l-23 -79q66 -6 121 -34q3 -40 -16 -108q-2 -4 -11 -5t-12 2q3 36 -18 71.5t-74 43.5l-70 -242q39 -24 62.5 -44t42.5 -53t19 -74q0 -92 -67 -143.5
t-164 -51.5l-28 -94q-6 -6 -20 -6t-18 6l28 96q-95 10 -144 56q-15 38 5 128q3 4 10.5 4t12.5 -3q0 -28 11 -58t41 -58.5t74 -36.5l81 276q-108 61 -108 149q0 80 58.5 128.5t145.5 51.5l23 78q7 5 19 5t19 -5z" />
    <glyph glyph-name="percent" unicode="%" horiz-adv-x="863" 
d="M339 640q54 0 83.5 -36.5t29.5 -98.5q0 -92 -60.5 -172.5t-137.5 -80.5q-59 0 -89.5 36t-30.5 97q0 96 60 175.5t145 79.5zM200 357q0 -75 51 -75q31 0 58 30.5t43 73.5t25 84.5t9 68.5q0 33 -13 52t-36 19q-40 0 -73.5 -50.5t-48.5 -107.5t-15 -95zM724 376
q54 0 83.5 -36.5t29.5 -98.5q0 -92 -60.5 -172.5t-137.5 -80.5q-59 0 -89.5 36t-30.5 97q0 96 60 175.5t145 79.5zM585 93q0 -75 51 -75q31 0 58 30.5t43 73.5t25 84.5t9 68.5q0 33 -13 52t-36 19q-40 0 -73.5 -50.5t-48.5 -107.5t-15 -95zM186 -14q274 325 557 668
q10 0 19.5 -7t9.5 -18q-251 -297 -559 -669q-27 0 -27 26z" />
    <glyph glyph-name="ampersand" unicode="&#x26;" horiz-adv-x="770" 
d="M300 -14q-111 0 -166 57.5t-55 142.5q0 117 96 215q75 78 149 78q11 0 19.5 -2t14 -5t11 -8t7.5 -8l6 -9t5 -7q33 27 76.5 71t64.5 72q36 46 36 84q0 18 -12 30q-11 11 -11 22q0 19 12 30t28 11q19 0 32.5 -13t13.5 -40q0 -82 -126 -205q-58 -57 -162.5 -138.5
t-192.5 -141.5v-8q0 -87 54 -129t123 -42q66 0 133.5 43t109.5 120q28 52 40 96t14 106q-19 17 -52 17q-25 0 -49 -20t-24 -44q0 -4 8 -33q7 -26 7 -28q0 -5 -2 -10.5t-10 -11.5t-21 -6q-17 0 -30 10.5t-13 29.5q0 56 68 112q50 41 99 41q13 0 26 -3.5t21 -6.5t22.5 -13.5
t19 -14t22.5 -20t22 -20.5q3 -2 7 -6t6 -5.5t5 -4.5t4 -3.5t3.5 -2.5t4 -2t4 -1t5 -1h5.5q8 0 14 9.5t6 21.5q0 13 -4 25q-4 14 -4 15q0 9 9.5 17t22.5 8q19 0 28 -17t9 -39q0 -28 -19 -47q-5 -6 -26 -10q-42 -5 -75 -25q-14 -9 -24 6q-5 8 -26.5 31t-42.5 40q0 -47 -4 -85
q-4 -37 -28 -98t-74 -118q-49 -55 -115 -82t-125 -27zM148 260q113 78 163 122q1 9 1 24q0 14 -9.5 22.5t-23.5 8.5q-13 0 -35 -14t-42 -40q-43 -57 -54 -123z" />
    <glyph glyph-name="quotesingle" unicode="'" horiz-adv-x="208" 
d="M271 686q21 0 27.5 -6t4.5 -18t-13 -39l-66 -161q-2 -6 -11 -6t-12 6l18 161q5 43 12.5 53t39.5 10z" />
    <glyph glyph-name="parenleft" unicode="(" horiz-adv-x="320" 
d="M144 140q0 -186 64 -292q0 -13 -16 -11q-102 106 -102 312q0 240 196 436q68 69 162 118q13 0 13 -14q-107 -74 -171 -163q-146 -204 -146 -386z" />
    <glyph glyph-name="parenright" unicode=")" horiz-adv-x="320" 
d="M250 400q0 186 -64 292q0 13 16 11q102 -106 102 -312q0 -240 -196 -436q-68 -68 -162 -118q-13 0 -13 14q107 74 171 163q146 204 146 386z" />
    <glyph glyph-name="asterisk" unicode="*" horiz-adv-x="400" 
d="M362 670l-20 -129l136 33q7 -2 9 -9.5t-2 -13.5l-130 -52l93 -103q1 -7 -4 -13.5t-12 -5.5l-106 92l-39 -125q-16 -7 -24 6l19 129l-136 -36q-6 2 -8 10t2 14l128 52l-94 104q-1 7 4.5 12.5t12.5 4.5l107 -89l40 124q13 6 24 -5z" />
    <glyph glyph-name="plus" unicode="+" horiz-adv-x="560" 
d="M340 0h-59v181h-163v49h163v164h59v-164h163v-49h-163v-181z" />
    <glyph glyph-name="comma" unicode="," horiz-adv-x="250" 
d="M89 117q33 0 52 -24t19 -55q0 -50 -46.5 -88.5t-104.5 -55.5q-13 6 -7 20q92 42 92 104q0 31 -33 39q-15 4 -15 22q0 16 12.5 27t30.5 11z" />
    <glyph glyph-name="hyphen" unicode="-" horiz-adv-x="320" 
d="M67 230l243 22q8 -10 5 -29t-13 -28l-243 -22q-7 10 -4.5 29t12.5 28z" />
    <glyph glyph-name="hyphen" unicode="&#xad;" horiz-adv-x="320" 
d="M67 230l243 22q8 -10 5 -29t-13 -28l-243 -22q-7 10 -4.5 29t12.5 28z" />
    <glyph glyph-name="period" unicode="." horiz-adv-x="250" 
d="M103 95q21 0 32.5 -13.5t11.5 -31.5q0 -29 -17 -46.5t-40 -17.5q-21 0 -32.5 12.5t-11.5 34.5q0 26 17.5 44t39.5 18z" />
    <glyph glyph-name="slash" unicode="/" horiz-adv-x="250" 
d="M357 676l-306 -692h-58l306 692h58z" />
    <glyph glyph-name="zero" unicode="0" horiz-adv-x="500" 
d="M391 640q143 0 143 -192q0 -87 -37.5 -189t-96.5 -173q-82 -100 -177 -100q-44 0 -75.5 18t-46.5 48.5t-21 61t-6 65.5q0 92 36.5 190t95.5 168q87 103 185 103zM388 610q-32 0 -65.5 -29t-62.5 -79q-45 -79 -77 -188.5t-32 -191.5q0 -106 76 -106q88 0 167 210
q63 170 63 272q0 112 -69 112z" />
    <glyph glyph-name="one" unicode="1" horiz-adv-x="500" 
d="M405 514l-118 -393q-17 -60 -10.5 -75.5t46.5 -20.5l26 -3q5 -4 4.5 -13t-5.5 -12q-76 3 -129 3q-55 0 -122 -3q-6 4 -6 13.5t6 11.5l25 3q46 6 62 24t34 79l100 337q17 59 14 76t-32 20l-46 5q-4 4 -3.5 11t5.5 9q111 19 178 54q10 1 13 -5q-26 -69 -42 -121z" />
    <glyph glyph-name="two" unicode="2" horiz-adv-x="500" 
d="M358 253l-85 -66q-134 -104 -134 -118q0 -9 34 -9h117q66 0 86.5 8.5t52.5 51.5q14 5 21 -6q-10 -31 -27.5 -67t-29.5 -50q-50 2 -74 2q-24 1 -73 1h-144q-78 0 -105 -3q-6 3 -6 11q0 3 1 5q100 67 205 155q2 2 31 25.5t36.5 30t34 30t36.5 35t31 34t30 38.5t21 36.5
t16.5 40.5t4.5 39q0 55 -29.5 85.5t-76.5 30.5q-82 0 -150 -92q-8 -4 -15 0.5t-6 14.5q33 57 88.5 90.5t113.5 33.5q77 0 119.5 -40t42.5 -109q0 -65 -45.5 -122t-121.5 -116z" />
    <glyph glyph-name="three" unicode="3" horiz-adv-x="500" 
d="M366 640q62 0 95 -29t33 -77q0 -76 -144 -138q-11 -5 -8 -11.5t16 -8.5q47 -9 80 -45t33 -92q0 -66 -44 -128t-103 -99q-110 -68 -229 -68q-45 0 -72.5 16t-27.5 43q0 17 11.5 29t30.5 12q11 0 21.5 -7.5t12.5 -10.5t13 -19q18 -27 57 -27q64 0 130 43q54 35 83 88.5
t29 116.5q0 50 -29 80.5t-82 30.5q-59 0 -118 -51q-12 2 -16.5 15t3.5 24q123 49 179 82q92 55 92 116q0 38 -22 56.5t-54 18.5q-73 0 -149 -88q-9 -1 -14 3.5t-4 13.5q31 48 82 79.5t115 31.5z" />
    <glyph glyph-name="four" unicode="4" horiz-adv-x="500" 
d="M470 191h-53q-19 0 -25.5 -4t-11.5 -20l-19 -61q-10 -33 -12 -47.5t4.5 -22.5t26.5 -11l25 -3q5 -4 3.5 -13.5t-6.5 -11.5q-60 3 -108 3q-56 0 -118 -3q-6 2 -5.5 12t6.5 13l40 3q35 3 47.5 18t26.5 63l17 58q5 20 2 23.5t-23 3.5h-241q-10 0 -10 15q0 9 29 38l454 449
q13 13 25 13h19q13 0 13 -8q0 -3 -8 -11l-450 -439q-16 -16 6 -18q6 -1 18 -1h157q18 0 24.5 4.5t11.5 21.5l55 186q4 15 14 20q32 17 55 17q5 0 7 -2t2 -6.5t-1 -9t-4 -13.5l-57 -192q-5 -14 -2 -20t15 -6h63q4 -9 0 -21t-12 -17z" />
    <glyph glyph-name="five" unicode="5" horiz-adv-x="500" 
d="M240 532l-28 -63q-4 -9 -4 -13.5t2.5 -6t9.5 -2.5l27 -4q42 -6 74.5 -16.5t66.5 -31.5t52.5 -59t18.5 -90q0 -85 -59.5 -156t-143.5 -107q-104 -45 -234 -51q-10 3 -11.5 15t6.5 19q164 1 264.5 76t100.5 179q0 49 -18.5 83.5t-53 51.5t-72 24.5t-85.5 7.5q-18 0 -4 31
l82 174q10 22 44 27l251 34q7 -1 11 -9q-16 -39 -43 -59l-206 -28q-24 -3 -33 -7.5t-15 -18.5z" />
    <glyph glyph-name="six" unicode="6" horiz-adv-x="500" 
d="M315 336q-29 0 -52 -9q-9 12 -3 18q16 13 42.5 22t44.5 9q66 0 105.5 -41.5t39.5 -124.5q0 -85 -70 -154.5t-169 -69.5q-90 0 -137.5 52t-47.5 143q0 103 60.5 208t147.5 169q155 115 352 135q6 -1 6.5 -10t-4.5 -12q-55 -14 -82 -22t-81.5 -32t-99.5 -57
q-99 -73 -157 -184.5t-58 -214.5q0 -145 109 -145q65 0 105 66t40 141q0 52 -24.5 82.5t-66.5 30.5z" />
    <glyph glyph-name="seven" unicode="7" horiz-adv-x="500" 
d="M472 451l-381 -515q-12 -2 -22 5t-9 16l424 570q16 24 12 31.5t-27 7.5h-191q-54 0 -70.5 -7.5t-42.5 -38.5q-4 -4 -12 -1t-10 8q32 48 52 102q30 -2 43 -2q16 -1 62 -1h169q122 0 135 3q9 -3 7 -12q-54 -50 -139 -166z" />
    <glyph glyph-name="eight" unicode="8" horiz-adv-x="500" 
d="M242 -14q-81 0 -134 40.5t-53 110.5q0 27 9 51t21 40.5t34.5 34t38.5 27t44.5 25t41.5 23.5q-35 23 -56 56t-21 67q0 74 56.5 126.5t134.5 52.5q73 0 116.5 -42t43.5 -105q0 -28 -12 -50.5t-38 -42.5t-47 -32t-58 -30q99 -70 99 -159q0 -87 -65.5 -140t-154.5 -53z
M246 16q56 0 96.5 37.5t40.5 106.5q0 90 -112 156q-68 -40 -104 -80.5t-36 -95.5q0 -61 33.5 -92.5t81.5 -31.5zM447 504q0 47 -25 76.5t-69 29.5q-47 0 -81.5 -34t-34.5 -89q0 -40 24.5 -68.5t74.5 -60.5q51 31 81 65t30 81z" />
    <glyph glyph-name="nine" unicode="9" horiz-adv-x="500" 
d="M366 640q89 0 131.5 -52t42.5 -137q0 -113 -86 -243q-76 -112 -190 -179.5t-252 -88.5q-6 2 -7.5 10.5t2.5 12.5q215 55 330 201q55 70 88.5 160t33.5 161q0 54 -23 89.5t-72 35.5q-63 0 -107 -58.5t-44 -132.5q0 -49 20.5 -82t66.5 -33q20 0 38 4q12 -6 4 -19
q-34 -24 -80 -24q-59 0 -96.5 40t-37.5 104q0 84 70 157.5t168 73.5z" />
    <glyph glyph-name="colon" unicode=":" horiz-adv-x="250" 
d="M191 394q21 0 32.5 -13.5t11.5 -31.5q0 -29 -17 -46.5t-40 -17.5q-21 0 -32.5 12.5t-11.5 34.5q0 26 17.5 44t39.5 18zM103 95q21 0 32.5 -13.5t11.5 -31.5q0 -29 -17 -46.5t-40 -17.5q-21 0 -32.5 12.5t-11.5 34.5q0 26 17.5 44t39.5 18z" />
    <glyph glyph-name="semicolon" unicode=";" horiz-adv-x="250" 
d="M89 117q33 0 52 -24t19 -55q0 -50 -46.5 -88.5t-104.5 -55.5q-13 6 -7 20q92 42 92 104q0 31 -33 39q-15 4 -15 22q0 16 12.5 27t30.5 11zM191 394q21 0 32.5 -13.5t11.5 -31.5q0 -29 -17 -46.5t-40 -17.5q-21 0 -32.5 12.5t-11.5 34.5q0 26 17.5 44t39.5 18z" />
    <glyph glyph-name="less" unicode="&#x3c;" horiz-adv-x="560" 
d="M118 227l389 185v-58l-317 -148v-2l317 -149v-57l-389 184v45z" />
    <glyph glyph-name="equal" unicode="=" horiz-adv-x="560" 
d="M503 305v-49h-385v49h385zM503 155v-49h-385v49h385z" />
    <glyph glyph-name="greater" unicode="&#x3e;" horiz-adv-x="560" 
d="M118 412l389 -185v-45l-389 -184v57l317 149v2l-317 148v58z" />
    <glyph glyph-name="question" unicode="?" horiz-adv-x="300" 
d="M187 390l62 35q41 23 61 43.5t20 47.5q0 32 -21 51.5t-49 19.5q-23 0 -45 -11l-22 -11q-7 0 -13 7.5t-6 20.5q0 21 20.5 37t51.5 16q44 0 80.5 -44t36.5 -98q0 -89 -103 -146l-67 -37q-46 -26 -46 -65q0 -23 9 -48q-6 -11 -16 -5q-44 57 -31 106q12 45 78 81zM123 95
q21 0 32.5 -13.5t11.5 -31.5q0 -29 -17 -46.5t-40 -17.5q-21 0 -32.5 12.5t-11.5 34.5q0 26 17.5 44t39.5 18z" />
    <glyph glyph-name="at" unicode="@" horiz-adv-x="770" 
d="M517 325q-26 0 -63 -30q-41 -33 -73 -96t-32 -105q0 -13 12 -13q22 0 80 52q34 30 71.5 83t47.5 80q-10 29 -43 29zM583 338l25 51q11 4 26 0t22 -12q-99 -227 -117 -277q-7 -17 -1.5 -25t24.5 -7q83 3 139 58t56 146q0 104 -74 167t-187 63q-143 0 -230 -102t-87 -246
q0 -48 15 -93.5t47.5 -87.5t93 -68t142.5 -26q73 0 155 35q13 -6 8 -19q-81 -51 -193 -51q-64 0 -122.5 19t-107.5 56t-78 97.5t-29 136.5q0 170 117 276.5t278 106.5q137 0 216 -76.5t79 -183.5q0 -100 -71 -170.5t-188 -70.5q-72 0 -72 22q0 10 8 31l25 63l-2 1
q-45 -47 -101.5 -82t-87.5 -35q-20 0 -30.5 13t-10.5 32q0 20 18.5 63.5t57.5 90.5q103 126 200 126q11 0 22 -6t15 -16z" />
    <glyph glyph-name="A" unicode="A" horiz-adv-x="596" 
d="M552 25l26 -3q4 -5 2.5 -13.5t-6.5 -11.5q-46 3 -113 3q-70 0 -115 -3q-7 3 -7.5 12.5t6.5 12.5l31 3q30 3 39 16q8 13 11 62l9 134q2 17 -1.5 21.5t-19.5 4.5h-144q-23 0 -30 -4.5t-21 -26.5l-73 -114q-45 -71 -45 -75q0 -11 23 -15l37 -6q6 -5 5 -13.5t-7 -11.5
q-47 3 -102 3q-57 0 -111 -3q-10 13 2 25l27 3q40 4 72 42q36 44 165 225l176 248q53 74 60 103q15 2 32.5 10.5t29.5 15.5l11 7q12 0 12 -8q0 -7 -1.5 -24.5t-4 -51.5t-4.5 -71l-20 -378q-2 -33 -2.5 -47.5t1 -30.5t3 -20.5t9.5 -10t15 -6.5t23 -3zM293 303h126
q13 0 16 3.5t4 16.5l16 219q2 26 -2 26q-5 0 -38 -49l-139 -201q-6 -9 -2.5 -12t19.5 -3z" />
    <glyph glyph-name="B" unicode="B" horiz-adv-x="581" 
d="M134 144l121 393q17 58 11 73t-41 16l-33 1q-5 4 -4.5 12t4.5 12q86 12 168 12q104 0 162 -24q85 -36 85 -126q0 -68 -52 -108t-104 -44q-7 0 -9 -2.5t1 -4.5t8 -4q45 -15 74.5 -55t29.5 -92q0 -77 -54 -130q-76 -76 -240 -76q-28 0 -70.5 1.5t-62.5 1.5q-60 0 -103 -3
q-6 4 -6 12.5t5 12.5l20 3q37 5 52 24.5t38 94.5zM259 307l-59 -192q-15 -48 4.5 -67.5t75.5 -19.5q73 0 131 47t58 140q0 60 -43.5 93t-104.5 33q-37 0 -46 -5t-16 -29zM350 600l-62 -200q-6 -18 0 -23.5t37 -5.5q30 0 62 8t64.5 25t53 50t20.5 78t-33 72.5t-93 27.5
q-29 0 -35.5 -4t-13.5 -28z" />
    <glyph glyph-name="C" unicode="C" horiz-adv-x="646" 
d="M581 676q84 0 164 -32q-30 -74 -45 -134q-3 -6 -14 -5.5t-13 6.5q15 68 -9.5 101t-99.5 33q-142 0 -256 -112q-45 -45 -81.5 -127t-36.5 -172q0 -107 49.5 -163t144.5 -56q130 0 215 140q19 8 24 -7q-20 -61 -65 -141q-13 0 -79 -11q-70 -12 -97 -12q-53 0 -99.5 13
t-88.5 42t-67 84t-25 130q0 84 39.5 163.5t103.5 137.5t151.5 90t184.5 32z" />
    <glyph glyph-name="D" unicode="D" horiz-adv-x="739" 
d="M133 144l125 405q13 47 9.5 59.5t-26.5 15.5l-40 5q-5 3 -5 11.5t5 12.5q75 10 186 10q83 0 147.5 -16.5t104 -43t64.5 -63t34.5 -73t9.5 -77.5q0 -95 -42.5 -174t-115.5 -129q-132 -90 -334 -90q-11 0 -51.5 1.5t-73.5 1.5q-58 0 -110 -3q-6 4 -6 12.5t5 12.5l26 3
q35 4 50 24t38 95zM347 593l-149 -479q-14 -45 6 -63.5t85 -18.5q82 0 148.5 26.5t106.5 66t67 88.5t37 91.5t10 78.5t-3 63.5t-18.5 64.5t-42 61.5t-78 42t-122.5 17.5q-23 0 -31 -7t-16 -32z" />
    <glyph glyph-name="E" unicode="E" horiz-adv-x="566" 
d="M132 144l116 372q23 70 20 90t-42 28l-20 4q-5 6 -3.5 14t9.5 11q36 -2 53 -2q18 -1 58 -1h189q111 0 141 3q-12 -30 -41 -133q-3 -6 -13 -5.5t-12 6.5q7 38 1 59.5t-36 29.5q-34 9 -106 9h-59q-19 0 -25.5 -5.5t-13.5 -28.5l-64 -205q-7 -21 -5 -25t23 -4h50
q72 0 96.5 8.5t41.5 40.5l16 30q3 5 13.5 4.5t11.5 -6.5q-19 -45 -34 -97q-14 -45 -26 -97q-5 -6 -13.5 -5.5t-11.5 6.5v28q0 37 -19.5 45t-83.5 8h-50q-21 0 -26.5 -4t-12.5 -25l-41 -135q-15 -50 -18.5 -68.5t1.5 -41.5q10 -21 111 -21q89 0 128.5 17t84.5 87q16 10 23 -6
q-8 -27 -29.5 -70.5t-39.5 -61.5q-17 1 -54.5 1.5t-56.5 0.5q-20 0 -59.5 0.5t-58.5 0.5h-118q-53 0 -119 -3q-6 4 -6 12.5t5 12.5l35 3q36 3 51 23t39 96z" />
    <glyph glyph-name="F" unicode="F" horiz-adv-x="533" 
d="M133 144l117 372q23 70 20 89.5t-43 28.5l-18 4q-5 6 -3.5 14t9.5 11q9 -1 25.5 -1.5t25.5 -0.5q8 0 27 -0.5t30 -0.5h186q112 0 141 3q-12 -30 -41 -133q-3 -6 -13 -5.5t-12 6.5q7 38 1 59.5t-36 29.5q-35 9 -106 9h-55q-20 0 -25 -5t-13 -29l-69 -219
q-5 -16 -2.5 -20.5t18.5 -4.5h69q71 0 95.5 8.5t41.5 40.5l17 31q4 5 14.5 4t11.5 -6q-19 -49 -34 -95q-20 -61 -26 -100q-5 -5 -13 -5t-13 5l1 38q1 25 -20.5 34.5t-82.5 9.5h-74q-16 0 -21 -4.5t-11 -23.5l-44 -144q-8 -27 -12 -41.5t-6.5 -29.5t-1.5 -22t5.5 -13.5
t12.5 -9t21 -3.5l39 -3q4 -5 2.5 -13.5t-6.5 -11.5q-87 3 -136 3q-54 0 -113 -3q-6 4 -6 12.5t5 12.5l31 3q36 4 51 23.5t39 95.5z" />
    <glyph glyph-name="G" unicode="G" horiz-adv-x="703" 
d="M518 90l26 82q19 55 13.5 72t-49.5 23l-39 5q-5 4 -4.5 13t6.5 12q66 -3 120 -3q78 0 114 3q5 -3 5 -12t-6 -13l-17 -5q-29 -8 -38.5 -22t-28.5 -73l-31 -99q-7 -21 8 -30q2 -8 -4 -14q-129 -45 -210 -45q-133 0 -207.5 69t-74.5 191q0 79 35.5 161t108.5 146
q143 125 348 125q97 0 171 -32q-28 -60 -47 -133q-3 -6 -13 -5.5t-12 6.5q14 69 -12.5 101t-98.5 32q-148 0 -262 -107q-55 -51 -92.5 -141t-37.5 -174q0 -110 56.5 -159t141.5 -49q57 0 86.5 14.5t44.5 60.5z" />
    <glyph glyph-name="H" unicode="H" horiz-adv-x="761" 
d="M313 363h264q34 0 41 3t12 19l41 131q13 41 17 58t2.5 32t-11 19.5t-30.5 8.5l-25 4q-4 5 -2.5 13.5t8.5 11.5q62 -3 117 -3q50 0 116 3q6 -3 6 -11.5t-6 -13.5l-24 -4q-42 -7 -55.5 -25t-37.5 -93l-116 -372q-23 -70 -20.5 -92.5t39.5 -26.5l27 -3q10 -17 -4 -25
q-70 3 -122 3q-54 0 -116 -3q-6 4 -6 12t5 13l32 3q36 3 51 23t39 96l48 152q6 20 1 23.5t-37 3.5h-272q-23 0 -27.5 -3.5t-10.5 -20.5l-49 -155q-23 -70 -20.5 -92.5t39.5 -26.5l31 -3q4 -6 2.5 -14t-6.5 -11q-74 3 -126 3q-59 0 -107 -3q-6 4 -6 12t5 13l23 3q36 5 51 24
t39 95l117 372q13 40 17.5 57.5t2.5 32.5t-11.5 19.5t-31.5 8.5l-24 4q-12 18 6 25q60 -3 116 -3q53 0 116 3q6 -3 6 -11t-6 -14l-23 -4q-42 -7 -55 -24.5t-38 -93.5l-41 -129q-6 -17 -2 -20.5t31 -3.5z" />
    <glyph glyph-name="I" unicode="I" horiz-adv-x="341" 
d="M133 144l117 372q13 40 17.5 57.5t2.5 32.5t-11.5 19.5t-31.5 8.5l-24 4q-5 6 -3.5 14t9.5 11q60 -3 116 -3q48 0 120 3q6 -3 6 -12t-6 -13l-27 -4q-42 -7 -55.5 -24.5t-37.5 -93.5l-117 -372q-23 -70 -20.5 -92.5t39.5 -26.5l31 -3q4 -5 2.5 -13.5t-6.5 -11.5
q-74 3 -126 3q-55 0 -115 -3q-6 4 -6 12.5t5 12.5l31 3q36 4 51 23.5t39 95.5z" />
    <glyph glyph-name="J" unicode="J" horiz-adv-x="340" 
d="M139 125l121 391q16 52 19 72.5t-5.5 31t-36.5 15.5l-25 4q-5 6 -3.5 13.5t9.5 10.5q61 -3 117 -3q52 0 112 3q6 -3 6 -11.5t-6 -12.5l-27 -4q-36 -5 -48.5 -23.5t-36.5 -95.5l-142 -457q-28 -89 -63 -149q-66 -111 -183 -111q-63 0 -63 29q0 13 12 28t27 15q13 0 37 -14
q26 -15 48 -15q32 0 65 87q23 57 66 196z" />
    <glyph glyph-name="K" unicode="K" horiz-adv-x="623" 
d="M133 144l117 372q13 40 17.5 57.5t3.5 32.5t-10 19.5t-28 8.5l-23 4q-5 6 -3.5 14t9.5 11q48 -3 108 -3q52 0 119 3q6 -3 5.5 -12t-8.5 -13l-20 -4q-44 -9 -57.5 -26t-37.5 -92l-42 -132q-6 -16 -2.5 -22t20.5 -6q23 0 43 10q34 20 105 87l100 95q65 63 65 74q0 6 -24 12
l-19 4q-5 4 -4 13.5t8 11.5q50 -3 110 -3q21 0 108 3q7 -4 6.5 -13t-7.5 -12l-21 -4q-40 -7 -67 -18q-58 -24 -177 -134l-128 -117q-13 -12 -14.5 -16.5t6.5 -21.5l110 -220q22 -44 39.5 -61t51.5 -21l26 -3q5 -5 4 -14t-7 -11q-48 3 -106 3q-56 0 -113 -3q-9 19 3 25l26 3
q17 2 22 7.5t2 14.5t-14 32l-105 206q-23 45 -40 45q-24 0 -33 -28l-49 -158q-23 -70 -20.5 -92.5t39.5 -26.5l28 -3q4 -5 2.5 -13.5t-6.5 -11.5q-69 3 -124 3q-54 0 -114 -3q-6 4 -6 12.5t5 12.5l31 3q36 4 51 23.5t39 95.5z" />
    <glyph glyph-name="L" unicode="L" horiz-adv-x="546" 
d="M324 516l-110 -354q-30 -82 -18 -106.5t99 -24.5q94 0 135 17t84 87q19 6 22 -6q-8 -25 -29 -68t-35 -64q-74 2 -117 2q-40 1 -114 1h-116q-58 0 -106 -3q-6 4 -6 12.5t5 12.5l24 3q36 5 51 24t39 95l117 372q13 40 17.5 57.5t2.5 32.5t-11.5 19.5t-31.5 8.5l-24 4
q-5 6 -3.5 14t9.5 11q13 0 35.5 -1t41.5 -1.5t37 -0.5q24 0 65.5 1.5t60.5 1.5q6 -3 6 -12t-6 -13l-31 -4q-42 -5 -55.5 -23t-37.5 -95z" />
    <glyph glyph-name="M" unicode="M" horiz-adv-x="874" 
d="M192 339l52 135q42 108 42 134q0 19 -28 23l-47 7q-5 4 -3.5 13t8.5 12q70 -3 110 -3q35 0 67 3q-7 -23 -7 -55.5t2.5 -58.5t9.5 -81l16 -129q11 -84 22 -183h2q15 18 115 147l159 205q84 108 97 155q25 -3 62 -3q55 0 101 3q5 -4 4.5 -12t-4.5 -13l-23 -4
q-46 -8 -60 -23q-16 -18 -46 -124l-87 -310q-27 -96 -29 -125q-2 -24 40 -27l34 -3q5 -5 3.5 -13.5t-7.5 -11.5q-55 3 -128 3q-65 0 -121 -3q-5 5 -5 13.5t5 11.5l26 3q40 5 55 19q18 18 51 127l80 262q29 94 38 126l-3 1q-4 -5 -33 -43t-60 -79l-152 -197
q-117 -153 -160 -225q-10 -7 -19 4q1 40 -16 204l-34 336h-2q-14 -31 -46 -119l-75 -202q-60 -161 -60 -187q0 -18 30 -23l43 -7q3 -5 2 -13t-5 -12q-42 3 -115 3q-59 0 -107 -3q-5 4 -4.5 13.5t5.5 11.5l27 3q40 4 57 27q20 25 121 287z" />
    <glyph glyph-name="N" unicode="N" horiz-adv-x="739" 
d="M155 233l79 256q33 106 33 119q0 17 -26 22l-40 8q-6 5 -4.5 14t9.5 11q8 -1 23.5 -1.5t23.5 -0.5q7 0 25.5 -0.5t29.5 -0.5h62v-14q0 -23 49 -145l101 -249q41 -98 49 -113q8 0 17 28l79 251q48 152 48 185q0 15 -4.5 20.5t-20.5 8.5l-39 6q-4 7 -2 14.5t8 10.5
q53 -3 113 -3q52 0 95 3q4 -3 4.5 -11.5t-3.5 -13.5l-23 -4q-41 -7 -52 -18q-26 -26 -82 -201l-72 -224q-34 -105 -63 -206q-8 -8 -24 -6q-28 87 -93 244l-79 192q-10 24 -24.5 62t-25 63t-17.5 40q-5 0 -32 -88l-78 -260q-13 -43 -42 -166q-4 -16 2.5 -24.5t16 -11.5
t30.5 -5l23 -3q4 -5 3 -13t-6 -12q-45 3 -114 3q-58 0 -105 -3q-5 3 -6 11t4 14l25 3q31 3 49 17q23 17 76 191z" />
    <glyph glyph-name="O" unicode="O" horiz-adv-x="730" 
d="M506 676q105 0 174 -71t63 -203q-4 -85 -40.5 -169.5t-94.5 -139.5q-115 -109 -262 -109q-120 0 -183.5 78t-60.5 183q2 96 42.5 185.5t117.5 154.5q107 91 244 91zM502 645q-80 0 -150 -60q-62 -52 -112 -155t-54 -223q-3 -81 36.5 -136.5t130.5 -55.5q92 0 167 80
q64 69 100 166t39 185q4 94 -38.5 146.5t-118.5 52.5z" />
    <glyph glyph-name="P" unicode="P" horiz-adv-x="552" 
d="M237 623l-48 4q-5 5 -4 12t7 12q74 12 168 12q139 0 198 -49q55 -47 55 -124q0 -93 -85 -153q-74 -51 -185 -51q-6 2 -7 9t4 12q31 4 61.5 16.5t60.5 35t48.5 61t18.5 86.5q0 63 -36.5 94.5t-98.5 31.5q-23 0 -29.5 -5.5t-14.5 -29.5l-141 -453q-23 -70 -20.5 -93
t39.5 -26l36 -3q4 -5 2.5 -13.5t-6.5 -11.5q-72 3 -131 3q-55 0 -115 -3q-6 4 -6 12.5t5 12.5l31 3q36 4 51 23.5t39 95.5l129 414q12 36 6.5 49.5t-32.5 15.5z" />
    <glyph glyph-name="Q" unicode="Q" horiz-adv-x="730" 
d="M506 676q105 0 174 -71t63 -203q-4 -85 -40.5 -169.5t-94.5 -139.5q-79 -75 -164 -95q-10 -6 -1 -15q124 -124 214 -156q36 -13 86 -13q35 0 57 10q9 -5 5 -15q-39 -28 -112 -28q-93 0 -182.5 52.5t-150.5 129.5q-17 22 -46 23q-24 1 -50 9.5t-56 28t-53.5 47.5
t-38.5 73.5t-14 100.5q2 96 42.5 185.5t117.5 154.5q107 91 244 91zM502 645q-80 0 -150 -60q-62 -52 -112 -155t-54 -223q-3 -81 36.5 -136.5t130.5 -55.5q92 0 167 80q64 69 100 166t39 185q4 94 -38.5 146.5t-118.5 52.5z" />
    <glyph glyph-name="R" unicode="R" horiz-adv-x="574" 
d="M132 144l117 374q22 71 19.5 88t-28.5 20l-38 4q-4 6 -2.5 14t7.5 11q65 8 170 8q132 0 189 -52q46 -41 46 -114q0 -70 -53.5 -118t-118.5 -59q-10 -1 -12.5 -6t0.5 -18q21 -89 50 -173q14 -40 22 -57t26.5 -30.5t50.5 -16.5q9 -5 0 -19q-24 -3 -63 -3t-60 12t-33 47
q-38 112 -59 194q-9 34 -17.5 42t-32.5 8q-39 0 -49 -5t-17 -27l-39 -124q-23 -70 -20.5 -92t40.5 -27l24 -3q4 -5 2.5 -13.5t-6.5 -11.5q-63 3 -120 3q-59 0 -106 -3q-6 4 -6 12.5t5 12.5l22 3q37 5 51.5 24.5t38.5 94.5zM349 600l-70 -229q-9 -31 -3.5 -36.5t43.5 -5.5
q82 0 145.5 51t65.5 130q2 59 -32.5 90.5t-98.5 31.5q-28 0 -36 -5.5t-14 -26.5z" />
    <glyph glyph-name="S" unicode="S" horiz-adv-x="471" 
d="M211 -16q-125 0 -175 70q-5 62 18 116q12 10 21 -2q12 -153 148 -153q56 0 101 36t45 105q0 50 -25 84t-75 73q-104 84 -104 174q0 83 60 136t159 53q44 0 84 -13t61 -27q-8 -14 -37 -116q-5 -4 -13.5 -4t-13.5 5q11 56 -10 90t-84 34q-65 0 -100 -36.5t-35 -91.5
q0 -69 97 -144q52 -40 80 -82.5t28 -99.5q0 -90 -63.5 -148.5t-166.5 -58.5z" />
    <glyph glyph-name="T" unicode="T" horiz-adv-x="634" 
d="M306 660h370q39 0 54.5 4t30.5 19q13 5 17 -5q-14 -24 -33 -72t-24 -70q-3 -5 -11 -5t-12 5q4 62 -10.5 77.5t-84.5 15.5h-61q-24 0 -30 -6t-16 -38l-138 -441q-23 -70 -20.5 -93t38.5 -26l37 -3q6 -5 5 -13.5t-9 -11.5q-81 3 -132 3q-52 0 -122 -3q-6 4 -6 12.5t5 12.5
l39 3q34 2 50.5 23t39.5 96l138 441q10 33 7 38.5t-28 5.5h-66q-70 0 -99 -17.5t-69 -72.5q-7 -3 -14 0t-9 10q45 71 72 134q3 4 9.5 4t9.5 -4q-2 -14 12.5 -18.5t59.5 -4.5z" />
    <glyph glyph-name="U" unicode="U" horiz-adv-x="734" 
d="M159 266l78 250q16 52 19 72.5t-5.5 31t-36.5 15.5l-25 4q-5 4 -4 12.5t8 11.5q63 -3 117 -3q50 0 123 3q5 -3 5 -11.5t-6 -12.5l-28 -4q-41 -6 -54.5 -24t-37.5 -95l-72 -231q-82 -265 130 -265q167 0 247 248l46 141q30 93 40 155q8 33 2 49.5t-40 21.5l-28 4
q-5 5 -3.5 13t7.5 11q73 -3 107 -3q50 0 108 3q6 -4 6 -12t-6 -12l-23 -4q-36 -6 -49.5 -19.5t-29.5 -54.5q-10 -27 -49 -152l-46 -147q-47 -148 -117 -209q-78 -69 -189 -69q-137 0 -187 72t-7 210z" />
    <glyph glyph-name="V" unicode="V" horiz-adv-x="622" 
d="M249 95l-41 429q-6 65 -14.5 86t-33.5 25l-25 4q-5 6 -3.5 13.5t8.5 10.5q46 -3 97 -3q61 0 109 3q7 -3 7 -11.5t-6 -12.5l-28 -4q-32 -5 -39 -16.5t-3 -56.5l35 -376q5 -56 10 -60q8 3 45 59l114 170q123 182 148 224q12 19 15 30t-1.5 16.5t-16.5 7.5l-37 6q-5 4 -4 13
t7 11q59 -3 112 -3q50 0 89 3q5 -3 5 -11t-3 -13l-29 -4q-33 -4 -59 -34q-52 -56 -170 -229l-85 -124q-30 -44 -96 -145t-75 -116q-5 -3 -12 -3t-13 3q-1 38 -7 108z" />
    <glyph glyph-name="W" unicode="W" horiz-adv-x="878" 
d="M254 171l-57 394q-7 46 -14 55q-9 10 -33 15l-21 4q-5 4 -4.5 12.5t7.5 11.5q48 -3 97 -3q52 0 103 3q5 -2 5.5 -11.5t-4.5 -12.5l-37 -4q-20 -2 -26 -14.5t-2 -42.5l54 -378q12 -81 16 -84q6 4 64 83l67 92q12 17 15.5 27t0.5 29l-34 228q-5 32 -13.5 44t-32.5 16l-23 4
q-5 4 -4 13t8 11q41 -3 98 -3q64 0 98 3q5 -2 5 -11t-5 -13l-33 -4q-20 -2 -26 -12.5t-2 -40.5l25 -189l18 27l34 50q72 105 92 142q5 8 -2 14.5t-19 8.5l-25 4q-5 4 -4 13t8 11q45 -3 89 -3q53 0 84 3q5 -3 5 -11.5t-5 -12.5l-19 -4q-31 -7 -45 -18t-48 -53
q-65 -82 -136 -189q-2 -2 -6 -7.5t-5 -7t-3 -5.5t-2 -7v-8t1 -11l19 -129q12 -79 17 -84q7 3 50 69q197 299 237 369q34 57 35 66q1 6 -4.5 9t-21.5 6l-20 4q-5 4 -4 12.5t7 11.5q49 -3 91 -3q52 0 84 3q5 -2 5 -11.5t-5 -12.5l-23 -4q-14 -3 -27.5 -10.5t-27 -23.5
t-20.5 -24.5t-21.5 -30.5t-15.5 -24l-155 -228q-62 -92 -200 -307q-4 -3 -12 -3t-12 3q-7 87 -33 247l-6 37l-134 -191q-40 -58 -60 -93q-5 -3 -12 -3t-13 3q-5 71 -22 184z" />
    <glyph glyph-name="X" unicode="X" horiz-adv-x="576" 
d="M-42 22l23 3q40 5 69.5 26t84.5 81q8 9 63.5 67.5t100.5 108.5q15 17 8 34q-12 31 -42.5 114.5t-44.5 119.5q-12 31 -22.5 42.5t-35.5 15.5l-22 4q-5 5 -3 14t8 11q68 -3 107 -3q63 0 102 3q5 -4 5 -12.5t-5 -12.5l-27 -4q-31 -4 -37 -13.5t3 -34.5q63 -176 73 -203
q71 72 185 207q20 22 20 31.5t-23 12.5l-29 4q-5 5 -4 13t8 12q45 -3 100 -3q45 0 91 3q6 -3 5.5 -12t-6.5 -13l-24 -4q-28 -5 -58 -31q-22 -19 -44 -39.5t-48 -47t-42 -43.5t-50 -53t-49 -52q-13 -13 -15 -19t4 -22q19 -51 54.5 -139t45.5 -113q19 -47 50 -50l37 -3
q5 -3 4.5 -12.5t-6.5 -12.5q-58 3 -108 3q-61 0 -112 -3q-6 3 -6.5 12.5t4.5 12.5l22 3q29 4 36 11.5t-1 36.5q-56 154 -80 215q-97 -106 -203 -235q-17 -20 7 -24l40 -7q5 -4 4 -14t-7 -11q-52 3 -111 3t-96 -3q-6 3 -7 12t4 13z" />
    <glyph glyph-name="Y" unicode="Y" horiz-adv-x="564" 
d="M299 579l51 -235q4 -19 9.5 -19t20.5 18l123 148q96 118 96 126q0 12 -29 17l-25 4q-5 4 -4.5 12.5t6.5 12.5q59 -3 104 -3q41 0 90 3q5 -3 5 -12t-5 -13l-21 -4q-40 -8 -56 -23q-41 -37 -98 -103l-114 -134q-53 -62 -69 -87.5t-34 -82.5l-19 -60q-17 -54 -20.5 -76
t4.5 -31.5t35 -11.5l36 -3q5 -4 3.5 -13.5t-6.5 -11.5q-84 3 -134 3q-52 0 -119 -3q-6 4 -6 12.5t5 12.5l36 3q35 3 49.5 22.5t40.5 96.5l20 59q14 40 15.5 60.5t-8.5 67.5l-50 217q-11 49 -21 65.5t-36 20.5l-25 4q-4 5 -3 13.5t6 11.5q56 -3 106 -3q59 0 107 3q5 -4 5 -12
t-5 -13l-29 -4q-28 -4 -36 -15t-1 -40z" />
    <glyph glyph-name="Z" unicode="Z" horiz-adv-x="601" 
d="M120 145l439 457q17 25 -28 27h-153q-83 0 -117.5 -17.5t-79.5 -82.5q-7 -4 -14.5 -0.5t-8.5 12.5q35 59 60 144q6 6 12 0q4 -17 19.5 -21t76.5 -4h267q80 0 107 3q10 -1 8 -12q-9 -6 -26.5 -21.5t-43 -41.5t-46 -47.5t-53 -54.5t-45.5 -47l-229 -238
q-135 -145 -135 -153q0 -17 90 -17h88q144 0 186 22q43 23 82 89q5 3 11.5 0t8.5 -8q-8 -31 -30 -74.5t-39 -62.5q-52 2 -93 2q-34 1 -104 1h-234q-71 0 -110 -3q-4 1 -5 6.5t1 9.5q34 25 138 132z" />
    <glyph glyph-name="bracketleft" unicode="[" horiz-adv-x="320" 
d="M40 -150l249 836h65q98 0 109 -3q3 -4 2 -10.5t-5 -9.5l-93 -11q-22 -3 -28 -10q-21 -24 -60 -156l-130 -436q-41 -139 -35 -156q2 -7 23 -10l86 -11q4 -11 -5 -20q-13 -3 -113 -3h-65z" />
    <glyph glyph-name="backslash" unicode="\" horiz-adv-x="340" 
d="M117 676l191 -692h-57l-191 692h57z" />
    <glyph glyph-name="bracketright" unicode="]" horiz-adv-x="320" 
d="M365 686l-249 -836h-65q-98 0 -109 3q-3 4 -2 10.5t5 9.5l93 11q22 3 28 10q21 24 60 156l130 436q41 139 35 156q-2 7 -23 10l-86 11q-4 11 5 20q13 3 113 3h65z" />
    <glyph glyph-name="asciicircum" unicode="^" horiz-adv-x="560" 
d="M518 244h-62l-138 311l-138 -311h-63l177 382h48z" />
    <glyph glyph-name="underscore" unicode="_" horiz-adv-x="500" 
d="M500 -75v-50h-500v50h500z" />
    <glyph glyph-name="grave" unicode="`" 
d="M234 618l46 -142q0 -6 -6.5 -9t-11.5 -2l-81 111q-14 20 -14 28q0 12 17 23q18 13 31 13q12 0 19 -22z" />
    <glyph glyph-name="a" unicode="a" horiz-adv-x="444" 
d="M374 367l28 64q13 6 28.5 0.5t20.5 -15.5q-85 -210 -134 -349q-8 -23 7 -23q27 0 103 67q14 0 14 -13q-34 -45 -81.5 -78.5t-86.5 -33.5q-15 0 -22 9t-7 18q0 10 10 39l33 90l-3 1q-52 -65 -118 -111t-102 -46q-20 0 -32 17t-12 39q0 24 22 79t66 115q68 93 132 129
q51 29 90 29q12 0 24 -6q13 -6 20 -21zM299 356q-28 0 -71 -39q-47 -42 -86 -123.5t-39 -135.5q0 -19 15 -19q26 0 97 65q101 94 134 216q-13 36 -50 36z" />
    <glyph glyph-name="b" unicode="b" horiz-adv-x="466" 
d="M299 576l-130 -342h2q56 85 107.5 129.5t104.5 44.5q42 0 64 -25t22 -65q0 -52 -34 -114t-95 -121q-55 -53 -106 -75t-85 -22q-80 0 -80 92q0 60 51 197l116 308q16 43 18 59t-8 24l-23 16q-4 7 3 14q55 20 120 19l4 -6q-6 -16 -51 -133zM368 374q-46 0 -138 -105
q-45 -51 -69.5 -106.5t-24.5 -93.5q0 -52 35 -52q13 0 40 17t56 50q49 55 92.5 134t43.5 120q0 36 -35 36z" />
    <glyph glyph-name="c" unicode="c" horiz-adv-x="338" 
d="M302 408q36 0 55 -17t19 -42q0 -26 -17.5 -36.5t-31.5 -10.5q-17 0 -20 18q0 2 -1 10.5t-1.5 11.5t-2 10t-4 9.5t-6 6.5t-8.5 5.5t-12 1.5q-39 0 -84 -67q-26 -39 -45.5 -95.5t-21.5 -111.5q-3 -65 43 -65q42 0 108 61q7 1 11 -4t2 -13q-31 -41 -75.5 -67.5t-89.5 -26.5
q-32 0 -53.5 26t-21.5 80q0 55 33 129t94 129q64 58 130 58z" />
    <glyph glyph-name="d" unicode="d" horiz-adv-x="474" 
d="M391 377l72 206q15 43 17 58.5t-8 24.5l-23 16q-4 7 3 14q56 20 118 19l4 -6q-8 -24 -63 -177q-93 -257 -155 -463q-7 -23 6 -23q12 0 49.5 30.5t60.5 59.5q14 0 15 -13q-21 -44 -77 -90.5t-93 -46.5q-15 0 -23.5 9.5t-8.5 22.5q0 19 13 57l35 99l-4 1
q-33 -45 -54.5 -70.5t-54 -57t-65 -46.5t-67.5 -15q-28 0 -44 20.5t-16 51.5q0 56 38 133t95 128q99 89 179 89q13 0 28 -8t23 -23zM338 378q-29 0 -76 -43q-31 -29 -76 -89t-67 -106q-31 -64 -31 -95q0 -9 6 -15t13 -6q16 0 52.5 21t82.5 68q95 97 122 193q9 32 1 52
t-27 20z" />
    <glyph glyph-name="e" unicode="e" horiz-adv-x="346" 
d="M313 408q28 0 45.5 -19t17.5 -41q0 -54 -63 -94t-180 -72q-14 -34 -14 -89q0 -25 13.5 -41t34.5 -16q25 0 46 12.5t59 45.5q7 0 11 -5t2 -12q-74 -91 -160 -91q-41 0 -61 31.5t-20 73.5q0 57 37.5 134.5t111.5 134.5q62 48 120 48zM293 377q-32 0 -76 -48
q-46 -50 -74 -117q48 15 76.5 31t57.5 43q20 19 29.5 38.5t9.5 29.5q0 23 -23 23z" />
    <glyph glyph-name="f" unicode="f" horiz-adv-x="261" 
d="M354 357h-124q-3 -8 -26 -93q-41 -152 -89 -318q-33 -115 -79 -161q-58 -54 -120 -54q-36 0 -54.5 17t-18.5 32q0 28 23 45q12 9 23 -4q39 -41 76 -41q12 0 20.5 4.5t20.5 24t23 55.5q22 77 63 243t66 250h-83q-7 7 -5 18.5t12 18.5h86q46 160 112 238q70 83 160 83
q29 0 53 -18.5t24 -47.5q0 -19 -15 -38t-28 -19q-12 0 -14 16q-2 38 -18 55.5t-38 17.5q-35 0 -72 -54q-22 -32 -39.5 -72.5t-27 -70t-26.5 -90.5h125q13 -20 -10 -37z" />
    <glyph glyph-name="g" unicode="g" horiz-adv-x="382" 
d="M287 408q7 0 32 -9q4 -2 9.5 -4t9 -3.5t5.5 -1.5q25 0 48 6q30 8 45 8q21 0 21 -25q0 -31 -22 -31q-11 0 -33 5q-18 6 -37 6q-4 0 -7 -2t-2 -4q7 -28 7 -38q0 -58 -36 -112t-91 -88q-18 -12 -71 -26q-22 -12 -22 -35q0 -25 33 -47q1 -1 98 -60q75 -44 75 -97
q0 -46 -65 -82.5t-179 -36.5q-62 0 -110 24.5t-48 70.5q0 35 33.5 66.5t67.5 47.5t70 27q-32 21 -32 46q0 19 45 77q-73 19 -73 90q0 43 22 89t59 79q70 60 148 60zM151 -236q44 0 88 18t44 50q0 31 -43 61q-71 47 -93 50q-36 4 -93 -37q-38 -28 -38 -65q0 -34 40.5 -55.5
t94.5 -21.5zM275 379q-30 0 -67 -41q-33 -38 -61.5 -93t-28.5 -91q0 -15 9 -25t21 -10q33 0 66 39q39 46 65 103t26 84q0 15 -9 24.5t-21 9.5z" />
    <glyph glyph-name="h" unicode="h" horiz-adv-x="475" 
d="M333 715l4 -6q-24 -67 -72 -204l-103 -299l2 -2q74 104 158 165q54 39 95 39q31 0 45.5 -19t14.5 -48q0 -48 -23.5 -113.5t-54.5 -120.5q-22 -39 -65 -82q-39 -39 -73 -39q-37 0 -37 29q0 12 8.5 22t18.5 10q7 0 14 -6q17 -13 26 -13q19 0 40 50q24 58 48 139t24 119
q0 30 -21 30q-20 0 -54 -27q-61 -46 -127 -133q-47 -62 -121 -208q-6 -12 -18 -12q-8 0 -15 1.5t-12.5 8t-1.5 16.5l190 562q0 1 1 3q10 29 13 40t5.5 23t0 16.5t-8.5 8.5l-21 14q-3 8 3 13q13 6 52.5 14t64.5 9z" />
    <glyph glyph-name="i" unicode="i" horiz-adv-x="278" 
d="M52 22l127 303q9 19 -2 19q-18 0 -83 -53q-7 1 -11 6t-2 11q38 44 87.5 72t77.5 28q6 0 16 -10q9 -9 -6 -44l-119 -284q-9 -22 3 -22q13 0 46 23t58 51q15 -2 15 -17q-15 -28 -78 -73.5t-109 -45.5q-8 0 -16 9q-11 12 -4 27zM264 614q34 0 34 -38q0 -24 -15 -43t-37 -19
q-18 0 -26.5 11t-8.5 26q0 21 13.5 42t39.5 21z" />
    <glyph glyph-name="j" unicode="j" horiz-adv-x="259" 
d="M-73 -269q-33 0 -50 17t-17 37q0 14 9.5 26.5t22.5 12.5q7 0 12 -10q25 -43 57 -43q28 0 50 50q29 70 108 323q56 185 56 189q1 13 -8 13q-27 0 -99 -77q-14 2 -16 17q20 34 75.5 78t98.5 44q10 0 17.5 -9t7.5 -20q0 -21 -53 -193q-76 -243 -91 -280q-72 -175 -180 -175z
M255 614q34 0 34 -38q0 -24 -15 -43t-37 -19q-18 0 -26.5 11t-8.5 26q0 21 13.5 42t39.5 21z" />
    <glyph glyph-name="k" unicode="k" horiz-adv-x="448" 
d="M40 12l183 552q17 52 18.5 68.5t-11.5 22.5l-18 9q-10 7 -2 15q47 22 122 36l6 -5q-12 -43 -49 -147l-103 -296h2q45 60 102 103q53 38 108 38q39 0 55.5 -17t16.5 -38q0 -35 -41 -73q-81 -74 -160 -88q-8 -4 -3 -19q14 -49 37 -94q18 -33 32 -33q21 0 60 47q13 0 13 -12
q-23 -49 -53 -72t-48 -23q-23 0 -46 40q-27 49 -46 107q-12 39 -37 33q-15 -4 -21.5 -11t-15.5 -29l-52 -127q-6 -13 -17 -13q-8 0 -15.5 1.5t-14 8t-2.5 16.5zM393 339q0 10 -8 18t-24 8q-37 0 -97 -51q-28 -24 -55 -56t-37 -53q-4 -8 -1.5 -12t11.5 -3q56 5 147 65
q30 20 47 43.5t17 40.5z" />
    <glyph glyph-name="l" unicode="l" horiz-adv-x="246" 
d="M281 537l-158 -472q-11 -33 4 -33q26 0 115 101q16 2 16 -14q-26 -50 -71.5 -91.5t-100.5 -41.5q-39 0 -39 30q0 19 22 85l159 473q16 54 14.5 67.5t-15.5 19.5l-18 8q-4 3 -4 8.5t4 7.5q63 25 126 30l5 -6q-22 -60 -59 -172z" />
    <glyph glyph-name="m" unicode="m" horiz-adv-x="729" 
d="M421 408q83 0 29 -130l-38 -92l3 -2q141 224 238 224q56 0 56 -54q0 -29 -16 -70q-8 -22 -30.5 -75t-42 -98.5t-20.5 -47.5q-8 -19 2 -19q13 0 43 21t51 47q16 2 16 -14q-28 -47 -79 -79.5t-93 -32.5q-7 0 -15.5 8t-8.5 17t24 66q44 103 81 197q21 54 21 73q0 24 -16 24
q-37 0 -131 -120q-55 -69 -157 -253q-8 -12 -18 -12q-8 0 -15 1.5t-12.5 8t-1.5 16.5l99 262q0 1 3.5 8.5t6.5 15.5t6.5 18.5t5 19.5t1.5 17.5t-4 13t-11 4.5q-42 0 -139 -120q-24 -31 -51.5 -75.5t-42.5 -72t-56 -105.5q-7 -12 -18 -12q-8 0 -15 1.5t-12.5 8t-1.5 16.5
q104 277 114 315q8 28 -7 28q-44 0 -88 -55q-16 0 -14 15q21 40 61 66.5t93 26.5q17 0 24 -12t0 -29l-69 -181l3 -2q59 97 123.5 160.5t118.5 63.5z" />
    <glyph glyph-name="n" unicode="n" horiz-adv-x="501" 
d="M245 367l-68 -175l3 -2q60 91 126.5 154.5t118.5 63.5q56 0 56 -54q0 -24 -16 -70q-8 -22 -30.5 -75t-42 -98.5t-20.5 -47.5q-8 -19 2 -19q13 0 43 21t51 47q16 2 16 -14q-28 -47 -79 -79.5t-93 -32.5q-7 0 -15.5 8t-8.5 17t24 66q8 18 38 93.5t43 103.5q21 47 21 73
q0 24 -16 24q-18 0 -57.5 -34t-80.5 -85q-25 -31 -52.5 -75.5t-44 -74t-56.5 -104.5q-7 -12 -18 -12q-8 0 -15 1.5t-12.5 8t-1.5 16.5q49 127 116 315q9 23 -3 23q-34 0 -91 -50q-14 0 -12 15q29 40 70.5 66.5t78.5 26.5q18 0 25.5 -12t0.5 -29z" />
    <glyph glyph-name="o" unicode="o" horiz-adv-x="406" 
d="M294 408q52 0 78.5 -35t23.5 -91q-3 -49 -29 -112t-77 -115q-67 -69 -143 -69q-49 0 -76.5 35t-23.5 98q3 51 32 114.5t77 109.5q68 65 138 65zM287 378q-37 0 -73 -48q-41 -55 -69 -130.5t-31 -119.5q-2 -27 9 -45.5t32 -18.5q40 0 79 52q32 43 61.5 123t31.5 121
q2 66 -40 66z" />
    <glyph glyph-name="p" unicode="p" horiz-adv-x="448" 
d="M282 453l-21 -61q3 0 15 1t23 1q29 0 56.5 -7.5t53.5 -35t26 -71.5q0 -126 -132 -237q-28 -24 -64.5 -38t-53.5 -16.5t-25 -2.5q-10 0 -31 6q-11 -3 -16 -18l-41 -118q-20 -58 -18.5 -72.5t26.5 -18.5l41 -6q11 -15 -4 -22q-17 0 -218 -6q-13 11 0 22l22 4q8 1 15 3.5
t12.5 4t10.5 5.5t8 5.5t7 7t5.5 7t4.5 9.5t3.5 9.5t4 11t4.5 11.5l186 522q-43 -12 -101 -41q-6 1 -9 6.5t-1 12.5q49 35 124 55l30 81q10 8 32 2.5t25 -16.5zM253 362l-104 -292q-6 -16 1 -27q14 -23 37 -23q18 0 51 19t61 62q59 91 59 188q0 36 -22.5 55.5t-56.5 19.5
q-12 0 -26 -2z" />
    <glyph glyph-name="q" unicode="q" horiz-adv-x="465" 
d="M423 225l-120 -384q-13 -40 -10.5 -55.5t21.5 -16.5l33 -3q4 -4 3 -11.5t-7 -10.5q-72 -4 -216 -29q-6 3 -7.5 11t3.5 12l46 14q30 9 40.5 23.5t23.5 54.5l115 357h-2q-22 -31 -45.5 -60t-58 -64t-73 -56t-72.5 -21q-30 0 -45.5 22t-15.5 53q0 76 50 159q63 107 153 156
q60 32 114 32q20 0 34.5 -16t19.5 -39q32 52 54 81q7 2 14.5 -1.5t8.5 -10.5q-4 -13 -11 -35t-21.5 -69t-28.5 -93zM332 378q-34 0 -78 -40q-50 -46 -98 -136t-48 -143q0 -28 22 -28q27 0 84 48q83 71 126 144q28 50 28 98q0 18 -10 37.5t-26 19.5z" />
    <glyph glyph-name="r" unicode="r" horiz-adv-x="341" 
d="M189 408q55 0 23 -95l-43 -126h5q60 112 105 169q40 52 73 52q40 0 40 -49q0 -32 -21 -60q-9 -12 -19 -11t-13 16q-7 39 -21 39q-12 0 -35 -30q-28 -36 -61 -95t-53 -100t-56 -120q-6 -12 -17 -12q-8 0 -15.5 1.5t-14 8t-3.5 16.5q2 7 24.5 72t44.5 132t34 111
q6 21 -8 21q-32 0 -71 -52q-8 -2 -12.5 2.5t-3.5 13.5q57 96 118 96z" />
    <glyph glyph-name="s" unicode="s" horiz-adv-x="262" 
d="M225 408q26 0 43 -18t17 -39q0 -22 -18 -31q-11 -3 -19 8q-12 12 -17 16.5t-17.5 10t-26.5 5.5q-20 0 -30.5 -13t-10.5 -27q0 -34 34 -91q16 -26 22.5 -39t11.5 -32t4 -40q-2 -53 -52 -96q-41 -36 -101 -36q-27 0 -44 17t-17 36q0 17 15 33q13 12 27 0q35 -40 69 -40
q19 0 33.5 17t14.5 40q0 29 -37 88q-35 57 -35 93q0 53 60 105q38 33 74 33z" />
    <glyph glyph-name="t" unicode="t" horiz-adv-x="284" 
d="M337 346h-109l-90 -263q-8 -25 7 -25q11 0 50 31t64 59q17 0 14 -18q-40 -59 -99 -101.5t-93 -42.5q-10 0 -18.5 9t-8.5 18q0 15 14 57l94 276h-78q-4 22 11 28l80 14l56 99q7 5 19.5 3t18.5 -9l-29 -98h109q5 -7 1.5 -19.5t-13.5 -17.5z" />
    <glyph glyph-name="u" unicode="u" horiz-adv-x="496" 
d="M261 378l-112 -292q-13 -34 7 -34q22 0 107 83q26 26 49 55t43.5 62t32.5 54t29.5 55t21.5 41q15 3 30.5 -3t18.5 -15q-2 -5 -23.5 -61t-48 -126t-45.5 -123q-10 -25 4 -25q13 0 44.5 26t53.5 52q17 4 18 -14q-21 -39 -79 -83t-96 -44q-12 0 -20.5 11.5t-4.5 23.5l68 183
l-2 1q-64 -80 -138.5 -149.5t-111.5 -69.5q-29 0 -36 26t7 59l92 243q11 29 0 29q-13 0 -43 -23t-52 -46q-7 -1 -12.5 3.5t-4.5 11.5q21 33 80.5 76t92.5 43q11 0 22.5 -9t7.5 -21z" />
    <glyph glyph-name="v" unicode="v" horiz-adv-x="426" 
d="M107 142l69 179q11 29 -7 29q-13 0 -40.5 -21t-52.5 -49q-7 0 -11.5 5.5t-3.5 11.5q29 41 73.5 76t84.5 35q19 0 30 -20t1 -46l-86 -223q-10 -28 -10 -47q0 -36 29 -36q44 0 109 74q41 47 63.5 100t22.5 91q0 41 -9 71q1 16 12 26t25 10q39 0 39 -62q0 -56 -49 -145
t-112 -142q-88 -73 -156 -73q-19 0 -32.5 18.5t-13.5 41.5q0 31 25 96z" />
    <glyph glyph-name="w" unicode="w" horiz-adv-x="657" 
d="M97 113l75 200q14 37 -3 37q-15 0 -42 -21t-50 -49q-7 0 -11.5 5.5t-3.5 11.5q29 42 72.5 76.5t85.5 34.5q19 0 29.5 -20t0.5 -46l-79 -209q-19 -49 -19 -71q0 -24 22 -24q30 0 75.5 49t81.5 103q46 70 65 160q5 24 19 39t28 15q16 0 23 -9t7 -19q0 -4 -0.5 -8.5
t-2.5 -10t-3.5 -9.5t-5 -12.5t-6 -13.5t-8 -17t-9.5 -19q-54 -111 -54 -204q0 -44 37 -44q23 0 58.5 26.5t65.5 69.5q62 89 62 167q0 41 -9 71q1 16 12 26t25 10q39 0 39 -62q0 -46 -27.5 -109t-81.5 -129q-50 -60 -103 -91t-88 -31q-17 0 -36.5 17.5t-19.5 39.5q0 30 17 85
q4 12 -0.5 11.5t-13.5 -12.5q-40 -54 -94 -97.5t-96 -43.5q-20 0 -35.5 17.5t-15.5 36.5q0 25 17 73z" />
    <glyph glyph-name="x" unicode="x" horiz-adv-x="420" 
d="M196 183l-42 108q-17 44 -25 46q-1 1 -3 1q-5 0 -10 -3t-10 -9.5t-8.5 -11.5t-9 -14t-7.5 -13q-8 -4 -13.5 0t-4.5 14q13 40 42 73.5t48 33.5q25 0 44 -52l43 -117q3 4 9.5 11.5t22 26.5t36.5 44q39 46 64.5 66.5t48.5 20.5q19 0 29.5 -14t10.5 -33q0 -24 -13.5 -41
t-26.5 -17q-9 0 -14 17q-7 25 -21 25q-13 0 -40 -27t-95 -110l37 -95q23 -57 36 -57q14 0 47 59q5 6 13.5 3.5t7.5 -9.5q-11 -51 -35.5 -87t-51.5 -36q-19 0 -31.5 17t-27.5 53l-38 95q-9 -9 -36 -41.5t-37 -44.5q-66 -79 -108 -79q-17 0 -26.5 10.5t-9.5 25.5q0 36 29 60
q12 11 22 11q8 0 10 -13q6 -28 18 -28q11 0 40 31q18 19 86 100z" />
    <glyph glyph-name="y" unicode="y" horiz-adv-x="366" 
d="M157 408q56 0 61 -170q2 -120 -15 -220h4q47 70 84 172q14 39 25 99.5t12 85.5q2 31 24 31q14 0 28 -9q9 -6 9 -20q1 -29 -28 -117.5t-88 -187.5q-3 -5 -17.5 -29.5t-18 -31t-16.5 -27.5t-19 -30t-19 -27.5t-23 -31t-23.5 -29.5t-28.5 -34q-88 -101 -156 -101
q-23 0 -37.5 13.5t-14.5 32.5t11.5 31t28.5 12q16 0 27 -16q11 -18 28 -18q21 0 55 28q21 18 48 61t40 89q22 79 20 228q-3 150 -38 150q-7 0 -14 -5t-15 -18t-13.5 -22.5t-15.5 -30.5q-15 -4 -19 13q17 54 48 91.5t66 37.5z" />
    <glyph glyph-name="z" unicode="z" horiz-adv-x="406" 
d="M2 14q0 18 58 71q83 75 243 226q14 14 -12 22q-61 20 -114 20q-24 0 -33.5 -12t-9.5 -24q0 -22 16 -38q0 -10 -9.5 -19t-25.5 -9q-18 0 -27.5 11t-9.5 26q0 30 45 72q45 40 104 40q28 0 64 -10q56 -17 73 -17q7 0 13.5 1t12 4t9.5 5t8 6.5t6 6.5t5.5 6.5t4.5 5.5
q11 1 19 -5t6 -15q-12 -11 -75 -67t-129 -117.5t-122 -118.5l1 -3q9 0 17.5 -0.5t16 -1.5t17 -4t15 -5t15.5 -6t14.5 -6t15.5 -7t14 -7q42 -19 63 -19q17 0 31.5 13t14.5 33q0 15 -10 48q-5 17 2.5 23.5t17.5 6.5q19 0 31 -16t12 -35q0 -45 -52 -87q-44 -35 -80 -35
q-24 0 -82 25q-9 4 -33.5 15.5t-38.5 16t-25 4.5q-24 0 -37 -12.5t-21 -39.5q-39 -3 -39 28z" />
    <glyph glyph-name="braceleft" unicode="{" horiz-adv-x="320" 
d="M310 476q-13 -76 -21 -103q-24 -84 -105 -103l-1 -4q51 -13 51 -69q0 -11 -6 -31.5t-13 -37t-17 -39.5t-12 -29q0 -1 -11.5 -27.5t-16.5 -39t-11 -33t-6 -32.5q0 -56 61 -69q2 -13 -5 -17q-111 0 -111 79q0 10 2 22t4.5 21t8.5 26.5t8.5 24.5t11.5 28.5t11 27.5
q3 7 9.5 23.5t9.5 23.5t8 20.5t7.5 21.5t5.5 19t4 19.5t1 16.5q0 37 -68 42q-5 15 5 22q32 2 54 9.5t33.5 21.5t15.5 22.5t9 24.5q10 31 24 103q15 77 24 110q36 124 176 124q2 -12 -6 -18q-94 -16 -113 -98q-11 -45 -21 -102z" />
    <glyph glyph-name="bar" unicode="|" horiz-adv-x="260" 
d="M199 750v-1000h-59v1000h59z" />
    <glyph glyph-name="braceright" unicode="}" horiz-adv-x="320" 
d="M101 60q13 76 21 103q24 84 105 103l1 4q-51 13 -51 69q0 11 6 31.5t13 37t17 39.5t12 29q0 1 11.5 27.5t16.5 39t11 33t6 32.5q0 56 -61 69q-2 13 5 17q111 0 111 -79q0 -10 -2 -22t-4.5 -21t-8.5 -26.5t-8.5 -24.5t-11.5 -28.5t-11 -27.5q-3 -7 -9.5 -23.5t-9.5 -23.5
t-8 -20.5t-7.5 -21.5t-5.5 -19t-4 -19.5t-1 -16.5q0 -37 68 -42q5 -15 -5 -22q-32 -2 -54 -9.5t-33.5 -21.5t-15.5 -22.5t-9 -24.5q-10 -31 -24 -103q-15 -77 -24 -110q-12 -41 -33.5 -68t-48.5 -38.5t-49 -15t-45 -2.5q-2 12 6 18q94 16 113 98q11 45 21 102z" />
    <glyph glyph-name="asciitilde" unicode="~" horiz-adv-x="560" 
d="M218 230h124q37 0 53 12.5t36 52.5q10 4 20 0.5t13 -14.5q-25 -63 -46 -82q-20 -18 -56 -18h-124q-37 0 -53 -13t-36 -53q-10 -4 -20 -0.5t-13 14.5q23 56 45 80q21 21 57 21z" />
    <glyph glyph-name="exclamdown" unicode="&#xa1;" horiz-adv-x="206" 
d="M-15 -266q-28 0 -37 8.5t-4 23.5q2 5 5.5 14t11.5 29.5t16 40.5l124 325q3 6 12 6t14 -6l-69 -323q-14 -68 -20 -87q-6 -20 -16.5 -25.5t-36.5 -5.5zM164 394q21 0 32.5 -13.5t11.5 -31.5q0 -29 -17 -46.5t-40 -17.5q-21 0 -32.5 12.5t-11.5 34.5q0 26 17.5 44t39.5 18z
" />
    <glyph glyph-name="cent" unicode="&#xa2;" horiz-adv-x="500" 
d="M275 154l100 341q-75 -4 -126.5 -65t-51.5 -137q0 -113 78 -139zM413 492l-102 -347q29 -10 75.5 8t70.5 43q5 0 9 -5t3 -11q-23 -31 -69 -52.5t-101 -21.5l-30 -102q-7 -8 -20 -7.5t-19 7.5l31 105q-70 11 -105.5 57t-35.5 109q0 104 78.5 174.5t185.5 76.5l25 86
q21 10 39 0l-25 -85q63 -4 99 -26q11 -13 5 -38q-3 -11 -11.5 -22.5t-15.5 -11.5q-5 0 -7 3q-32 48 -80 60z" />
    <glyph glyph-name="sterling" unicode="&#xa3;" horiz-adv-x="500" 
d="M95 333h81q10 0 12.5 1.5t2.5 7.5q5 30 12 59q23 108 87.5 173.5t148.5 65.5q48 0 73 -25q8 -9 8 -18q1 -16 -12.5 -31.5t-22.5 -15.5q-5 0 -13 7q-43 41 -82 41q-68 0 -99 -140q-5 -20 -10 -56.5t-8 -53.5q-1 -9 2 -12t15 -3h147q5 -4 2 -16t-10 -16h-146
q-13 0 -17.5 -2.5t-6.5 -11.5q-26 -124 -142 -207v-2q38 5 80 -1q20 -3 82 -31q54 -26 90 -26q45 0 51 72q3 37 24 37q17 0 27 -15t6 -35q-9 -38 -62.5 -73.5t-109.5 -35.5q-46 0 -110 39q-60 37 -94 37t-43 -33q-2 -10 -17.5 -18.5t-25.5 -8.5q-17 0 -14 18q5 24 63 65
q82 58 118 218q3 8 0.5 11t-13.5 3h-82q-5 5 -2 16t10 16z" />
    <glyph glyph-name="currency" unicode="&#xa4;" horiz-adv-x="500" 
d="M296 481q-60 0 -104 -49.5t-44 -118.5q0 -71 44.5 -119.5t103.5 -48.5t103.5 49t44.5 119q0 69 -44.5 118.5t-103.5 49.5zM296 527q67 0 119 -40l39 51q17 -5 31 -19t15 -29l-42 -45q43 -56 43 -132t-43 -132l42 -45q-1 -15 -15 -29t-31 -19l-39 51q-52 -40 -119 -40
q-65 0 -119 40l-38 -51q-17 5 -31 19t-16 29l43 45q-44 55 -44 132t44 132l-43 45q2 15 16 29t31 19l38 -51q54 40 119 40z" />
    <glyph glyph-name="yen" unicode="&#xa5;" horiz-adv-x="500" 
d="M450 211h-156l-29 -98q-16 -51 -11 -68t43 -22l29 -4q9 -12 -3 -22q-61 3 -118 3q-65 0 -118 -3q-5 4 -4.5 11t6.5 11l26 4q41 6 55.5 21.5t30.5 71.5l27 95h-153q-3 6 -0.5 17t9.5 15h152l24 81h-152q-3 6 -1 17t9 15h138l-54 164q-16 47 -25.5 62t-32.5 22l-21 6
q-4 5 -3 12t7 9q51 -3 103 -3q61 0 97 3q6 -4 6 -10.5t-5 -10.5l-43 -9q-22 -4 -25 -14t5 -37l37 -128q12 -45 20 -53q7 5 42 44l100 116q48 56 34 68q-4 3 -11 5l-30 8q-9 13 4 21q57 -3 98 -3q34 0 79 3q13 -10 3 -21l-28 -7q-20 -5 -43.5 -22.5t-35.5 -30t-36 -38.5
l-144 -156h148q4 -7 2 -17.5t-10 -14.5h-161l-26 -81h154q4 -7 1.5 -17.5t-10.5 -14.5z" />
    <glyph glyph-name="brokenbar" unicode="&#xa6;" horiz-adv-x="260" 
d="M199 675v-350h-59v350h59zM199 175v-350h-59v350h59z" />
    <glyph glyph-name="section" unicode="&#xa7;" horiz-adv-x="460" 
d="M437 697q28 0 49.5 -19t21.5 -46q0 -39 -27 -39q-7 0 -14 15q-24 42 -64 42q-41 0 -66 -23.5t-25 -61.5q0 -64 46 -176q4 -11 13.5 -34.5t13 -32t10.5 -26.5t9.5 -26t7 -21.5t5.5 -22.5t2.5 -20t1.5 -22q0 -56 -30 -101t-91 -101q-125 -115 -206 -115q-36 0 -61.5 22
t-25.5 56q0 14 12.5 17.5t23.5 -6.5q49 -38 94 -38q38 0 64 21.5t26 62.5q0 62 -52 187q-53 124 -53 182q0 65 52 138.5t127 125.5q90 62 136 62zM278 5l2 -2q28 26 52.5 68t24.5 89q0 57 -39 153q-56 138 -59 166q-4 52 7 89l-1 2q-29 -26 -56 -70t-27 -85q0 -73 46 -181
q52 -123 53 -160q2 -34 -3 -69z" />
    <glyph glyph-name="dieresis" unicode="&#xa8;" 
d="M223 513q-17 0 -27 10.5t-10 27.5q0 23 14.5 38.5t33.5 15.5q17 0 27 -11.5t10 -26.5q0 -25 -14.5 -39.5t-33.5 -14.5zM378 513q-17 0 -27 10.5t-10 27.5q0 23 14.5 38.5t33.5 15.5q17 0 27 -11.5t10 -26.5q0 -25 -14.5 -39.5t-33.5 -14.5z" />
    <glyph glyph-name="copyright" unicode="&#xa9;" horiz-adv-x="825" 
d="M356 334q0 -79 41 -127t108 -48q81 0 123 95q12 10 20 -3q-2 -20 -10 -50.5t-17 -45.5q-73 -23 -122 -23q-104 0 -161 58t-57 138q0 89 64 145t160 56q24 0 50.5 -3.5t46.5 -8t24 -4.5q3 -17 6.5 -48.5t5.5 -44.5q-3 -5 -10 -6t-11 3q-27 85 -118 85q-68 0 -105.5 -47.5
t-37.5 -120.5zM471 -16q-149 0 -249.5 100.5t-100.5 245.5t100.5 245.5t249.5 100.5t249.5 -100.5t100.5 -245.5t-100.5 -245.5t-249.5 -100.5zM178 331q0 -130 84.5 -219t208.5 -89t208.5 89t84.5 219q0 129 -84.5 217.5t-208.5 88.5t-208.5 -88.5t-84.5 -217.5z" />
    <glyph glyph-name="ordfeminine" unicode="&#xaa;" horiz-adv-x="364" 
d="M348 511l22 46q10 4 24 0t19 -11q-62 -135 -104 -248q-6 -17 6 -17q23 0 78 48q12 0 12 -12q-24 -30 -62 -53.5t-73 -23.5q-11 0 -16.5 6.5t-5.5 12.5q0 7 8 28l22 57l-1 -1l-2 2q-39 -42 -88 -73.5t-78 -31.5q-19 0 -29.5 12t-10.5 28t17 55.5t51 82.5q51 65 102 92
q40 20 75 20q23 0 34 -19zM291 503q-24 0 -55 -27q-37 -30 -66.5 -87.5t-29.5 -95.5q0 -13 11 -13q19 0 71 46q33 28 64.5 74t40.5 78q-10 25 -36 25z" />
    <glyph glyph-name="guillemotleft" unicode="&#xab;" horiz-adv-x="400" 
d="M146 194l40 -145q-2 -6 -8 -9t-11 -1q-52 94 -88 151q-10 15 6 31q26 26 77 76t75 74q12 2 14 -13l-100 -140q-9 -11 -5 -24zM286 194l40 -145q-2 -6 -8 -9t-11 -1q-52 94 -88 151q-10 15 6 31q26 26 77 76t75 74q12 2 14 -13l-100 -140q-9 -11 -5 -24z" />
    <glyph glyph-name="logicalnot" unicode="&#xac;" horiz-adv-x="560" 
d="M464 50v206h-375v49h434v-255h-59z" />
    <glyph glyph-name="registered" unicode="&#xae;" horiz-adv-x="310" 
d="M238 522v57q0 19 -11 20h-4q-2 3 -1.5 6.5t2.5 4.5q42 2 56 2q50 0 50 -34q0 -19 -18 -28q-3 -1 0 -7q16 -34 25 -40q7 -5 9 -6q2 0 2 -3t-2 -4q-5 -1 -14 -1q-24 0 -37 21q-1 2 -14 25q-3 6 -9 6t-6 -5v-14q0 -12 2 -16t12 -5l3 -1q1 -1 1 -5t-1 -5q-5 0 -14.5 0.5
t-15.5 0.5t-15.5 -0.5t-13.5 -0.5q-2 1 -2.5 5t1.5 5l4 1q8 2 9.5 5.5t1.5 15.5zM266 590v-30q0 -5 2 -6t10 -1q20 0 20 20q0 25 -19 25q-13 0 -13 -8zM280 677q54 0 92 -37t38 -90t-38 -90t-92 -37t-92 37t-38 90t38 90t92 37zM280 655q-41 0 -70 -30.5t-29 -74.5
q0 -43 29 -74t70 -31t70 31t29 74q0 44 -29 74.5t-70 30.5z" />
    <glyph glyph-name="macron" unicode="&#xaf;" 
d="M409 514h-185q-8 9 -8 23t8 23h185q7 -9 7 -23t-7 -23z" />
    <glyph glyph-name="macron" unicode="&#x2c9;" 
d="M409 514h-185q-8 9 -8 23t8 23h185q7 -9 7 -23t-7 -23z" />
    <glyph glyph-name="degree" unicode="&#xb0;" horiz-adv-x="400" 
d="M301 640q56 0 95 -36t39 -93q0 -59 -38.5 -94t-95.5 -35t-95.5 35t-38.5 94q0 57 39 93t95 36zM301 605q-34 0 -56 -26t-22 -68t22 -68t56 -26t56 26t22 68t-22 68t-56 26z" />
    <glyph glyph-name="plusminus" unicode="&#xb1;" horiz-adv-x="560" 
d="M503 49v-49h-385v49h385zM341 84h-59v165h-164v49h164v158h59v-158h162v-49h-162v-165z" />
    <glyph glyph-name="twosuperior" unicode="&#xb2;" 
d="M210 363h62q38 0 57 6.5t34 28.5q4 3 12 2t10 -5q-17 -27 -43 -82q-32 2 -102 2h-86q-51 0 -75 -2q-9 6 -3 15q51 31 125 90q2 1 22 17.5t25.5 21t24 20.5t25.5 24t20 24t18 27.5t10 26.5t5 29q0 27 -18 44.5t-47 17.5q-47 0 -94 -58q-5 -2 -10 1t-6 9q21 39 58.5 62.5
t79.5 23.5q49 0 79 -25.5t30 -68.5q0 -40 -28.5 -73t-86.5 -76l-50 -37q-66 -50 -66 -60q0 -5 18 -5z" />
    <glyph glyph-name="threesuperior" unicode="&#xb3;" 
d="M331 708q39 0 63.5 -19.5t24.5 -49.5q0 -52 -97 -84q-8 -7 6 -10q32 -8 55.5 -30.5t23.5 -57.5q0 -55 -41 -98t-97 -63t-110 -20q-34 0 -53.5 10.5t-18.5 30.5q0 12 9 21t22 9q20 0 34 -27q9 -18 30 -18q61 0 106 44t45 103q0 31 -19.5 50t-50.5 19q-34 0 -71 -29
q-20 9 -8 31q3 1 23 8t35.5 13t37.5 17t37 21.5t26 25t11 29.5q0 20 -14 30.5t-34 10.5q-25 0 -51.5 -17t-45.5 -42q-15 -2 -15 13q21 34 58 56.5t79 22.5z" />
    <glyph glyph-name="acute" unicode="&#xb4;" 
d="M431 569l-126 -111q-6 0 -11 4t-5 9l94 143q13 21 24 20q13 0 28 -15t13 -26q0 -10 -17 -24z" />
    <glyph glyph-name="mu" unicode="&#xb5;" horiz-adv-x="496" 
d="M261 378l-112 -292q-13 -34 7 -34q23 0 106 83q26 26 49 54.5t44 63t32 53t31 56.5t21 40q15 3 30.5 -3t18.5 -15q-2 -5 -23.5 -61t-48 -126t-45.5 -123q-10 -25 4 -25q13 0 44.5 26t53.5 52q17 4 18 -14q-21 -39 -79 -83t-96 -44q-12 0 -20.5 11.5t-4.5 23.5l63 171
l-2 1q-59 -72 -131.5 -139.5t-100.5 -67.5q-10 0 -16 5q-6 1 -10 -4.5t-8 -17.5l-15 -42q-14 -38 -14 -91q0 -43 -7 -64q-6 -17 -26.5 -29t-45.5 -12q-26 0 -15 31l207 552q11 29 0 29q-13 0 -43 -23t-52 -46q-7 -1 -12.5 3.5t-4.5 11.5q21 33 80.5 76t92.5 43q11 0 22.5 -9
t7.5 -21z" />
    <glyph glyph-name="mu" unicode="&#x3bc;" horiz-adv-x="496" 
d="M261 378l-112 -292q-13 -34 7 -34q23 0 106 83q26 26 49 54.5t44 63t32 53t31 56.5t21 40q15 3 30.5 -3t18.5 -15q-2 -5 -23.5 -61t-48 -126t-45.5 -123q-10 -25 4 -25q13 0 44.5 26t53.5 52q17 4 18 -14q-21 -39 -79 -83t-96 -44q-12 0 -20.5 11.5t-4.5 23.5l63 171
l-2 1q-59 -72 -131.5 -139.5t-100.5 -67.5q-10 0 -16 5q-6 1 -10 -4.5t-8 -17.5l-15 -42q-14 -38 -14 -91q0 -43 -7 -64q-6 -17 -26.5 -29t-45.5 -12q-26 0 -15 31l207 552q11 29 0 29q-13 0 -43 -23t-52 -46q-7 -1 -12.5 3.5t-4.5 11.5q21 33 80.5 76t92.5 43q11 0 22.5 -9
t7.5 -21z" />
    <glyph glyph-name="paragraph" unicode="&#xb6;" horiz-adv-x="500" 
d="M460 445l-139 -468q-9 -32 -16 -52t-21.5 -49.5t-30 -47t-40 -30.5t-53.5 -13q-37 0 -60 18t-23 48q0 21 11.5 35t25.5 19q16 0 29.5 -9.5t12.5 -20.5q-16 -14 -16 -32q0 -13 8.5 -20.5t20.5 -7.5q57 0 100 143l44 145q5 21 2 28.5t-16 8.5q-25 2 -54 12.5t-57 30
t-46.5 52t-18.5 72.5q0 51 24 96t65 74q91 63 242 63q99 0 122 -5q5 -3 4 -11.5t-6 -10.5l-42 -7q-42 -7 -51.5 -15t-20.5 -46z" />
    <glyph glyph-name="periodcentered" unicode="&#xb7;" horiz-adv-x="250" 
d="M152 261q21 0 32.5 -13.5t11.5 -31.5q0 -29 -17 -46.5t-40 -17.5q-21 0 -32.5 12.5t-11.5 34.5q0 26 17.5 44t39.5 18z" />
    <glyph glyph-name="periodcentered" unicode="&#x2219;" horiz-adv-x="250" 
d="M152 261q21 0 32.5 -13.5t11.5 -31.5q0 -29 -17 -46.5t-40 -17.5q-21 0 -32.5 12.5t-11.5 34.5q0 26 17.5 44t39.5 18z" />
    <glyph glyph-name="cedilla" unicode="&#xb8;" 
d="M168 0h33l-36 -49q-11 -13 5 -26q37 -30 37 -65q0 -31 -32 -54t-70 -23q-50 0 -50 32q0 8 7 16t18 8q10 0 24 -14q15 -15 21 -15q10 0 19 7.5t9 23.5q0 38 -53 62v4z" />
    <glyph glyph-name="onesuperior" unicode="&#xb9;" 
d="M214 400l58 195q9 32 8 38q1 6 -4.5 9t-16.5 5l-30 5q-8 10 2 17q79 12 126 35q9 2 11 -6q-19 -53 -24 -71l-67 -228q-12 -38 -9 -50t29 -15l19 -2q4 -3 3 -10t-6 -9q-52 2 -95 2q-47 0 -83 -2q-3 2 -3 9.5t3 9.5l18 2q30 4 39.5 15t21.5 51z" />
    <glyph glyph-name="ordmasculine" unicode="&#xba;" horiz-adv-x="328" 
d="M284 540q44 0 65.5 -24.5t19.5 -65.5q-2 -34 -22.5 -79t-59.5 -82q-51 -49 -114 -49q-39 0 -63.5 25t-21.5 69q2 38 24 82.5t56 74.5q56 49 116 49zM145 307q-1 -17 8.5 -29t25.5 -12q34 0 63 39q30 40 48 87t20 77q2 45 -34 45q-29 0 -61 -39q-27 -33 -48 -86t-22 -82z
" />
    <glyph glyph-name="guillemotright" unicode="&#xbb;" horiz-adv-x="400" 
d="M51 52l100 140q9 11 5 24l-40 145q2 6 8 9t11 1q52 -94 88 -151q10 -15 -6 -31q-26 -26 -77 -76t-75 -74q-12 -2 -14 13zM191 52l100 140q9 11 5 24l-40 145q2 6 8 9t11 1q52 -94 88 -151q10 -15 -6 -31q-26 -26 -77 -76t-75 -74q-12 -2 -14 13z" />
    <glyph glyph-name="onequarter" unicode="&#xbc;" horiz-adv-x="820" 
d="M517 143h93q13 0 17 2.5t7 13.5l33 111q2 9 9 12q22 11 43 11q9 0 10 -5t-3 -14l-35 -117q-3 -9 -1.5 -11.5t11.5 -2.5h38q5 -4 2.5 -13.5t-9.5 -13.5h-34q-14 0 -17.5 -2.5t-5.5 -11.5l-10 -35q-8 -24 -6 -34.5t24 -13.5l24 -4q4 -3 2.5 -9t-5.5 -8q-68 2 -90 2
q-34 0 -84 -2q-4 2 -3.5 8t4.5 9l24 4q24 4 34.5 12.5t17.5 35.5l9 33q4 10 1.5 13t-15.5 3h-156q-9 0 -6 10q3 9 16 21l296 273q12 12 22 12q20 0 20 -5q0 -2 -4 -6l-286 -263q-9 -10 -6 -12.5t19 -2.5zM190 332l58 195q9 32 8 38q1 6 -4.5 9t-16.5 5l-30 5q-8 10 2 17
q79 12 126 35q9 2 11 -6q-19 -53 -24 -71l-67 -228q-12 -38 -9 -50t29 -15l19 -2q4 -3 3 -10t-6 -9q-52 2 -95 2q-47 0 -83 -2q-3 2 -3 9.5t3 9.5l18 2q30 4 39.5 15t21.5 51zM158 -14q274 325 557 668q10 0 19.5 -7t9.5 -18q-251 -297 -559 -669q-27 0 -27 26z" />
    <glyph glyph-name="onehalf" unicode="&#xbd;" horiz-adv-x="820" 
d="M174 332l58 195q9 32 8 38q1 6 -4.5 9t-16.5 5l-30 5q-8 10 2 17q79 12 126 35q9 2 11 -6q-19 -53 -24 -71l-67 -228q-12 -38 -9 -50t29 -15l19 -2q4 -3 3 -10t-6 -9q-52 2 -95 2q-47 0 -83 -2q-3 2 -3 9.5t3 9.5l18 2q30 4 39.5 15t21.5 51zM138 -14q274 325 557 668
q10 0 19.5 -7t9.5 -18q-251 -297 -559 -669q-27 0 -27 26zM582 48h62q38 0 57 6.5t34 28.5q4 3 12 2t10 -5q-17 -27 -43 -82q-32 2 -102 2h-86q-51 0 -75 -2q-9 6 -3 15q51 31 125 90q2 1 22 17.5t25.5 21t24 20.5t25.5 24t20 24t18 27.5t10 26.5t5 29q0 27 -18 44.5
t-47 17.5q-47 0 -94 -58q-5 -2 -10 1t-6 9q21 39 58.5 62.5t79.5 23.5q49 0 79 -25.5t30 -68.5q0 -40 -28.5 -73t-86.5 -76l-50 -37q-66 -50 -66 -60q0 -5 18 -5z" />
    <glyph glyph-name="threequarters" unicode="&#xbe;" horiz-adv-x="820" 
d="M192 -14q274 325 557 668q10 0 19.5 -7t9.5 -18q-251 -297 -559 -669q-27 0 -27 26zM322 640q39 0 63.5 -19.5t24.5 -49.5q0 -52 -97 -84q-9 -4 2 -8l4 -2q32 -8 55.5 -30.5t23.5 -57.5q0 -55 -41 -98t-97 -63t-110 -20q-72 0 -72 41q0 12 9 21t22 9q20 0 34 -27
q9 -18 30 -18q61 0 106 44t45 103q0 31 -19.5 50t-50.5 19q-34 0 -71 -29q-20 9 -8 31q3 1 23 8t35.5 13t37.5 17t37 21.5t26 25t11 29.5q0 20 -14 30.5t-34 10.5q-25 0 -51.5 -17t-45.5 -42q-15 -2 -15 13q21 34 58 56.5t79 22.5zM541 143h93q13 0 17 2.5t7 13.5l33 111
q2 9 9 12q22 11 43 11q9 0 10 -5t-3 -14l-35 -117q-3 -9 -1.5 -11.5t11.5 -2.5h38q5 -4 2.5 -13.5t-9.5 -13.5h-34q-14 0 -17.5 -2.5t-5.5 -11.5l-10 -35q-8 -24 -6 -34.5t24 -13.5l24 -4q4 -3 2.5 -9t-5.5 -8q-68 2 -90 2q-34 0 -84 -2q-4 2 -3.5 8t4.5 9l24 4
q24 4 34.5 12.5t17.5 35.5l9 33q4 10 1.5 13t-15.5 3h-156q-9 0 -6 10q3 9 16 21l296 273q12 12 22 12q20 0 20 -5q0 -2 -4 -6l-286 -263q-9 -10 -6 -12.5t19 -2.5z" />
    <glyph glyph-name="questiondown" unicode="&#xbf;" horiz-adv-x="300" 
d="M153 -10l-62 -35q-41 -23 -61 -43.5t-20 -47.5q0 -32 21 -51.5t49 -19.5q23 0 45 11l22 11q7 0 13 -7.5t6 -20.5q0 -21 -20.5 -37t-51.5 -16q-44 0 -80.5 44t-36.5 98q0 89 103 146l67 37q46 26 46 65q0 23 -9 48q6 11 16 5q44 -57 31 -106q-12 -45 -78 -81zM230 394
q21 0 32.5 -13.5t11.5 -31.5q0 -29 -17 -46.5t-40 -17.5q-21 0 -32.5 12.5t-11.5 34.5q0 26 17.5 44t39.5 18z" />
    <glyph glyph-name="Agrave" unicode="&#xc0;" horiz-adv-x="596" 
d="M552 25l26 -3q4 -5 2.5 -13.5t-6.5 -11.5q-46 3 -113 3q-70 0 -115 -3q-7 3 -7.5 12.5t6.5 12.5l31 3q30 3 39 16q8 13 11 62l9 134q2 17 -1.5 21.5t-19.5 4.5h-144q-23 0 -30 -4.5t-21 -26.5l-73 -114q-45 -71 -45 -75q0 -11 23 -15l37 -6q6 -5 5 -13.5t-7 -11.5
q-47 3 -102 3q-57 0 -111 -3q-10 13 2 25l27 3q40 4 72 42q36 44 165 225l176 248q53 74 60 103q15 2 32.5 10.5t29.5 15.5l11 7q12 0 12 -8q0 -7 -1.5 -24.5t-4 -51.5t-4.5 -71l-20 -378q-2 -33 -2.5 -47.5t1 -30.5t3 -20.5t9.5 -10t15 -6.5t23 -3zM293 303h126
q13 0 16 3.5t4 16.5l16 219q2 26 -2 26q-5 0 -38 -49l-139 -201q-6 -9 -2.5 -12t19.5 -3zM540 706l-144 61q-16 7 -21 15q-6 12 6 35q10 19 23 19q10 0 23 -12l122 -98q2 -6 -1 -12t-8 -8z" />
    <glyph glyph-name="Aacute" unicode="&#xc1;" horiz-adv-x="596" 
d="M552 25l26 -3q4 -5 2.5 -13.5t-6.5 -11.5q-46 3 -113 3q-70 0 -115 -3q-7 3 -7.5 12.5t6.5 12.5l31 3q30 3 39 16q8 13 11 62l9 134q2 17 -1.5 21.5t-19.5 4.5h-144q-23 0 -30 -4.5t-21 -26.5l-73 -114q-45 -71 -45 -75q0 -11 23 -15l37 -6q6 -5 5 -13.5t-7 -11.5
q-47 3 -102 3q-57 0 -111 -3q-10 13 2 25l27 3q40 4 72 42q36 44 165 225l176 248q53 74 60 103q15 2 32.5 10.5t29.5 15.5l11 7q12 0 12 -8q0 -7 -1.5 -24.5t-4 -51.5t-4.5 -71l-20 -378q-2 -33 -2.5 -47.5t1 -30.5t3 -20.5t9.5 -10t15 -6.5t23 -3zM293 303h126
q13 0 16 3.5t4 16.5l16 219q2 26 -2 26q-5 0 -38 -49l-139 -201q-6 -9 -2.5 -12t19.5 -3zM616 767l-144 -61q-5 2 -8 8t-1 12l122 98q13 12 23 12q13 0 23 -19q12 -23 6 -35q-5 -8 -21 -15z" />
    <glyph glyph-name="Acircumflex" unicode="&#xc2;" horiz-adv-x="596" 
d="M552 25l26 -3q4 -5 2.5 -13.5t-6.5 -11.5q-46 3 -113 3q-70 0 -115 -3q-7 3 -7.5 12.5t6.5 12.5l31 3q30 3 39 16q8 13 11 62l9 134q2 17 -1.5 21.5t-19.5 4.5h-144q-23 0 -30 -4.5t-21 -26.5l-73 -114q-45 -71 -45 -75q0 -11 23 -15l37 -6q6 -5 5 -13.5t-7 -11.5
q-47 3 -102 3q-57 0 -111 -3q-10 13 2 25l27 3q40 4 72 42q36 44 165 225l176 248q53 74 60 103q15 2 32.5 10.5t29.5 15.5l11 7q12 0 12 -8q0 -7 -1.5 -24.5t-4 -51.5t-4.5 -71l-20 -378q-2 -33 -2.5 -47.5t1 -30.5t3 -20.5t9.5 -10t15 -6.5t23 -3zM293 303h126
q13 0 16 3.5t4 16.5l16 219q2 26 -2 26q-5 0 -38 -49l-139 -201q-6 -9 -2.5 -12t19.5 -3zM558 827l88 -109q0 -6 -5.5 -11.5t-10.5 -5.5l-87 62q-8 8 -15 8q-6 0 -16 -6l-125 -64q-5 0 -8 5.5t-1 11.5l142 109q12 9 21 9q12 0 17 -9z" />
    <glyph glyph-name="Atilde" unicode="&#xc3;" horiz-adv-x="596" 
d="M552 25l26 -3q4 -5 2.5 -13.5t-6.5 -11.5q-46 3 -113 3q-70 0 -115 -3q-7 3 -7.5 12.5t6.5 12.5l31 3q30 3 39 16q8 13 11 62l9 134q2 17 -1.5 21.5t-19.5 4.5h-144q-23 0 -30 -4.5t-21 -26.5l-73 -114q-45 -71 -45 -75q0 -11 23 -15l37 -6q6 -5 5 -13.5t-7 -11.5
q-47 3 -102 3q-57 0 -111 -3q-10 13 2 25l27 3q40 4 72 42q36 44 165 225l176 248q53 74 60 103q15 2 32.5 10.5t29.5 15.5l11 7q12 0 12 -8q0 -7 -1.5 -24.5t-4 -51.5t-4.5 -71l-20 -378q-2 -33 -2.5 -47.5t1 -30.5t3 -20.5t9.5 -10t15 -6.5t23 -3zM293 303h126
q13 0 16 3.5t4 16.5l16 219q2 26 -2 26q-5 0 -38 -49l-139 -201q-6 -9 -2.5 -12t19.5 -3zM489 790h50q28 0 40.5 6.5t29.5 30.5q11 6 16 -4q-11 -43 -35 -67q-16 -15 -45 -15h-49q-29 0 -45.5 -11t-30.5 -37q-10 -6 -15 4q3 15 13.5 40t20.5 34q17 19 50 19z" />
    <glyph glyph-name="Adieresis" unicode="&#xc4;" horiz-adv-x="596" 
d="M552 25l26 -3q4 -5 2.5 -13.5t-6.5 -11.5q-46 3 -113 3q-70 0 -115 -3q-7 3 -7.5 12.5t6.5 12.5l31 3q30 3 39 16q8 13 11 62l9 134q2 17 -1.5 21.5t-19.5 4.5h-144q-23 0 -30 -4.5t-21 -26.5l-73 -114q-45 -71 -45 -75q0 -11 23 -15l37 -6q6 -5 5 -13.5t-7 -11.5
q-47 3 -102 3q-57 0 -111 -3q-10 13 2 25l27 3q40 4 72 42q36 44 165 225l176 248q53 74 60 103q15 2 32.5 10.5t29.5 15.5l11 7q12 0 12 -8q0 -7 -1.5 -24.5t-4 -51.5t-4.5 -71l-20 -378q-2 -33 -2.5 -47.5t1 -30.5t3 -20.5t9.5 -10t15 -6.5t23 -3zM293 303h126
q13 0 16 3.5t4 16.5l16 219q2 26 -2 26q-5 0 -38 -49l-139 -201q-6 -9 -2.5 -12t19.5 -3zM422 705q-17 0 -26.5 10t-9.5 27q0 23 14 38t33 15q17 0 27 -11.5t10 -26.5q0 -24 -14.5 -38t-33.5 -14zM596 705q-17 0 -26.5 10t-9.5 27q0 23 14 38t33 15q17 0 27 -11.5t10 -26.5
q0 -24 -14 -38t-34 -14z" />
    <glyph glyph-name="Aring" unicode="&#xc5;" horiz-adv-x="596" 
d="M552 25l26 -3q4 -5 2.5 -13.5t-6.5 -11.5q-46 3 -113 3q-70 0 -115 -3q-7 3 -7.5 12.5t6.5 12.5l31 3q30 3 39 16q8 13 11 62l9 134q2 17 -1.5 21.5t-19.5 4.5h-144q-23 0 -30 -4.5t-21 -26.5l-73 -114q-45 -71 -45 -75q0 -11 23 -15l37 -6q6 -5 5 -13.5t-7 -11.5
q-47 3 -102 3q-57 0 -111 -3q-10 13 2 25l27 3q40 4 72 42q36 44 165 225l176 248q53 74 60 103q15 2 32.5 10.5t29.5 15.5l11 7q12 0 12 -8q0 -7 -1.5 -24.5t-4 -51.5t-4.5 -71l-20 -378q-2 -33 -2.5 -47.5t1 -30.5t3 -20.5t9.5 -10t15 -6.5t23 -3zM293 303h126
q13 0 16 3.5t4 16.5l16 219q2 26 -2 26q-5 0 -38 -49l-139 -201q-6 -9 -2.5 -12t19.5 -3zM508 868q36 0 60.5 -24t24.5 -57t-24 -57t-61 -24t-61 24t-24 57t24.5 57t60.5 24zM463 787q0 -23 13 -38t32 -15q20 0 32.5 15t12.5 38t-13 37.5t-32 14.5t-32 -15t-13 -37z" />
    <glyph glyph-name="AE" unicode="&#xc6;" horiz-adv-x="842" 
d="M537 660h251q111 0 141 3q-12 -30 -41 -133q-3 -6 -13 -5.5t-12 6.5q7 38 1 59.5t-36 29.5q-34 9 -106 9h-59q-20 0 -26 -5t-13 -29l-63 -205q-7 -21 -5 -25t23 -4h50q72 0 96.5 8.5t41.5 40.5l16 30q3 5 13.5 4.5t11.5 -6.5q-19 -45 -34 -97q-14 -45 -26 -97
q-5 -6 -13.5 -5.5t-11.5 6.5v28q0 37 -19.5 45t-83.5 8h-50q-21 0 -26.5 -4t-12.5 -25l-42 -135q-15 -50 -18.5 -68.5t1.5 -41.5q10 -21 111 -21q89 0 128.5 17t84.5 87q16 10 23 -6q-8 -27 -29.5 -70.5t-39.5 -61.5q-17 1 -54.5 1.5t-56.5 0.5q-20 0 -59.5 0.5t-58.5 0.5
h-118q-53 0 -119 -3q-6 4 -6 12.5t5 12.5l35 6q37 6 52 24t38 92l49 158q5 16 0 20t-27 4h-103q-17 0 -26 -5t-26 -26q-115 -139 -182 -226q-27 -34 0 -38l43 -7q5 -5 4 -14.5t-6 -12.5q-50 3 -108 3q-44 0 -94 -3q-5 5 -5 14t5 13l22 3q27 4 49 20t61 60q249 286 398 472
q24 30 24 38.5t-22 11.5l-57 9q-5 3 -3.5 12.5t8.5 12.5q62 -3 125 -3zM358 361h78q26 0 35 5t15 25l61 200q9 30 7 38h-2q-4 -2 -8.5 -7.5t-11 -13.5t-9.5 -11q-114 -138 -178 -218q-11 -12 -9 -15t22 -3z" />
    <glyph glyph-name="Ccedilla" unicode="&#xc7;" horiz-adv-x="646" 
d="M283 -83l52 70q-100 11 -166.5 74.5t-66.5 191.5q0 84 39.5 163.5t103.5 137.5t151.5 90t184.5 32q84 0 164 -32q-30 -74 -45 -134q-3 -6 -14 -5.5t-13 6.5q15 68 -9.5 101t-99.5 33q-142 0 -256 -112q-45 -45 -81.5 -127t-36.5 -172q0 -107 49.5 -163t144.5 -56
q130 0 215 140q19 8 24 -7q-20 -61 -65 -141q-13 0 -79 -11q-70 -12 -97 -12q-11 0 -15 1l-19 -24q-12 -16 1 -26q39 -32 39 -61q0 -34 -31 -57.5t-69 -23.5q-50 0 -50 32q0 8 7 16t18 8q10 0 24 -14q15 -15 21 -15q10 0 19 7.5t9 23.5q0 38 -53 62v4z" />
    <glyph glyph-name="Egrave" unicode="&#xc8;" horiz-adv-x="566" 
d="M132 144l116 372q23 70 20 90t-42 28l-20 4q-5 6 -3.5 14t9.5 11q36 -2 53 -2q18 -1 58 -1h189q111 0 141 3q-12 -30 -41 -133q-3 -6 -13 -5.5t-12 6.5q7 38 1 59.5t-36 29.5q-34 9 -106 9h-59q-19 0 -25.5 -5.5t-13.5 -28.5l-64 -205q-7 -21 -5 -25t23 -4h50
q72 0 96.5 8.5t41.5 40.5l16 30q3 5 13.5 4.5t11.5 -6.5q-19 -45 -34 -97q-14 -45 -26 -97q-5 -6 -13.5 -5.5t-11.5 6.5v28q0 37 -19.5 45t-83.5 8h-50q-21 0 -26.5 -4t-12.5 -25l-41 -135q-15 -50 -18.5 -68.5t1.5 -41.5q10 -21 111 -21q89 0 128.5 17t84.5 87q16 10 23 -6
q-8 -27 -29.5 -70.5t-39.5 -61.5q-17 1 -54.5 1.5t-56.5 0.5q-20 0 -59.5 0.5t-58.5 0.5h-118q-53 0 -119 -3q-6 4 -6 12.5t5 12.5l35 3q36 3 51 23t39 96zM485 706l-144 61q-17 7 -21 15q-6 12 6 35q10 19 23 19q9 0 23 -12l122 -98q2 -6 -1 -12t-8 -8z" />
    <glyph glyph-name="Eacute" unicode="&#xc9;" horiz-adv-x="566" 
d="M132 144l116 372q23 70 20 90t-42 28l-20 4q-5 6 -3.5 14t9.5 11q36 -2 53 -2q18 -1 58 -1h189q111 0 141 3q-12 -30 -41 -133q-3 -6 -13 -5.5t-12 6.5q7 38 1 59.5t-36 29.5q-34 9 -106 9h-59q-19 0 -25.5 -5.5t-13.5 -28.5l-64 -205q-7 -21 -5 -25t23 -4h50
q72 0 96.5 8.5t41.5 40.5l16 30q3 5 13.5 4.5t11.5 -6.5q-19 -45 -34 -97q-14 -45 -26 -97q-5 -6 -13.5 -5.5t-11.5 6.5v28q0 37 -19.5 45t-83.5 8h-50q-21 0 -26.5 -4t-12.5 -25l-41 -135q-15 -50 -18.5 -68.5t1.5 -41.5q10 -21 111 -21q89 0 128.5 17t84.5 87q16 10 23 -6
q-8 -27 -29.5 -70.5t-39.5 -61.5q-17 1 -54.5 1.5t-56.5 0.5q-20 0 -59.5 0.5t-58.5 0.5h-118q-53 0 -119 -3q-6 4 -6 12.5t5 12.5l35 3q36 3 51 23t39 96zM566 767l-144 -61q-5 2 -8 8t-1 12l122 98q13 12 23 12q13 0 23 -19q12 -23 6 -35q-5 -8 -21 -15z" />
    <glyph glyph-name="Ecircumflex" unicode="&#xca;" horiz-adv-x="566" 
d="M132 144l116 372q23 70 20 90t-42 28l-20 4q-5 6 -3.5 14t9.5 11q36 -2 53 -2q18 -1 58 -1h189q111 0 141 3q-12 -30 -41 -133q-3 -6 -13 -5.5t-12 6.5q7 38 1 59.5t-36 29.5q-34 9 -106 9h-59q-19 0 -25.5 -5.5t-13.5 -28.5l-64 -205q-7 -21 -5 -25t23 -4h50
q72 0 96.5 8.5t41.5 40.5l16 30q3 5 13.5 4.5t11.5 -6.5q-19 -45 -34 -97q-14 -45 -26 -97q-5 -6 -13.5 -5.5t-11.5 6.5v28q0 37 -19.5 45t-83.5 8h-50q-21 0 -26.5 -4t-12.5 -25l-41 -135q-15 -50 -18.5 -68.5t1.5 -41.5q10 -21 111 -21q89 0 128.5 17t84.5 87q16 10 23 -6
q-8 -27 -29.5 -70.5t-39.5 -61.5q-17 1 -54.5 1.5t-56.5 0.5q-20 0 -59.5 0.5t-58.5 0.5h-118q-53 0 -119 -3q-6 4 -6 12.5t5 12.5l35 3q36 3 51 23t39 96zM513 827l88 -109q0 -6 -5.5 -11.5t-10.5 -5.5l-87 62q-8 8 -15 8q-5 0 -16 -6l-125 -64q-5 0 -8 5.5t-1 11.5
l142 109q12 9 21 9q12 0 17 -9z" />
    <glyph glyph-name="Edieresis" unicode="&#xcb;" horiz-adv-x="566" 
d="M132 144l116 372q23 70 20 90t-42 28l-20 4q-5 6 -3.5 14t9.5 11q36 -2 53 -2q18 -1 58 -1h189q111 0 141 3q-12 -30 -41 -133q-3 -6 -13 -5.5t-12 6.5q7 38 1 59.5t-36 29.5q-34 9 -106 9h-59q-19 0 -25.5 -5.5t-13.5 -28.5l-64 -205q-7 -21 -5 -25t23 -4h50
q72 0 96.5 8.5t41.5 40.5l16 30q3 5 13.5 4.5t11.5 -6.5q-19 -45 -34 -97q-14 -45 -26 -97q-5 -6 -13.5 -5.5t-11.5 6.5v28q0 37 -19.5 45t-83.5 8h-50q-21 0 -26.5 -4t-12.5 -25l-41 -135q-15 -50 -18.5 -68.5t1.5 -41.5q10 -21 111 -21q89 0 128.5 17t84.5 87q16 10 23 -6
q-8 -27 -29.5 -70.5t-39.5 -61.5q-17 1 -54.5 1.5t-56.5 0.5q-20 0 -59.5 0.5t-58.5 0.5h-118q-53 0 -119 -3q-6 4 -6 12.5t5 12.5l35 3q36 3 51 23t39 96zM387 705q-17 0 -26.5 10t-9.5 27q0 23 14 38t33 15q16 0 26.5 -11.5t10.5 -26.5q0 -24 -14.5 -38t-33.5 -14z
M561 705q-17 0 -26.5 10t-9.5 27q0 23 14 38t33 15q16 0 26.5 -11.5t10.5 -26.5q0 -24 -14 -38t-34 -14z" />
    <glyph glyph-name="Igrave" unicode="&#xcc;" horiz-adv-x="341" 
d="M133 144l117 372q13 40 17.5 57.5t2.5 32.5t-11.5 19.5t-31.5 8.5l-24 4q-5 6 -3.5 14t9.5 11q60 -3 116 -3q48 0 120 3q6 -3 6 -12t-6 -13l-27 -4q-42 -7 -55.5 -24.5t-37.5 -93.5l-117 -372q-23 -70 -20.5 -92.5t39.5 -26.5l31 -3q4 -5 2.5 -13.5t-6.5 -11.5
q-74 3 -126 3q-55 0 -115 -3q-6 4 -6 12.5t5 12.5l31 3q36 4 51 23.5t39 95.5zM373 706l-144 61q-17 7 -21 15q-6 12 6 35q10 19 23 19q9 0 23 -12l122 -98q2 -6 -1 -12t-8 -8z" />
    <glyph glyph-name="Iacute" unicode="&#xcd;" horiz-adv-x="341" 
d="M133 144l117 372q13 40 17.5 57.5t2.5 32.5t-11.5 19.5t-31.5 8.5l-24 4q-5 6 -3.5 14t9.5 11q60 -3 116 -3q48 0 120 3q6 -3 6 -12t-6 -13l-27 -4q-42 -7 -55.5 -24.5t-37.5 -93.5l-117 -372q-23 -70 -20.5 -92.5t39.5 -26.5l31 -3q4 -5 2.5 -13.5t-6.5 -11.5
q-74 3 -126 3q-55 0 -115 -3q-6 4 -6 12.5t5 12.5l31 3q36 4 51 23.5t39 95.5zM454 767l-144 -61q-5 2 -8 8t-1 12l122 98q13 12 23 12q13 0 23 -19q12 -23 6 -35q-5 -8 -21 -15z" />
    <glyph glyph-name="Icircumflex" unicode="&#xce;" horiz-adv-x="341" 
d="M133 144l117 372q13 40 17.5 57.5t2.5 32.5t-11.5 19.5t-31.5 8.5l-24 4q-5 6 -3.5 14t9.5 11q60 -3 116 -3q48 0 120 3q6 -3 6 -12t-6 -13l-27 -4q-42 -7 -55.5 -24.5t-37.5 -93.5l-117 -372q-23 -70 -20.5 -92.5t39.5 -26.5l31 -3q4 -5 2.5 -13.5t-6.5 -11.5
q-74 3 -126 3q-55 0 -115 -3q-6 4 -6 12.5t5 12.5l31 3q36 4 51 23.5t39 95.5zM392 827l88 -109q0 -6 -5.5 -11.5t-10.5 -5.5l-87 62q-8 8 -15 8q-6 0 -16 -6l-125 -64q-5 0 -8 5.5t-1 11.5l142 109q12 9 21 9q12 0 17 -9z" />
    <glyph glyph-name="Idieresis" unicode="&#xcf;" horiz-adv-x="341" 
d="M133 144l117 372q13 40 17.5 57.5t2.5 32.5t-11.5 19.5t-31.5 8.5l-24 4q-5 6 -3.5 14t9.5 11q60 -3 116 -3q48 0 120 3q6 -3 6 -12t-6 -13l-27 -4q-42 -7 -55.5 -24.5t-37.5 -93.5l-117 -372q-23 -70 -20.5 -92.5t39.5 -26.5l31 -3q4 -5 2.5 -13.5t-6.5 -11.5
q-74 3 -126 3q-55 0 -115 -3q-6 4 -6 12.5t5 12.5l31 3q36 4 51 23.5t39 95.5zM264 705q-17 0 -26.5 10t-9.5 27q0 23 14 38t33 15q17 0 27 -11.5t10 -26.5q0 -24 -14.5 -38t-33.5 -14zM438 705q-17 0 -26.5 10t-9.5 27q0 23 14 38t33 15q17 0 27 -11.5t10 -26.5
q0 -24 -14 -38t-34 -14z" />
    <glyph glyph-name="Eth" unicode="&#xd0;" horiz-adv-x="745" 
d="M90 361h110l58 188q13 47 9.5 59.5t-26.5 15.5l-40 5q-5 3 -5 11.5t5 12.5q75 10 186 10q83 0 147.5 -16.5t104 -43t64.5 -63t34.5 -73t9.5 -77.5q0 -95 -42.5 -174t-115.5 -129q-132 -90 -334 -90q-11 0 -51.5 1.5t-73.5 1.5q-58 0 -110 -3q-6 4 -6 12.5t5 12.5l26 3
q35 4 50 24t38 95l56 182h-107q-6 24 8 35zM412 326h-148l-66 -212q-14 -45 6 -63.5t85 -18.5q82 0 148.5 26.5t106.5 66t67 88.5t37 91.5t10 78.5t-3 63.5t-18.5 64.5t-42 61.5t-78 42t-122.5 17.5q-23 0 -31 -7t-16 -32l-72 -232h146q10 -23 -9 -35z" />
    <glyph glyph-name="Ntilde" unicode="&#xd1;" horiz-adv-x="739" 
d="M155 233l79 256q33 106 33 119q0 17 -26 22l-40 8q-6 5 -4.5 14t9.5 11q8 -1 23.5 -1.5t23.5 -0.5q7 0 25.5 -0.5t29.5 -0.5h62v-14q0 -23 49 -145l101 -249q41 -98 49 -113q8 0 17 28l79 251q48 152 48 185q0 15 -4.5 20.5t-20.5 8.5l-39 6q-4 7 -2 14.5t8 10.5
q53 -3 113 -3q52 0 95 3q4 -3 4.5 -11.5t-3.5 -13.5l-23 -4q-41 -7 -52 -18q-26 -26 -82 -201l-72 -224q-34 -105 -63 -206q-8 -8 -24 -6q-28 87 -93 244l-79 192q-10 24 -24.5 62t-25 63t-17.5 40q-5 0 -32 -88l-78 -260q-13 -43 -42 -166q-4 -16 2.5 -24.5t16 -11.5
t30.5 -5l23 -3q4 -5 3 -13t-6 -12q-45 3 -114 3q-58 0 -105 -3q-5 3 -6 11t4 14l25 3q31 3 49 17q23 17 76 191zM530 790h50q28 0 40.5 6.5t29.5 30.5q11 6 16 -4q-11 -43 -35 -67q-16 -15 -45 -15h-49q-29 0 -45.5 -11t-30.5 -37q-10 -6 -15 4q3 15 13.5 40t20.5 34
q17 19 50 19z" />
    <glyph glyph-name="Ograve" unicode="&#xd2;" horiz-adv-x="730" 
d="M506 676q105 0 174 -71t63 -203q-4 -85 -40.5 -169.5t-94.5 -139.5q-115 -109 -262 -109q-120 0 -183.5 78t-60.5 183q2 96 42.5 185.5t117.5 154.5q107 91 244 91zM502 645q-80 0 -150 -60q-62 -52 -112 -155t-54 -223q-3 -81 36.5 -136.5t130.5 -55.5q92 0 167 80
q64 69 100 166t39 185q4 94 -38.5 146.5t-118.5 52.5zM567 706l-144 61q-17 7 -21 15q-6 12 6 35q10 19 23 19q9 0 23 -12l122 -98q2 -6 -1 -12t-8 -8z" />
    <glyph glyph-name="Oacute" unicode="&#xd3;" horiz-adv-x="730" 
d="M506 676q105 0 174 -71t63 -203q-4 -85 -40.5 -169.5t-94.5 -139.5q-115 -109 -262 -109q-120 0 -183.5 78t-60.5 183q2 96 42.5 185.5t117.5 154.5q107 91 244 91zM502 645q-80 0 -150 -60q-62 -52 -112 -155t-54 -223q-3 -81 36.5 -136.5t130.5 -55.5q92 0 167 80
q64 69 100 166t39 185q4 94 -38.5 146.5t-118.5 52.5zM633 767l-144 -61q-5 2 -8 8t-1 12l122 98q14 12 23 12q13 0 23 -19q12 -23 6 -35q-4 -8 -21 -15z" />
    <glyph glyph-name="Ocircumflex" unicode="&#xd4;" horiz-adv-x="730" 
d="M506 676q105 0 174 -71t63 -203q-4 -85 -40.5 -169.5t-94.5 -139.5q-115 -109 -262 -109q-120 0 -183.5 78t-60.5 183q2 96 42.5 185.5t117.5 154.5q107 91 244 91zM502 645q-80 0 -150 -60q-62 -52 -112 -155t-54 -223q-3 -81 36.5 -136.5t130.5 -55.5q92 0 167 80
q64 69 100 166t39 185q4 94 -38.5 146.5t-118.5 52.5zM548 827l88 -109q0 -6 -5.5 -11.5t-10.5 -5.5l-87 62q-8 8 -15 8q-6 0 -16 -6l-125 -64q-5 0 -8 5.5t-1 11.5l142 109q12 9 21 9q12 0 17 -9z" />
    <glyph glyph-name="Otilde" unicode="&#xd5;" horiz-adv-x="730" 
d="M506 676q105 0 174 -71t63 -203q-4 -85 -40.5 -169.5t-94.5 -139.5q-115 -109 -262 -109q-120 0 -183.5 78t-60.5 183q2 96 42.5 185.5t117.5 154.5q107 91 244 91zM502 645q-80 0 -150 -60q-62 -52 -112 -155t-54 -223q-3 -81 36.5 -136.5t130.5 -55.5q92 0 167 80
q64 69 100 166t39 185q4 94 -38.5 146.5t-118.5 52.5zM497 790h50q28 0 40.5 6.5t29.5 30.5q11 6 16 -4q-11 -43 -35 -67q-16 -15 -45 -15h-49q-29 0 -45.5 -11t-30.5 -37q-10 -6 -15 4q3 15 13.5 40t20.5 34q17 19 50 19z" />
    <glyph glyph-name="Odieresis" unicode="&#xd6;" horiz-adv-x="730" 
d="M506 676q105 0 174 -71t63 -203q-4 -85 -40.5 -169.5t-94.5 -139.5q-115 -109 -262 -109q-120 0 -183.5 78t-60.5 183q2 96 42.5 185.5t117.5 154.5q107 91 244 91zM502 645q-80 0 -150 -60q-62 -52 -112 -155t-54 -223q-3 -81 36.5 -136.5t130.5 -55.5q92 0 167 80
q64 69 100 166t39 185q4 94 -38.5 146.5t-118.5 52.5zM428 705q-17 0 -26.5 10t-9.5 27q0 23 14 38t33 15q17 0 27 -11.5t10 -26.5q0 -24 -14.5 -38t-33.5 -14zM602 705q-17 0 -26.5 10t-9.5 27q0 23 14 38t33 15q17 0 27 -11.5t10 -26.5q0 -24 -14 -38t-34 -14z" />
    <glyph glyph-name="multiply" unicode="&#xd7;" horiz-adv-x="560" 
d="M496 349l-148 -150l148 -149l-37 -39l-149 150l-148 -150l-37 39l147 149l-147 147l37 39l148 -148l149 150z" />
    <glyph glyph-name="Oslash" unicode="&#xd8;" horiz-adv-x="730" 
d="M643 554l-432 -468q39 -71 137 -71q99 0 173 79q129 141 138 366q2 56 -16 94zM196 124l429 463q-44 58 -123 58q-80 0 -150 -60q-62 -52 -112 -155t-54 -225q-2 -45 10 -81zM753 674l-68 -75q64 -72 58 -197q-4 -83 -40 -167.5t-95 -141.5q-115 -109 -262 -109
q-106 0 -170 64l-85 -92q-10 1 -17.5 9.5t-7.5 18.5l86 93q-53 72 -50 168q2 96 42.5 185.5t117.5 154.5q107 91 244 91q89 0 153 -52l68 76q9 0 17 -8.5t9 -17.5z" />
    <glyph glyph-name="Ugrave" unicode="&#xd9;" horiz-adv-x="734" 
d="M159 266l78 250q16 52 19 72.5t-5.5 31t-36.5 15.5l-25 4q-5 4 -4 12.5t8 11.5q63 -3 117 -3q50 0 123 3q5 -3 5 -11.5t-6 -12.5l-28 -4q-41 -6 -54.5 -24t-37.5 -95l-72 -231q-82 -265 130 -265q167 0 247 248l46 141q30 93 40 155q8 33 2 49.5t-40 21.5l-28 4
q-5 5 -3.5 13t7.5 11q73 -3 107 -3q50 0 108 3q6 -4 6 -12t-6 -12l-23 -4q-36 -6 -49.5 -19.5t-29.5 -54.5q-10 -27 -49 -152l-46 -147q-47 -148 -117 -209q-78 -69 -189 -69q-137 0 -187 72t-7 210zM579 706l-144 61q-17 7 -21 15q-6 12 6 35q10 19 23 19q9 0 23 -12
l122 -98q2 -6 -1 -12t-8 -8z" />
    <glyph glyph-name="Uacute" unicode="&#xda;" horiz-adv-x="734" 
d="M159 266l78 250q16 52 19 72.5t-5.5 31t-36.5 15.5l-25 4q-5 4 -4 12.5t8 11.5q63 -3 117 -3q50 0 123 3q5 -3 5 -11.5t-6 -12.5l-28 -4q-41 -6 -54.5 -24t-37.5 -95l-72 -231q-82 -265 130 -265q167 0 247 248l46 141q30 93 40 155q8 33 2 49.5t-40 21.5l-28 4
q-5 5 -3.5 13t7.5 11q73 -3 107 -3q50 0 108 3q6 -4 6 -12t-6 -12l-23 -4q-36 -6 -49.5 -19.5t-29.5 -54.5q-10 -27 -49 -152l-46 -147q-47 -148 -117 -209q-78 -69 -189 -69q-137 0 -187 72t-7 210zM630 767l-144 -61q-5 2 -8 8t-1 12l122 98q13 12 23 12q13 0 23 -19
q12 -23 6 -35q-5 -8 -21 -15z" />
    <glyph glyph-name="Ucircumflex" unicode="&#xdb;" horiz-adv-x="734" 
d="M159 266l78 250q16 52 19 72.5t-5.5 31t-36.5 15.5l-25 4q-5 4 -4 12.5t8 11.5q63 -3 117 -3q50 0 123 3q5 -3 5 -11.5t-6 -12.5l-28 -4q-41 -6 -54.5 -24t-37.5 -95l-72 -231q-82 -265 130 -265q167 0 247 248l46 141q30 93 40 155q8 33 2 49.5t-40 21.5l-28 4
q-5 5 -3.5 13t7.5 11q73 -3 107 -3q50 0 108 3q6 -4 6 -12t-6 -12l-23 -4q-36 -6 -49.5 -19.5t-29.5 -54.5q-10 -27 -49 -152l-46 -147q-47 -148 -117 -209q-78 -69 -189 -69q-137 0 -187 72t-7 210zM590 827l88 -109q0 -6 -5.5 -11.5t-10.5 -5.5l-87 62q-8 8 -15 8
q-6 0 -16 -6l-125 -64q-5 0 -8 5.5t-1 11.5l142 109q12 9 21 9q12 0 17 -9z" />
    <glyph glyph-name="Udieresis" unicode="&#xdc;" horiz-adv-x="734" 
d="M159 266l78 250q16 52 19 72.5t-5.5 31t-36.5 15.5l-25 4q-5 4 -4 12.5t8 11.5q63 -3 117 -3q50 0 123 3q5 -3 5 -11.5t-6 -12.5l-28 -4q-41 -6 -54.5 -24t-37.5 -95l-72 -231q-82 -265 130 -265q167 0 247 248l46 141q30 93 40 155q8 33 2 49.5t-40 21.5l-28 4
q-5 5 -3.5 13t7.5 11q73 -3 107 -3q50 0 108 3q6 -4 6 -12t-6 -12l-23 -4q-36 -6 -49.5 -19.5t-29.5 -54.5q-10 -27 -49 -152l-46 -147q-47 -148 -117 -209q-78 -69 -189 -69q-137 0 -187 72t-7 210zM466 705q-17 0 -26.5 10t-9.5 27q0 23 14 38t33 15q17 0 27 -11.5
t10 -26.5q0 -24 -14.5 -38t-33.5 -14zM640 705q-17 0 -26.5 10t-9.5 27q0 23 14 38t33 15q17 0 27 -11.5t10 -26.5q0 -24 -14 -38t-34 -14z" />
    <glyph glyph-name="Yacute" unicode="&#xdd;" horiz-adv-x="564" 
d="M299 579l51 -235q4 -19 9.5 -19t20.5 18l123 148q96 118 96 126q0 12 -29 17l-25 4q-5 4 -4.5 12.5t6.5 12.5q59 -3 104 -3q41 0 90 3q5 -3 5 -12t-5 -13l-21 -4q-40 -8 -56 -23q-41 -37 -98 -103l-114 -134q-53 -62 -69 -87.5t-34 -82.5l-19 -60q-17 -54 -20.5 -76
t4.5 -31.5t35 -11.5l36 -3q5 -4 3.5 -13.5t-6.5 -11.5q-84 3 -134 3q-52 0 -119 -3q-6 4 -6 12.5t5 12.5l36 3q35 3 49.5 22.5t40.5 96.5l20 59q14 40 15.5 60.5t-8.5 67.5l-50 217q-11 49 -21 65.5t-36 20.5l-25 4q-4 5 -3 13.5t6 11.5q56 -3 106 -3q59 0 107 3q5 -4 5 -12
t-5 -13l-29 -4q-28 -4 -36 -15t-1 -40zM565 767l-144 -61q-5 2 -8 8t-1 12l122 98q14 12 23 12q13 0 23 -19q12 -23 6 -35q-4 -8 -21 -15z" />
    <glyph glyph-name="Thorn" unicode="&#xde;" horiz-adv-x="560" 
d="M132 144l117 372q13 40 17.5 57.5t2.5 32.5t-11.5 19.5t-31.5 8.5l-24 4q-12 17 6 25q60 -3 116 -3q62 0 120 3q5 -3 5 -12t-5 -13l-22 -4q-45 -8 -59.5 -25.5t-36.5 -90.5h36q118 0 171 -44q49 -40 49 -107q0 -53 -28 -93.5t-71 -61.5t-88.5 -30.5t-86.5 -6.5q-6 2 -7 9
t4 11q43 8 75 19q49 18 83 60t34 96q0 117 -131 117q-35 0 -46 -6t-17 -26l-96 -311q-23 -70 -20.5 -93.5t39.5 -25.5l45 -3q5 -5 3.5 -13.5t-6.5 -11.5q-96 3 -141 3q-56 0 -113 -3q-6 4 -6 12.5t6 12.5l29 3q36 4 50.5 23.5t38.5 95.5z" />
    <glyph glyph-name="germandbls" unicode="&#xdf;" horiz-adv-x="465" 
d="M514 715q43 0 75.5 -27t32.5 -64q0 -26 -22.5 -52.5t-44.5 -41t-64.5 -38t-50.5 -28.5q-71 -43 -71 -104q0 -35 31 -112q31 -78 31 -113q0 -61 -46 -104q-18 -18 -44.5 -31.5t-40.5 -13.5q-28 0 -45.5 18.5t-17.5 36.5t8 29q9 13 20 2q35 -35 63 -35q18 0 34.5 14.5
t16.5 40.5q0 17 -37 101q-38 86 -38 131q0 53 35.5 92.5t127.5 100.5q39 26 59 55t20 45q0 30 -21.5 45.5t-57.5 15.5q-51 0 -100.5 -43.5t-84.5 -104.5t-60 -133q-37 -104 -76.5 -297.5t-59.5 -243.5q-21 -52 -64 -88.5t-94 -36.5q-35 0 -52 18t-17 36q0 26 24 40
q11 6 25 -14q10 -15 27.5 -27t34.5 -12q22 0 38 27q23 39 55 223q43 246 93 386q61 170 190 256q76 51 168 51z" />
    <glyph glyph-name="agrave" unicode="&#xe0;" horiz-adv-x="444" 
d="M374 367l28 64q13 6 28.5 0.5t20.5 -15.5q-85 -210 -134 -349q-8 -23 7 -23q27 0 103 67q14 0 14 -13q-34 -45 -81.5 -78.5t-86.5 -33.5q-15 0 -22 9t-7 18q0 10 10 39l33 90l-3 1q-52 -65 -118 -111t-102 -46q-20 0 -32 17t-12 39q0 24 22 79t66 115q68 93 132 129
q51 29 90 29q12 0 24 -6q13 -6 20 -21zM299 356q-28 0 -71 -39q-47 -42 -86 -123.5t-39 -135.5q0 -19 15 -19q26 0 97 65q101 94 134 216q-13 36 -50 36zM301 618l52 -155q0 -5 -6.5 -8.5t-11.5 -2.5l-87 124q-14 20 -14 28q0 12 17 23q18 13 31 13q12 0 19 -22z" />
    <glyph glyph-name="aacute" unicode="&#xe1;" horiz-adv-x="444" 
d="M374 367l28 64q13 6 28.5 0.5t20.5 -15.5q-85 -210 -134 -349q-8 -23 7 -23q27 0 103 67q14 0 14 -13q-34 -45 -81.5 -78.5t-86.5 -33.5q-15 0 -22 9t-7 18q0 10 10 39l33 90l-3 1q-52 -65 -118 -111t-102 -46q-20 0 -32 17t-12 39q0 24 22 79t66 115q68 93 132 129
q51 29 90 29q12 0 24 -6q13 -6 20 -21zM299 356q-28 0 -71 -39q-47 -42 -86 -123.5t-39 -135.5q0 -19 15 -19q26 0 97 65q101 94 134 216q-13 36 -50 36zM473 569l-126 -111q-6 0 -11 4t-5 9l94 143q13 21 24 20q13 0 28 -15t13 -26q0 -10 -17 -24z" />
    <glyph glyph-name="acircumflex" unicode="&#xe2;" horiz-adv-x="444" 
d="M374 367l28 64q13 6 28.5 0.5t20.5 -15.5q-85 -210 -134 -349q-8 -23 7 -23q27 0 103 67q14 0 14 -13q-34 -45 -81.5 -78.5t-86.5 -33.5q-15 0 -22 9t-7 18q0 10 10 39l33 90l-3 1q-52 -65 -118 -111t-102 -46q-20 0 -32 17t-12 39q0 24 22 79t66 115q68 93 132 129
q51 29 90 29q12 0 24 -6q13 -6 20 -21zM299 356q-28 0 -71 -39q-47 -42 -86 -123.5t-39 -135.5q0 -19 15 -19q26 0 97 65q101 94 134 216q-13 36 -50 36zM389 631l38 -162q-6 -13 -21 -10l-42 92q-6 13 -9 13q-5 0 -16 -11l-93 -96q-6 -1 -11.5 3t-5.5 11l122 164
q12 15 21 15q12 0 17 -19z" />
    <glyph glyph-name="atilde" unicode="&#xe3;" horiz-adv-x="444" 
d="M374 367l28 64q13 6 28.5 0.5t20.5 -15.5q-85 -210 -134 -349q-8 -23 7 -23q27 0 103 67q14 0 14 -13q-34 -45 -81.5 -78.5t-86.5 -33.5q-15 0 -22 9t-7 18q0 10 10 39l33 90l-3 1q-52 -65 -118 -111t-102 -46q-20 0 -32 17t-12 39q0 24 22 79t66 115q68 93 132 129
q51 29 90 29q12 0 24 -6q13 -6 20 -21zM299 356q-28 0 -71 -39q-47 -42 -86 -123.5t-39 -135.5q0 -19 15 -19q26 0 97 65q101 94 134 216q-13 36 -50 36zM327 568h50q29 0 41.5 6t28.5 29q11 6 16 -4q-11 -43 -35 -67q-16 -15 -45 -15h-49q-29 0 -45.5 -11t-30.5 -37
q-10 -6 -15 4q3 15 13.5 40t20.5 34q18 21 50 21z" />
    <glyph glyph-name="adieresis" unicode="&#xe4;" horiz-adv-x="444" 
d="M374 367l28 64q13 6 28.5 0.5t20.5 -15.5q-85 -210 -134 -349q-8 -23 7 -23q27 0 103 67q14 0 14 -13q-34 -45 -81.5 -78.5t-86.5 -33.5q-15 0 -22 9t-7 18q0 10 10 39l33 90l-3 1q-52 -65 -118 -111t-102 -46q-20 0 -32 17t-12 39q0 24 22 79t66 115q68 93 132 129
q51 29 90 29q12 0 24 -6q13 -6 20 -21zM299 356q-28 0 -71 -39q-47 -42 -86 -123.5t-39 -135.5q0 -19 15 -19q26 0 97 65q101 94 134 216q-13 36 -50 36zM265 509q-17 0 -27 10.5t-10 27.5q0 23 14.5 38.5t33.5 15.5q17 0 27 -11.5t10 -26.5q0 -25 -14.5 -39.5t-33.5 -14.5z
M420 509q-17 0 -27 10.5t-10 27.5q0 23 14.5 38.5t33.5 15.5q17 0 27 -11.5t10 -26.5q0 -25 -14.5 -39.5t-33.5 -14.5z" />
    <glyph glyph-name="aring" unicode="&#xe5;" horiz-adv-x="444" 
d="M374 367l28 64q13 6 28.5 0.5t20.5 -15.5q-85 -210 -134 -349q-8 -23 7 -23q27 0 103 67q14 0 14 -13q-34 -45 -81.5 -78.5t-86.5 -33.5q-15 0 -22 9t-7 18q0 10 10 39l33 90l-3 1q-52 -65 -118 -111t-102 -46q-20 0 -32 17t-12 39q0 24 22 79t66 115q68 93 132 129
q51 29 90 29q12 0 24 -6q13 -6 20 -21zM299 356q-28 0 -71 -39q-47 -42 -86 -123.5t-39 -135.5q0 -19 15 -19q26 0 97 65q101 94 134 216q-13 36 -50 36zM350 638q36 0 60.5 -24t24.5 -57t-24 -57t-61 -24t-61 24t-24 57t24.5 57t60.5 24zM305 557q0 -23 13 -38t32 -15
q20 0 32.5 15t12.5 38t-13 37.5t-32 14.5t-32 -15t-13 -37z" />
    <glyph glyph-name="ae" unicode="&#xe6;" horiz-adv-x="478" 
d="M409 408q37 0 55.5 -19.5t18.5 -43.5q0 -44 -44 -89.5t-146 -124.5q0 -49 18.5 -71t43.5 -22q16 0 32 10.5t23 18.5t23 28q17 5 20 -12q-31 -54 -69.5 -75.5t-64.5 -21.5q-66 0 -87 86q-41 -38 -86 -62t-71 -24q-21 0 -38 13t-17 40q0 37 28.5 89.5t60.5 89.5
q63 71 170 136q3 2 21 13.5t26 15.5t23.5 11.5t30 10.5t29.5 3zM121 40q42 0 105 63q-5 109 44 210l-2 2q-68 -39 -118.5 -118.5t-50.5 -128.5q0 -28 22 -28zM386 378q-40 0 -67.5 -69.5t-27.5 -145.5q58 53 92.5 104t34.5 79q0 32 -32 32z" />
    <glyph glyph-name="ccedilla" unicode="&#xe7;" horiz-adv-x="338" 
d="M69 -93l58 80q-3 -1 -7 -1q-32 0 -53.5 26t-21.5 80q0 55 33 129t94 129q64 58 130 58q36 0 55 -17t19 -42q0 -26 -17.5 -36.5t-31.5 -10.5q-17 0 -20 18q0 2 -1 10.5t-1.5 11.5t-2 10t-4 9.5t-6 6.5t-8.5 5.5t-12 1.5q-39 0 -84 -67q-26 -39 -45.5 -95.5t-21.5 -111.5
q-3 -65 43 -65q42 0 108 61q7 1 11 -4t2 -13q-50 -65 -119 -86l-32 -43q-11 -13 5 -26q37 -30 37 -65q0 -31 -32 -54t-70 -23q-50 0 -50 32q0 8 7 16t18 8q10 0 24 -14q15 -15 21 -15q10 0 19 7.5t9 23.5q0 38 -53 62v4z" />
    <glyph glyph-name="egrave" unicode="&#xe8;" horiz-adv-x="346" 
d="M313 408q28 0 45.5 -19t17.5 -41q0 -54 -63 -94t-180 -72q-14 -34 -14 -89q0 -25 13.5 -41t34.5 -16q25 0 46 12.5t59 45.5q7 0 11 -5t2 -12q-74 -91 -160 -91q-41 0 -61 31.5t-20 73.5q0 57 37.5 134.5t111.5 134.5q62 48 120 48zM293 377q-32 0 -76 -48
q-46 -50 -74 -117q48 15 76.5 31t57.5 43q20 19 29.5 38.5t9.5 29.5q0 23 -23 23zM271 621l51 -157q0 -6 -6.5 -9t-11.5 -2l-86 126q-14 20 -14 28q0 12 17 23q18 13 31 13q12 0 19 -22z" />
    <glyph glyph-name="eacute" unicode="&#xe9;" horiz-adv-x="346" 
d="M313 408q28 0 45.5 -19t17.5 -41q0 -54 -63 -94t-180 -72q-14 -34 -14 -89q0 -25 13.5 -41t34.5 -16q25 0 46 12.5t59 45.5q7 0 11 -5t2 -12q-74 -91 -160 -91q-41 0 -61 31.5t-20 73.5q0 57 37.5 134.5t111.5 134.5q62 48 120 48zM293 377q-32 0 -76 -48
q-46 -50 -74 -117q48 15 76.5 31t57.5 43q20 19 29.5 38.5t9.5 29.5q0 23 -23 23zM403 567l-126 -111q-6 0 -11 4t-5 9l94 143q13 21 24 20q13 0 28 -15t13 -26q0 -10 -17 -24z" />
    <glyph glyph-name="ecircumflex" unicode="&#xea;" horiz-adv-x="346" 
d="M313 408q28 0 45.5 -19t17.5 -41q0 -54 -63 -94t-180 -72q-14 -34 -14 -89q0 -25 13.5 -41t34.5 -16q25 0 46 12.5t59 45.5q7 0 11 -5t2 -12q-74 -91 -160 -91q-41 0 -61 31.5t-20 73.5q0 57 37.5 134.5t111.5 134.5q62 48 120 48zM293 377q-32 0 -76 -48
q-46 -50 -74 -117q48 15 76.5 31t57.5 43q20 19 29.5 38.5t9.5 29.5q0 23 -23 23zM352 631l38 -162q-6 -13 -21 -10l-42 92q-6 13 -9 13q-5 0 -16 -11l-93 -96q-6 -1 -11.5 3t-5.5 11l122 164q12 15 21 15q12 0 17 -19z" />
    <glyph glyph-name="edieresis" unicode="&#xeb;" horiz-adv-x="346" 
d="M313 408q28 0 45.5 -19t17.5 -41q0 -54 -63 -94t-180 -72q-14 -34 -14 -89q0 -25 13.5 -41t34.5 -16q25 0 46 12.5t59 45.5q7 0 11 -5t2 -12q-74 -91 -160 -91q-41 0 -61 31.5t-20 73.5q0 57 37.5 134.5t111.5 134.5q62 48 120 48zM293 377q-32 0 -76 -48
q-46 -50 -74 -117q48 15 76.5 31t57.5 43q20 19 29.5 38.5t9.5 29.5q0 23 -23 23zM217 508q-17 0 -27 10.5t-10 27.5q0 23 14.5 38.5t33.5 15.5q17 0 27 -11.5t10 -26.5q0 -25 -14.5 -39.5t-33.5 -14.5zM372 508q-17 0 -27 10.5t-10 27.5q0 23 14.5 38.5t33.5 15.5
q17 0 27 -11.5t10 -26.5q0 -25 -14.5 -39.5t-33.5 -14.5z" />
    <glyph glyph-name="igrave" unicode="&#xec;" horiz-adv-x="278" 
d="M52 22l127 303q9 19 -2 19q-18 0 -83 -53q-7 1 -11 6t-2 11q38 44 87.5 72t77.5 28q6 0 16 -10q9 -8 -6 -44l-119 -284q-9 -22 3 -22q13 0 46 23t58 51q15 -2 15 -17q-15 -28 -78 -73.5t-109 -45.5q-8 0 -16 9q-11 12 -4 27zM223 618l46 -157q0 -5 -6.5 -8.5t-11.5 -2.5
l-81 126q-14 20 -14 28q0 12 17 23q18 13 31 13q12 0 19 -22z" />
    <glyph glyph-name="iacute" unicode="&#xed;" horiz-adv-x="278" 
d="M52 22l127 303q9 19 -2 19q-18 0 -83 -53q-7 1 -11 6t-2 11q38 44 87.5 72t77.5 28q6 0 16 -10q9 -8 -6 -44l-119 -284q-9 -22 3 -22q13 0 46 23t58 51q15 -2 15 -17q-15 -28 -78 -73.5t-109 -45.5q-8 0 -16 9q-11 12 -4 27zM359 566l-126 -111q-6 0 -11 4t-5 9l94 143
q13 21 24 20q13 0 28 -15t13 -26q0 -10 -17 -24z" />
    <glyph glyph-name="icircumflex" unicode="&#xee;" horiz-adv-x="278" 
d="M52 22l127 303q9 19 -2 19q-18 0 -83 -53q-7 1 -11 6t-2 11q38 44 87.5 72t77.5 28q6 0 16 -10q9 -8 -6 -44l-119 -284q-9 -22 3 -22q13 0 46 23t58 51q15 -2 15 -17q-15 -28 -78 -73.5t-109 -45.5q-8 0 -16 9q-11 12 -4 27zM297 628l38 -162q-6 -13 -21 -10l-42 92
q-6 13 -9 13q-5 0 -16 -11l-93 -96q-6 -1 -11.5 3t-5.5 11l122 164q12 15 21 15q12 0 17 -19z" />
    <glyph glyph-name="idieresis" unicode="&#xef;" horiz-adv-x="278" 
d="M52 22l127 303q9 19 -2 19q-18 0 -83 -53q-7 1 -11 6t-2 11q38 44 87.5 72t77.5 28q6 0 16 -10q9 -8 -6 -44l-119 -284q-9 -22 3 -22q13 0 46 23t58 51q15 -2 15 -17q-15 -28 -78 -73.5t-109 -45.5q-8 0 -16 9q-11 12 -4 27zM187 508q-17 0 -27 10.5t-10 27.5
q0 23 14.5 38.5t33.5 15.5q17 0 27 -11.5t10 -26.5q0 -25 -14.5 -39.5t-33.5 -14.5zM342 508q-17 0 -27 10.5t-10 27.5q0 23 14.5 38.5t33.5 15.5q17 0 27 -11.5t10 -26.5q0 -25 -14.5 -39.5t-33.5 -14.5z" />
    <glyph glyph-name="eth" unicode="&#xf0;" horiz-adv-x="404" 
d="M493 616l-123 -62q39 -94 36 -192q-2 -86 -32 -168t-85 -139q-67 -69 -142 -69q-49 0 -76.5 35t-23.5 98q3 50 32.5 113.5t76.5 110.5q66 65 133 65q24 0 46 -11q5 63 -20 131l-125 -63q-8 5 -11 15t1 17l124 63q-15 46 -44.5 85.5t-69.5 52.5q-3 12 9 17
q106 -27 156 -131l127 64q10 -4 13 -13.5t-2 -18.5zM293 378q-43 0 -79 -48q-41 -55 -69 -130.5t-31 -119.5q-2 -27 9 -45.5t32 -18.5q40 0 79 52q32 43 62.5 123t32.5 121q4 66 -36 66z" />
    <glyph glyph-name="ntilde" unicode="&#xf1;" horiz-adv-x="501" 
d="M245 367l-68 -175l3 -2q60 91 126.5 154.5t118.5 63.5q56 0 56 -54q0 -24 -16 -70q-8 -22 -30.5 -75t-42 -98.5t-20.5 -47.5q-8 -19 2 -19q13 0 43 21t51 47q16 2 16 -14q-28 -47 -79 -79.5t-93 -32.5q-7 0 -15.5 8t-8.5 17t24 66q8 18 38 93.5t43 103.5q21 47 21 73
q0 24 -16 24q-18 0 -57.5 -34t-80.5 -85q-25 -31 -52.5 -75.5t-44 -74t-56.5 -104.5q-7 -12 -18 -12q-8 0 -15 1.5t-12.5 8t-1.5 16.5q49 127 116 315q9 23 -3 23q-34 0 -91 -50q-14 0 -12 15q29 40 70.5 66.5t78.5 26.5q18 0 25.5 -12t0.5 -29zM337 573h50q29 0 41.5 6
t28.5 29q11 6 16 -4q-11 -43 -35 -67q-16 -15 -45 -15h-49q-29 0 -45.5 -11t-30.5 -37q-10 -6 -15 4q3 15 13.5 40t20.5 34q18 21 50 21z" />
    <glyph glyph-name="ograve" unicode="&#xf2;" horiz-adv-x="406" 
d="M294 408q52 0 78.5 -35t23.5 -91q-3 -49 -29 -112t-77 -115q-67 -69 -143 -69q-49 0 -76.5 35t-23.5 98q3 51 32 114.5t77 109.5q68 65 138 65zM287 378q-37 0 -73 -48q-41 -55 -69 -130.5t-31 -119.5q-2 -27 9 -45.5t32 -18.5q40 0 79 52q32 43 61.5 123t31.5 121
q2 66 -40 66zM282 618l49 -155q0 -5 -6.5 -8.5t-11.5 -2.5l-84 124q-14 20 -14 28q0 12 17 23q18 13 31 13q12 0 19 -22z" />
    <glyph glyph-name="oacute" unicode="&#xf3;" horiz-adv-x="406" 
d="M294 408q52 0 78.5 -35t23.5 -91q-3 -49 -29 -112t-77 -115q-67 -69 -143 -69q-49 0 -76.5 35t-23.5 98q3 51 32 114.5t77 109.5q68 65 138 65zM287 378q-37 0 -73 -48q-41 -55 -69 -130.5t-31 -119.5q-2 -27 9 -45.5t32 -18.5q40 0 79 52q32 43 61.5 123t31.5 121
q2 66 -40 66zM415 563l-126 -111q-6 0 -11 4t-5 9l94 143q13 21 24 20q13 0 28 -15t13 -26q0 -10 -17 -24z" />
    <glyph glyph-name="ocircumflex" unicode="&#xf4;" horiz-adv-x="406" 
d="M294 408q52 0 78.5 -35t23.5 -91q-3 -49 -29 -112t-77 -115q-67 -69 -143 -69q-49 0 -76.5 35t-23.5 98q3 51 32 114.5t77 109.5q68 65 138 65zM287 378q-37 0 -73 -48q-41 -55 -69 -130.5t-31 -119.5q-2 -27 9 -45.5t32 -18.5q40 0 79 52q32 43 61.5 123t31.5 121
q2 66 -40 66zM356 631l38 -162q-6 -13 -21 -10l-39 97q-5 13 -9 13q-5 0 -16 -11l-96 -101q-6 -1 -11.5 3t-5.5 11l122 164q12 15 21 15q12 0 17 -19z" />
    <glyph glyph-name="otilde" unicode="&#xf5;" horiz-adv-x="406" 
d="M294 408q52 0 78.5 -35t23.5 -91q-3 -49 -29 -112t-77 -115q-67 -69 -143 -69q-49 0 -76.5 35t-23.5 98q3 51 32 114.5t77 109.5q68 65 138 65zM287 378q-37 0 -73 -48q-41 -55 -69 -130.5t-31 -119.5q-2 -27 9 -45.5t32 -18.5q40 0 79 52q32 43 61.5 123t31.5 121
q2 66 -40 66zM301 573h50q29 0 41.5 6t28.5 29q11 6 16 -4q-11 -43 -35 -67q-16 -15 -45 -15h-49q-29 0 -45.5 -11t-30.5 -37q-10 -6 -15 4q3 15 13.5 40t20.5 34q18 21 50 21z" />
    <glyph glyph-name="odieresis" unicode="&#xf6;" horiz-adv-x="406" 
d="M294 408q52 0 78.5 -35t23.5 -91q-3 -49 -29 -112t-77 -115q-67 -69 -143 -69q-49 0 -76.5 35t-23.5 98q3 51 32 114.5t77 109.5q68 65 138 65zM287 378q-37 0 -73 -48q-41 -55 -69 -130.5t-31 -119.5q-2 -27 9 -45.5t32 -18.5q40 0 79 52q32 43 61.5 123t31.5 121
q2 66 -40 66zM245 509q-17 0 -27 10.5t-10 27.5q0 23 14.5 38.5t33.5 15.5q17 0 27 -11.5t10 -26.5q0 -25 -14.5 -39.5t-33.5 -14.5zM400 509q-17 0 -27 10.5t-10 27.5q0 23 14.5 38.5t33.5 15.5q17 0 27 -11.5t10 -26.5q0 -25 -14.5 -39.5t-33.5 -14.5z" />
    <glyph glyph-name="divide" unicode="&#xf7;" horiz-adv-x="560" 
d="M308 128q17 0 30.5 -13t13.5 -31t-13 -31.5t-31 -13.5q-19 0 -32 13t-13 32q0 18 13 31t32 13zM308 283q-19 0 -32 13t-13 32q0 18 13 31t32 13q17 0 30.5 -13t13.5 -31t-13 -31.5t-31 -13.5zM503 230v-49h-385v49h385z" />
    <glyph glyph-name="oslash" unicode="&#xf8;" horiz-adv-x="406" 
d="M113 54l201 315q-8 9 -27 9q-39 0 -78 -49q-43 -54 -72.5 -130t-29.5 -119q0 -14 4 -24zM328 338l-201 -311q13 -11 29 -11q45 0 85 52q33 43 63.5 123t30.5 121q0 11 -3 26h-4zM392 435l-32 -50q39 -31 36 -103q-3 -49 -28.5 -112t-76.5 -115q-67 -69 -143 -69
q-22 0 -43 8l-30 -47q-7 -3 -15 2t-10 13l31 48q-40 35 -34 109q3 50 32.5 113.5t76.5 110.5q68 65 139 65q25 0 40 -7l31 47q21 4 26 -13z" />
    <glyph glyph-name="ugrave" unicode="&#xf9;" horiz-adv-x="496" 
d="M261 378l-112 -292q-13 -34 7 -34q22 0 107 83q26 26 49 55t43.5 62t32.5 54t29.5 55t21.5 41q15 3 30.5 -3t18.5 -15q-2 -5 -23.5 -61t-48 -126t-45.5 -123q-10 -25 4 -25q13 0 44.5 26t53.5 52q17 4 18 -14q-21 -39 -79 -83t-96 -44q-12 0 -20.5 11.5t-4.5 23.5l68 183
l-2 1q-64 -80 -138.5 -149.5t-111.5 -69.5q-29 0 -36 26t7 59l92 243q11 29 0 29q-13 0 -43 -23t-52 -46q-7 -1 -12.5 3.5t-4.5 11.5q21 33 80.5 76t92.5 43q11 0 22.5 -9t7.5 -21zM323 618l51 -156q0 -6 -6.5 -9t-11.5 -2l-86 125q-14 20 -14 28q0 12 17 23q18 13 31 13
q12 0 19 -22z" />
    <glyph glyph-name="uacute" unicode="&#xfa;" horiz-adv-x="496" 
d="M261 378l-112 -292q-13 -34 7 -34q22 0 107 83q26 26 49 55t43.5 62t32.5 54t29.5 55t21.5 41q15 3 30.5 -3t18.5 -15q-2 -5 -23.5 -61t-48 -126t-45.5 -123q-10 -25 4 -25q13 0 44.5 26t53.5 52q17 4 18 -14q-21 -39 -79 -83t-96 -44q-12 0 -20.5 11.5t-4.5 23.5l68 183
l-2 1q-64 -80 -138.5 -149.5t-111.5 -69.5q-29 0 -36 26t7 59l92 243q11 29 0 29q-13 0 -43 -23t-52 -46q-7 -1 -12.5 3.5t-4.5 11.5q21 33 80.5 76t92.5 43q11 0 22.5 -9t7.5 -21zM464 563l-126 -111q-6 0 -11 4t-5 9l94 143q13 21 24 20q13 0 28 -15t13 -26q0 -10 -17 -24
z" />
    <glyph glyph-name="ucircumflex" unicode="&#xfb;" horiz-adv-x="496" 
d="M261 378l-112 -292q-13 -34 7 -34q22 0 107 83q26 26 49 55t43.5 62t32.5 54t29.5 55t21.5 41q15 3 30.5 -3t18.5 -15q-2 -5 -23.5 -61t-48 -126t-45.5 -123q-10 -25 4 -25q13 0 44.5 26t53.5 52q17 4 18 -14q-21 -39 -79 -83t-96 -44q-12 0 -20.5 11.5t-4.5 23.5l68 183
l-2 1q-64 -80 -138.5 -149.5t-111.5 -69.5q-29 0 -36 26t7 59l92 243q11 29 0 29q-13 0 -43 -23t-52 -46q-7 -1 -12.5 3.5t-4.5 11.5q21 33 80.5 76t92.5 43q11 0 22.5 -9t7.5 -21zM412 634l38 -162q-6 -13 -21 -10l-42 92q-6 13 -9 13q-5 0 -16 -11l-93 -96q-6 -1 -11.5 3
t-5.5 11l122 164q12 15 21 15q12 0 17 -19z" />
    <glyph glyph-name="udieresis" unicode="&#xfc;" horiz-adv-x="496" 
d="M261 378l-112 -292q-13 -34 7 -34q22 0 107 83q26 26 49 55t43.5 62t32.5 54t29.5 55t21.5 41q15 3 30.5 -3t18.5 -15q-2 -5 -23.5 -61t-48 -126t-45.5 -123q-10 -25 4 -25q13 0 44.5 26t53.5 52q17 4 18 -14q-21 -39 -79 -83t-96 -44q-12 0 -20.5 11.5t-4.5 23.5l68 183
l-2 1q-64 -80 -138.5 -149.5t-111.5 -69.5q-29 0 -36 26t7 59l92 243q11 29 0 29q-13 0 -43 -23t-52 -46q-7 -1 -12.5 3.5t-4.5 11.5q21 33 80.5 76t92.5 43q11 0 22.5 -9t7.5 -21zM281 508q-17 0 -27 10.5t-10 27.5q0 23 14.5 38.5t33.5 15.5q17 0 27 -11.5t10 -26.5
q0 -25 -14.5 -39.5t-33.5 -14.5zM436 508q-17 0 -27 10.5t-10 27.5q0 23 14.5 38.5t33.5 15.5q17 0 27 -11.5t10 -26.5q0 -25 -14.5 -39.5t-33.5 -14.5z" />
    <glyph glyph-name="yacute" unicode="&#xfd;" horiz-adv-x="366" 
d="M157 408q56 0 61 -170q2 -120 -15 -220h4q47 70 84 172q14 39 25 99.5t12 85.5q2 31 24 31q14 0 28 -9q9 -6 9 -20q1 -29 -28 -117.5t-88 -187.5q-3 -5 -17.5 -29.5t-18 -31t-16.5 -27.5t-19 -30t-19 -27.5t-23 -31t-23.5 -29.5t-28.5 -34q-88 -101 -156 -101
q-23 0 -37.5 13.5t-14.5 32.5t11.5 31t28.5 12q16 0 27 -16q11 -18 28 -18q21 0 55 28q21 18 48 61t40 89q22 79 20 228q-3 150 -38 150q-7 0 -14 -5t-15 -18t-13.5 -22.5t-15.5 -30.5q-15 -4 -19 13q17 54 48 91.5t66 37.5zM385 563l-126 -111q-6 0 -11 4t-5 9l94 143
q13 21 24 20q13 0 28 -15t13 -26q0 -10 -17 -24z" />
    <glyph glyph-name="thorn" unicode="&#xfe;" horiz-adv-x="448" 
d="M-4 -169l186 522q-43 -12 -101 -41q-6 1 -9 6.5t-1 12.5q48 34 124 56l49 137q17 53 16.5 67t-13.5 20l-18 8q-4 3 -4 8.5t4 7.5q63 25 126 30l5 -6q-5 -15 -12.5 -34t-21.5 -56t-30 -82l-35 -95q3 0 15 1t23 1q29 0 56.5 -7.5t53.5 -35t26 -71.5q0 -126 -132 -237
q-28 -24 -64.5 -38t-53.5 -16.5t-25 -2.5q-10 0 -31 6q-11 -3 -16 -18l-41 -118q-20 -58 -18.5 -72.5t26.5 -18.5l41 -6q11 -15 -4 -22q-17 0 -218 -6q-13 11 0 22l22 4q8 1 15 3.5t12.5 4t10.5 5.5t8 5.5t7 7t5.5 7t4.5 9.5t3.5 9.5t4 11t4.5 11.5zM253 362l-104 -292
q-6 -16 1 -27q14 -23 37 -23q18 0 51 19t61 62q59 91 59 188q0 36 -22.5 55.5t-56.5 19.5q-12 0 -26 -2z" />
    <glyph glyph-name="ydieresis" unicode="&#xff;" horiz-adv-x="366" 
d="M157 408q56 0 61 -170q2 -120 -15 -220h4q47 70 84 172q14 39 25 99.5t12 85.5q2 31 24 31q14 0 28 -9q9 -6 9 -20q1 -29 -28 -117.5t-88 -187.5q-3 -5 -17.5 -29.5t-18 -31t-16.5 -27.5t-19 -30t-19 -27.5t-23 -31t-23.5 -29.5t-28.5 -34q-88 -101 -156 -101
q-23 0 -37.5 13.5t-14.5 32.5t11.5 31t28.5 12q16 0 27 -16q11 -18 28 -18q21 0 55 28q21 18 48 61t40 89q22 79 20 228q-3 150 -38 150q-7 0 -14 -5t-15 -18t-13.5 -22.5t-15.5 -30.5q-15 -4 -19 13q17 54 48 91.5t66 37.5zM195 508q-17 0 -27 10.5t-10 27.5
q0 23 14.5 38.5t33.5 15.5q17 0 27 -11.5t10 -26.5q0 -25 -14.5 -39.5t-33.5 -14.5zM350 508q-17 0 -27 10.5t-10 27.5q0 23 14.5 38.5t33.5 15.5q17 0 27 -11.5t10 -26.5q0 -25 -14.5 -39.5t-33.5 -14.5z" />
    <glyph glyph-name="Amacron" unicode="&#x100;" horiz-adv-x="596" 
d="M552 25l26 -3q4 -5 2.5 -13.5t-6.5 -11.5q-46 3 -113 3q-70 0 -115 -3q-7 3 -7.5 12.5t6.5 12.5l31 3q30 3 39 16q8 13 11 62l9 134q2 17 -1.5 21.5t-19.5 4.5h-144q-23 0 -30 -4.5t-21 -26.5l-73 -114q-45 -71 -45 -75q0 -11 23 -15l37 -6q6 -5 5 -13.5t-7 -11.5
q-47 3 -102 3q-57 0 -111 -3q-10 13 2 25l27 3q40 4 72 42q36 44 165 225l176 248q53 74 60 103q15 2 32.5 10.5t29.5 15.5l11 7q12 0 12 -8q0 -7 -1.5 -24.5t-4 -51.5t-4.5 -71l-20 -378q-2 -33 -2.5 -47.5t1 -30.5t3 -20.5t9.5 -10t15 -6.5t23 -3zM293 303h126
q13 0 16 3.5t4 16.5l16 219q2 26 -2 26q-5 0 -38 -49l-139 -201q-6 -9 -2.5 -12t19.5 -3zM608 722h-191q-7 9 -7 24.5t7 24.5h191q8 -9 8 -24.5t-8 -24.5z" />
    <glyph glyph-name="amacron" unicode="&#x101;" horiz-adv-x="444" 
d="M374 367l28 64q13 6 28.5 0.5t20.5 -15.5q-85 -210 -134 -349q-8 -23 7 -23q27 0 103 67q14 0 14 -13q-34 -45 -81.5 -78.5t-86.5 -33.5q-15 0 -22 9t-7 18q0 10 10 39l33 90l-3 1q-52 -65 -118 -111t-102 -46q-20 0 -32 17t-12 39q0 24 22 79t66 115q68 93 132 129
q51 29 90 29q12 0 24 -6q13 -6 20 -21zM299 356q-28 0 -71 -39q-47 -42 -86 -123.5t-39 -135.5q0 -19 15 -19q26 0 97 65q101 94 134 216q-13 36 -50 36zM451 507h-185q-8 9 -8 25.5t8 25.5h185q7 -9 7 -25.5t-7 -25.5z" />
    <glyph glyph-name="Abreve" unicode="&#x102;" horiz-adv-x="596" 
d="M552 25l26 -3q4 -5 2.5 -13.5t-6.5 -11.5q-46 3 -113 3q-70 0 -115 -3q-7 3 -7.5 12.5t6.5 12.5l31 3q30 3 39 16q8 13 11 62l9 134q2 17 -1.5 21.5t-19.5 4.5h-144q-23 0 -30 -4.5t-21 -26.5l-73 -114q-45 -71 -45 -75q0 -11 23 -15l37 -6q6 -5 5 -13.5t-7 -11.5
q-47 3 -102 3q-57 0 -111 -3q-10 13 2 25l27 3q40 4 72 42q36 44 165 225l176 248q53 74 60 103q15 2 32.5 10.5t29.5 15.5l11 7q12 0 12 -8q0 -7 -1.5 -24.5t-4 -51.5t-4.5 -71l-20 -378q-2 -33 -2.5 -47.5t1 -30.5t3 -20.5t9.5 -10t15 -6.5t23 -3zM293 303h126
q13 0 16 3.5t4 16.5l16 219q2 26 -2 26q-5 0 -38 -49l-139 -201q-6 -9 -2.5 -12t19.5 -3zM503 715q-105 0 -81 114q4 3 11 3t9 -3q3 -65 70 -65q65 0 92 65q4 3 11 3t9 -3q-18 -114 -121 -114z" />
    <glyph glyph-name="abreve" unicode="&#x103;" horiz-adv-x="444" 
d="M374 367l28 64q13 6 28.5 0.5t20.5 -15.5q-85 -210 -134 -349q-8 -23 7 -23q27 0 103 67q14 0 14 -13q-34 -45 -81.5 -78.5t-86.5 -33.5q-15 0 -22 9t-7 18q0 10 10 39l33 90l-3 1q-52 -65 -118 -111t-102 -46q-20 0 -32 17t-12 39q0 24 22 79t66 115q68 93 132 129
q51 29 90 29q12 0 24 -6q13 -6 20 -21zM299 356q-28 0 -71 -39q-47 -42 -86 -123.5t-39 -135.5q0 -19 15 -19q26 0 97 65q101 94 134 216q-13 36 -50 36zM334 485q-105 0 -81 114q4 3 11 3t9 -3q3 -65 70 -65q65 0 92 65q4 3 11 3t9 -3q-18 -114 -121 -114z" />
    <glyph glyph-name="Aogonek" unicode="&#x104;" horiz-adv-x="596" 
d="M293 303h126q13 0 16 3.5t4 16.5l16 219q2 26 -2 26q-5 0 -38 -49l-139 -201q-6 -9 -2.5 -12t19.5 -3zM414 263h-144q-23 0 -30 -4.5t-21 -26.5l-73 -114q-45 -71 -45 -75q0 -11 23 -15l37 -6q6 -5 5 -13.5t-7 -11.5q-47 3 -102 3q-57 0 -111 -3q-10 13 2 25l27 3
q40 4 72 42q36 44 165 225l176 248q53 74 60 103q15 2 32.5 10.5t29.5 15.5l11 7q12 0 12 -8q0 -7 -1.5 -24.5t-4 -51.5t-4.5 -71l-20 -378q-2 -33 -2.5 -47.5t1 -30.5t3 -20.5t9.5 -10t15 -6.5t23 -3l26 -3q4 -5 2.5 -13.5t-6.5 -11.5q-46 3 -113 3q-26 -20 -47.5 -52
t-21.5 -62q0 -21 13 -34t33 -13q30 0 58 14q9 -2 7 -15q-43 -46 -92 -46q-39 0 -59.5 19t-20.5 49q0 70 90 139q-51 0 -75 -2q-7 3 -7.5 12.5t6.5 12.5l31 3q30 3 39 16q8 13 11 62l9 134q2 17 -1.5 21.5t-19.5 4.5z" />
    <glyph glyph-name="aogonek" unicode="&#x105;" horiz-adv-x="444" 
d="M299 356q-28 0 -71 -39q-47 -42 -86 -123.5t-39 -135.5q0 -19 15 -19q26 0 97 65q101 94 134 216q-13 36 -50 36zM330 394q12 0 24 -6q13 -6 20 -21l28 64q13 6 28.5 0.5t20.5 -15.5q-85 -210 -134 -349q-8 -23 7 -23q27 0 103 67q14 0 14 -13q-30 -40 -80 -81
q-106 -84 -106 -142q0 -37 41 -37q31 0 51 14q9 -2 7 -15q-40 -46 -97 -46q-30 0 -46.5 15.5t-16.5 38.5q0 57 113 153q-14 -7 -23 -10q-5 -2 -11 -2q-15 0 -22 9t-7 18q0 10 10 39l33 90l-3 1q-52 -65 -118 -111t-102 -46q-20 0 -32 17t-12 39q0 24 22 79t66 115
q68 93 132 129q51 29 90 29z" />
    <glyph glyph-name="Cacute" unicode="&#x106;" horiz-adv-x="646" 
d="M581 676q84 0 164 -32q-30 -74 -45 -134q-3 -6 -14 -5.5t-13 6.5q15 68 -9.5 101t-99.5 33q-142 0 -256 -112q-45 -45 -81.5 -127t-36.5 -172q0 -107 49.5 -163t144.5 -56q130 0 215 140q19 8 24 -7q-20 -61 -65 -141q-13 0 -79 -11q-70 -12 -97 -12q-53 0 -99.5 13
t-88.5 42t-67 84t-25 130q0 84 39.5 163.5t103.5 137.5t151.5 90t184.5 32zM636 767l-144 -61q-5 2 -8 8t-1 12l122 98q13 12 23 12q13 0 23 -19q12 -23 6 -35q-5 -8 -21 -15z" />
    <glyph glyph-name="cacute" unicode="&#x107;" horiz-adv-x="338" 
d="M302 408q36 0 55 -17t19 -42q0 -26 -17.5 -36.5t-31.5 -10.5q-17 0 -20 18q0 2 -1 10.5t-1.5 11.5t-2 10t-4 9.5t-6 6.5t-8.5 5.5t-12 1.5q-39 0 -84 -67q-26 -39 -45.5 -95.5t-21.5 -111.5q-3 -65 43 -65q42 0 108 61q7 1 11 -4t2 -13q-31 -41 -75.5 -67.5t-89.5 -26.5
q-32 0 -53.5 26t-21.5 80q0 55 33 129t94 129q64 58 130 58zM417 569l-126 -111q-6 0 -11 4t-5 9l94 143q13 21 24 20q13 0 28 -15t13 -26q0 -10 -17 -24z" />
    <glyph glyph-name="Ccaron" unicode="&#x10c;" horiz-adv-x="646" 
d="M581 676q84 0 164 -32q-30 -74 -45 -134q-3 -6 -14 -5.5t-13 6.5q15 68 -9.5 101t-99.5 33q-142 0 -256 -112q-45 -45 -81.5 -127t-36.5 -172q0 -107 49.5 -163t144.5 -56q130 0 215 140q19 8 24 -7q-20 -61 -65 -141q-13 0 -79 -11q-70 -12 -97 -12q-53 0 -99.5 13
t-88.5 42t-67 84t-25 130q0 84 39.5 163.5t103.5 137.5t151.5 90t184.5 32zM709 823l-138 -108q-14 -9 -23 -9q-10 0 -17 9l-88 108q-1 6 4.5 11t11.5 7l85 -63q9 -7 17 -7q6 0 16 5l123 65q5 0 7.5 -6t1.5 -12z" />
    <glyph glyph-name="ccaron" unicode="&#x10d;" horiz-adv-x="338" 
d="M302 408q36 0 55 -17t19 -42q0 -26 -17.5 -36.5t-31.5 -10.5q-17 0 -20 18q0 2 -1 10.5t-1.5 11.5t-2 10t-4 9.5t-6 6.5t-8.5 5.5t-12 1.5q-39 0 -84 -67q-26 -39 -45.5 -95.5t-21.5 -111.5q-3 -65 43 -65q42 0 108 61q7 1 11 -4t2 -13q-31 -41 -75.5 -67.5t-89.5 -26.5
q-32 0 -53.5 26t-21.5 80q0 55 33 129t94 129q64 58 130 58zM270 472l-35 162q4 14 20 10l43 -87q8 -15 10 -15q6 0 16 12l91 92q5 2 11 -2.5t6 -11.5l-125 -164q-12 -15 -23 -15q-9 0 -14 19z" />
    <glyph glyph-name="Dcaron" unicode="&#x10e;" horiz-adv-x="739" 
d="M133 144l125 405q13 47 9.5 59.5t-26.5 15.5l-40 5q-5 3 -5 11.5t5 12.5q75 10 186 10q83 0 147.5 -16.5t104 -43t64.5 -63t34.5 -73t9.5 -77.5q0 -95 -42.5 -174t-115.5 -129q-132 -90 -334 -90q-11 0 -51.5 1.5t-73.5 1.5q-58 0 -110 -3q-6 4 -6 12.5t5 12.5l26 3
q35 4 50 24t38 95zM347 593l-149 -479q-14 -45 6 -63.5t85 -18.5q82 0 148.5 26.5t106.5 66t67 88.5t37 91.5t10 78.5t-3 63.5t-18.5 64.5t-42 61.5t-78 42t-122.5 17.5q-23 0 -31 -7t-16 -32zM641 823l-138 -108q-14 -9 -23 -9t-17 9l-88 108q-1 6 4.5 11t11.5 7l85 -63
q9 -7 17 -7q6 0 16 5l123 65q5 0 7.5 -6t1.5 -12z" />
    <glyph glyph-name="dcaron" unicode="&#x10f;" horiz-adv-x="474" 
d="M391 377l72 206q15 43 17 58.5t-8 24.5l-23 16q-4 7 3 14q56 20 118 19l4 -6q-8 -24 -63 -177q-93 -257 -155 -463q-7 -23 6 -23q12 0 49.5 30.5t60.5 59.5q14 0 15 -13q-21 -44 -77 -90.5t-93 -46.5q-15 0 -23.5 9.5t-8.5 22.5q0 19 13 57l35 99l-4 1
q-33 -45 -54.5 -70.5t-54 -57t-65 -46.5t-67.5 -15q-28 0 -44 20.5t-16 51.5q0 56 38 133t95 128q99 89 179 89q13 0 28 -8t23 -23zM338 378q-29 0 -76 -43q-31 -29 -76 -89t-67 -106q-31 -64 -31 -95q0 -9 6 -15t13 -6q16 0 52.5 21t82.5 68q95 97 122 193q9 32 1 52
t-27 20zM650 715q27 0 42 -20t15 -46q0 -44 -38.5 -78t-83.5 -45q-8 13 -5 21q71 35 71 83q0 23 -24 33q-12 4 -12 21q0 13 10.5 22t24.5 9z" />
    <glyph glyph-name="Dcroat" unicode="&#x110;" horiz-adv-x="745" 
d="M90 361h110l58 188q13 47 9.5 59.5t-26.5 15.5l-40 5q-5 3 -5 11.5t5 12.5q75 10 186 10q83 0 147.5 -16.5t104 -43t64.5 -63t34.5 -73t9.5 -77.5q0 -95 -42.5 -174t-115.5 -129q-132 -90 -334 -90q-11 0 -51.5 1.5t-73.5 1.5q-58 0 -110 -3q-6 4 -6 12.5t5 12.5l26 3
q35 4 50 24t38 95l56 182h-107q-6 24 8 35zM412 326h-148l-66 -212q-14 -45 6 -63.5t85 -18.5q82 0 148.5 26.5t106.5 66t67 88.5t37 91.5t10 78.5t-3 63.5t-18.5 64.5t-42 61.5t-78 42t-122.5 17.5q-23 0 -31 -7t-16 -32l-72 -232h146q10 -23 -9 -35z" />
    <glyph glyph-name="dcroat" unicode="&#x111;" horiz-adv-x="474" 
d="M338 378q-29 0 -76 -43q-31 -29 -76 -89t-67 -106q-31 -64 -31 -95q0 -9 6 -15t13 -6q16 0 52.5 21t82.5 68q95 97 122 193q9 32 1 52t-27 20zM600 567l-20 -37h-69q-93 -253 -155 -461q-7 -23 6 -23q12 0 49.5 30.5t60.5 59.5q14 0 15 -13q-21 -44 -77 -90.5t-93 -46.5
q-15 0 -23.5 9.5t-8.5 22.5q0 19 13 57l35 99l-4 1q-33 -45 -54.5 -70.5t-54 -57t-65 -46.5t-67.5 -15q-28 0 -44 20.5t-16 51.5q0 56 38 133t95 128q99 89 179 89q13 0 28 -8t23 -23l54 153h-125l20 37h118l4 11q17 46 18.5 63t-8.5 25l-23 16q-4 7 3 14q56 20 118 19l4 -6
q-11 -35 -51 -142h77z" />
    <glyph glyph-name="Emacron" unicode="&#x112;" horiz-adv-x="566" 
d="M132 144l116 372q23 70 20 90t-42 28l-20 4q-5 6 -3.5 14t9.5 11q36 -2 53 -2q18 -1 58 -1h189q111 0 141 3q-12 -30 -41 -133q-3 -6 -13 -5.5t-12 6.5q7 38 1 59.5t-36 29.5q-34 9 -106 9h-59q-19 0 -25.5 -5.5t-13.5 -28.5l-64 -205q-7 -21 -5 -25t23 -4h50
q72 0 96.5 8.5t41.5 40.5l16 30q3 5 13.5 4.5t11.5 -6.5q-19 -45 -34 -97q-14 -45 -26 -97q-5 -6 -13.5 -5.5t-11.5 6.5v28q0 37 -19.5 45t-83.5 8h-50q-21 0 -26.5 -4t-12.5 -25l-41 -135q-15 -50 -18.5 -68.5t1.5 -41.5q10 -21 111 -21q89 0 128.5 17t84.5 87q16 10 23 -6
q-8 -27 -29.5 -70.5t-39.5 -61.5q-17 1 -54.5 1.5t-56.5 0.5q-20 0 -59.5 0.5t-58.5 0.5h-118q-53 0 -119 -3q-6 4 -6 12.5t5 12.5l35 3q36 3 51 23t39 96zM558 722h-191q-7 9 -7 24.5t7 24.5h191q8 -9 8 -24.5t-8 -24.5z" />
    <glyph glyph-name="emacron" unicode="&#x113;" horiz-adv-x="346" 
d="M313 408q28 0 45.5 -19t17.5 -41q0 -54 -63 -94t-180 -72q-14 -34 -14 -89q0 -25 13.5 -41t34.5 -16q25 0 46 12.5t59 45.5q7 0 11 -5t2 -12q-74 -91 -160 -91q-41 0 -61 31.5t-20 73.5q0 57 37.5 134.5t111.5 134.5q62 48 120 48zM293 377q-32 0 -76 -48
q-46 -50 -74 -117q48 15 76.5 31t57.5 43q20 19 29.5 38.5t9.5 29.5q0 23 -23 23zM402 502h-185q-7 9 -7 25.5t7 25.5h185q7 -9 7 -25.5t-7 -25.5z" />
    <glyph glyph-name="Edotaccent" unicode="&#x116;" horiz-adv-x="566" 
d="M132 144l116 372q23 70 20 90t-42 28l-20 4q-5 6 -3.5 14t9.5 11q36 -2 53 -2q18 -1 58 -1h189q111 0 141 3q-12 -30 -41 -133q-3 -6 -13 -5.5t-12 6.5q7 38 1 59.5t-36 29.5q-34 9 -106 9h-59q-19 0 -25.5 -5.5t-13.5 -28.5l-64 -205q-7 -21 -5 -25t23 -4h50
q72 0 96.5 8.5t41.5 40.5l16 30q3 5 13.5 4.5t11.5 -6.5q-19 -45 -34 -97q-14 -45 -26 -97q-5 -6 -13.5 -5.5t-11.5 6.5v28q0 37 -19.5 45t-83.5 8h-50q-21 0 -26.5 -4t-12.5 -25l-41 -135q-15 -50 -18.5 -68.5t1.5 -41.5q10 -21 111 -21q89 0 128.5 17t84.5 87q16 10 23 -6
q-8 -27 -29.5 -70.5t-39.5 -61.5q-17 1 -54.5 1.5t-56.5 0.5q-20 0 -59.5 0.5t-58.5 0.5h-118q-53 0 -119 -3q-6 4 -6 12.5t5 12.5l35 3q36 3 51 23t39 96zM461 706q-17 0 -27 10.5t-10 27.5q0 22 14.5 37.5t33.5 15.5q17 0 26.5 -11.5t9.5 -26.5q0 -24 -14 -38.5t-33 -14.5
z" />
    <glyph glyph-name="edotaccent" unicode="&#x117;" horiz-adv-x="346" 
d="M313 408q28 0 45.5 -19t17.5 -41q0 -54 -63 -94t-180 -72q-14 -34 -14 -89q0 -25 13.5 -41t34.5 -16q25 0 46 12.5t59 45.5q7 0 11 -5t2 -12q-74 -91 -160 -91q-41 0 -61 31.5t-20 73.5q0 57 37.5 134.5t111.5 134.5q62 48 120 48zM293 377q-32 0 -76 -48
q-46 -50 -74 -117q48 15 76.5 31t57.5 43q20 19 29.5 38.5t9.5 29.5q0 23 -23 23zM297 502q-18 0 -28.5 11t-10.5 29q0 24 15.5 40t35.5 16q18 0 28 -12t10 -28q0 -26 -15 -41t-35 -15z" />
    <glyph glyph-name="Eogonek" unicode="&#x118;" horiz-adv-x="566" 
d="M245 0h-118q-53 0 -119 -3q-6 4 -6 12.5t5 12.5l35 3q36 3 51 23t39 96l116 372q23 70 20 90t-42 28l-20 4q-5 6 -3.5 14t9.5 11q36 -2 53 -2q18 -1 58 -1h189q111 0 141 3q-12 -30 -41 -133q-3 -6 -13 -5.5t-12 6.5q7 38 1 59.5t-36 29.5q-34 9 -106 9h-59
q-19 0 -25.5 -5.5t-13.5 -28.5l-64 -205q-7 -21 -5 -25t23 -4h50q72 0 96.5 8.5t41.5 40.5l16 30q3 5 13.5 4.5t11.5 -6.5q-19 -45 -34 -97q-14 -45 -26 -97q-5 -6 -13.5 -5.5t-11.5 6.5v28q0 37 -19.5 45t-83.5 8h-50q-21 0 -26.5 -4t-12.5 -25l-41 -135
q-15 -50 -18.5 -68.5t1.5 -41.5q10 -21 111 -21q89 0 128.5 17t84.5 87q16 10 23 -6q-8 -27 -29.5 -70.5t-39.5 -61.5h-17q-33 -23 -62 -57.5t-29 -64.5q0 -37 41 -37q31 0 51 14q9 -2 7 -15q-40 -46 -97 -46q-31 0 -47 18t-16 45q0 39 36.5 79t78.5 65q-16 1 -57 1
q-39 1 -118 1z" />
    <glyph glyph-name="eogonek" unicode="&#x119;" horiz-adv-x="346" 
d="M293 377q-32 0 -76 -48q-46 -50 -74 -117q48 15 76.5 31t57.5 43q20 19 29.5 38.5t9.5 29.5q0 23 -23 23zM44 91q0 57 37.5 134.5t111.5 134.5q62 48 120 48q28 0 45.5 -19t17.5 -41q0 -54 -63 -94t-180 -72q-14 -34 -14 -89q0 -25 13.5 -41t34.5 -16q25 0 46 12.5
t59 45.5q7 0 11 -5t2 -12q-24 -31 -59 -60q-110 -90 -110 -142q0 -37 41 -37q31 0 51 14q9 -2 7 -15q-40 -46 -97 -46q-31 0 -47 18t-16 45q0 54 107 137q-18 -4 -23 -4q-6 -1 -14 -1q-41 0 -61 31.5t-20 73.5z" />
    <glyph glyph-name="Ecaron" unicode="&#x11a;" horiz-adv-x="566" 
d="M132 144l116 372q23 70 20 90t-42 28l-20 4q-5 6 -3.5 14t9.5 11q36 -2 53 -2q18 -1 58 -1h189q111 0 141 3q-12 -30 -41 -133q-3 -6 -13 -5.5t-12 6.5q7 38 1 59.5t-36 29.5q-34 9 -106 9h-59q-19 0 -25.5 -5.5t-13.5 -28.5l-64 -205q-7 -21 -5 -25t23 -4h50
q72 0 96.5 8.5t41.5 40.5l16 30q3 5 13.5 4.5t11.5 -6.5q-19 -45 -34 -97q-14 -45 -26 -97q-5 -6 -13.5 -5.5t-11.5 6.5v28q0 37 -19.5 45t-83.5 8h-50q-21 0 -26.5 -4t-12.5 -25l-41 -135q-15 -50 -18.5 -68.5t1.5 -41.5q10 -21 111 -21q89 0 128.5 17t84.5 87q16 10 23 -6
q-8 -27 -29.5 -70.5t-39.5 -61.5q-17 1 -54.5 1.5t-56.5 0.5q-20 0 -59.5 0.5t-58.5 0.5h-118q-53 0 -119 -3q-6 4 -6 12.5t5 12.5l35 3q36 3 51 23t39 96zM614 823l-138 -108q-14 -9 -23 -9q-10 0 -17 9l-88 108q-1 6 4.5 11t11.5 7l85 -63q9 -7 17 -7q6 0 16 5l123 65
q5 0 7.5 -6t1.5 -12z" />
    <glyph glyph-name="ecaron" unicode="&#x11b;" horiz-adv-x="346" 
d="M313 408q28 0 45.5 -19t17.5 -41q0 -54 -63 -94t-180 -72q-14 -34 -14 -89q0 -25 13.5 -41t34.5 -16q25 0 46 12.5t59 45.5q7 0 11 -5t2 -12q-74 -91 -160 -91q-41 0 -61 31.5t-20 73.5q0 57 37.5 134.5t111.5 134.5q62 48 120 48zM293 377q-32 0 -76 -48
q-46 -50 -74 -117q48 15 76.5 31t57.5 43q20 19 29.5 38.5t9.5 29.5q0 23 -23 23zM270 476l-35 162q4 14 20 10l43 -87q8 -15 10 -15q6 0 16 12l91 92q5 2 11 -2.5t6 -11.5l-125 -164q-12 -15 -23 -15q-9 0 -14 19z" />
    <glyph glyph-name="Gbreve" unicode="&#x11e;" horiz-adv-x="703" 
d="M518 90l26 82q19 55 13.5 72t-49.5 23l-39 5q-5 4 -4.5 13t6.5 12q66 -3 120 -3q78 0 114 3q5 -3 5 -12t-6 -13l-17 -5q-29 -8 -38.5 -22t-28.5 -73l-31 -99q-7 -21 8 -30q2 -8 -4 -14q-129 -45 -210 -45q-133 0 -207.5 69t-74.5 191q0 79 35.5 161t108.5 146
q143 125 348 125q97 0 171 -32q-28 -60 -47 -133q-3 -6 -13 -5.5t-12 6.5q14 69 -12.5 101t-98.5 32q-148 0 -262 -107q-55 -51 -92.5 -141t-37.5 -174q0 -110 56.5 -159t141.5 -49q57 0 86.5 14.5t44.5 60.5zM557 715q-105 0 -81 114q4 3 11 3t9 -3q3 -65 70 -65
q65 0 92 65q4 3 11 3t9 -3q-18 -114 -121 -114z" />
    <glyph glyph-name="gbreve" unicode="&#x11f;" horiz-adv-x="382" 
d="M287 408q7 0 32 -9q4 -2 9.5 -4t9 -3.5t5.5 -1.5q25 0 48 6q30 8 45 8q21 0 21 -25q0 -31 -22 -31q-11 0 -33 5q-18 6 -37 6q-4 0 -7 -2t-2 -4q7 -28 7 -38q0 -58 -36 -112t-91 -88q-18 -12 -71 -26q-22 -12 -22 -35q0 -25 33 -47q1 -1 98 -60q75 -44 75 -97
q0 -46 -65 -82.5t-179 -36.5q-62 0 -110 24.5t-48 70.5q0 35 33.5 66.5t67.5 47.5t70 27q-32 21 -32 46q0 19 45 77q-73 19 -73 90q0 43 22 89t59 79q70 60 148 60zM151 -236q44 0 88 18t44 50q0 31 -43 61q-71 47 -93 50q-36 4 -93 -37q-38 -28 -38 -65q0 -34 40.5 -55.5
t94.5 -21.5zM275 379q-30 0 -67 -41q-33 -38 -61.5 -93t-28.5 -91q0 -15 9 -25t21 -10q33 0 66 39q39 46 65 103t26 84q0 15 -9 24.5t-21 9.5zM285 490q-110 0 -85 120q4 3 11.5 3t9.5 -3q3 -66 73 -66q69 0 97 66q4 3 11.5 3t9.5 -3q-19 -120 -127 -120z" />
    <glyph glyph-name="Gcommaaccent" unicode="&#x122;" horiz-adv-x="703" 
d="M518 90l26 82q19 55 13.5 72t-49.5 23l-39 5q-5 4 -4.5 13t6.5 12q66 -3 120 -3q78 0 114 3q5 -3 5 -12t-6 -13l-17 -5q-29 -8 -38.5 -22t-28.5 -73l-31 -99q-7 -21 8 -30q2 -8 -4 -14q-129 -45 -210 -45q-133 0 -207.5 69t-74.5 191q0 79 35.5 161t108.5 146
q143 125 348 125q97 0 171 -32q-28 -60 -47 -133q-3 -6 -13 -5.5t-12 6.5q14 69 -12.5 101t-98.5 32q-148 0 -262 -107q-55 -51 -92.5 -141t-37.5 -174q0 -110 56.5 -159t141.5 -49q57 0 86.5 14.5t44.5 60.5zM316 -58q28 0 44.5 -20.5t16.5 -46.5q0 -48 -39.5 -80.5
t-89.5 -42.5q-10 8 -5 21q77 37 77 83q0 27 -28 32q-12 3 -12 22q0 14 10.5 23t25.5 9z" />
    <glyph glyph-name="gcommaaccent" unicode="&#x123;" horiz-adv-x="382" 
d="M287 408q7 0 32 -9q4 -2 9.5 -4t9 -3.5t5.5 -1.5q25 0 48 6q30 8 45 8q21 0 21 -25q0 -31 -22 -31q-11 0 -33 5q-18 6 -37 6q-4 0 -7 -2t-2 -4q7 -28 7 -38q0 -58 -36 -112t-91 -88q-18 -12 -71 -26q-22 -12 -22 -35q0 -25 33 -47q1 -1 98 -60q75 -44 75 -97
q0 -46 -65 -82.5t-179 -36.5q-62 0 -110 24.5t-48 70.5q0 35 33.5 66.5t67.5 47.5t70 27q-32 21 -32 46q0 19 45 77q-73 19 -73 90q0 43 22 89t59 79q70 60 148 60zM151 -236q44 0 88 18t44 50q0 31 -43 61q-71 47 -93 50q-36 4 -93 -37q-38 -28 -38 -65q0 -34 40.5 -55.5
t94.5 -21.5zM275 379q-30 0 -67 -41q-33 -38 -61.5 -93t-28.5 -91q0 -15 9 -25t21 -10q33 0 66 39q39 46 65 103t26 84q0 15 -9 24.5t-21 9.5zM310 505q-28 0 -43.5 18.5t-15.5 43.5q0 43 38.5 75.5t86.5 45.5q4 -1 6 -7.5t0 -10.5q-77 -41 -77 -83q0 -23 28 -34
q12 -2 12 -17q0 -13 -10.5 -22t-24.5 -9z" />
    <glyph glyph-name="Imacron" unicode="&#x12a;" horiz-adv-x="341" 
d="M133 144l117 372q13 40 17.5 57.5t2.5 32.5t-11.5 19.5t-31.5 8.5l-24 4q-5 6 -3.5 14t9.5 11q60 -3 116 -3q48 0 120 3q6 -3 6 -12t-6 -13l-27 -4q-42 -7 -55.5 -24.5t-37.5 -93.5l-117 -372q-23 -70 -20.5 -92.5t39.5 -26.5l31 -3q4 -5 2.5 -13.5t-6.5 -11.5
q-74 3 -126 3q-55 0 -115 -3q-6 4 -6 12.5t5 12.5l31 3q36 4 51 23.5t39 95.5zM447 722h-191q-7 9 -7 24.5t7 24.5h191q7 -9 7 -24.5t-7 -24.5z" />
    <glyph glyph-name="imacron" unicode="&#x12b;" horiz-adv-x="278" 
d="M52 22l127 303q9 19 -2 19q-18 0 -83 -53q-7 1 -11 6t-2 11q38 44 87.5 72t77.5 28q6 0 16 -10q9 -8 -6 -44l-119 -284q-9 -22 3 -22q13 0 46 23t58 51q15 -2 15 -17q-15 -28 -78 -73.5t-109 -45.5q-8 0 -16 9q-11 12 -4 27zM323 501h-185q-8 9 -8 26t8 26h185
q7 -9 7 -26t-7 -26z" />
    <glyph glyph-name="Iogonek" unicode="&#x12e;" horiz-adv-x="341" 
d="M133 144l117 372q13 40 17.5 57.5t2.5 32.5t-11.5 19.5t-31.5 8.5l-24 4q-5 6 -3.5 14t9.5 11q60 -3 116 -3q48 0 120 3q6 -3 6 -12t-6 -13l-27 -4q-42 -7 -55.5 -24.5t-37.5 -93.5l-117 -372q-23 -70 -20.5 -92.5t39.5 -26.5l31 -3q4 -5 2.5 -13.5t-6.5 -11.5
q-64 3 -102 2q-62 -56 -62 -106q0 -25 15 -38t40 -13q33 0 57 13q8 -5 8 -17q-48 -47 -106 -47q-35 0 -57 20t-22 52q0 63 94 137q-51 0 -106 -3q-6 4 -6 12.5t5 12.5l31 3q36 4 51 23.5t39 95.5z" />
    <glyph glyph-name="iogonek" unicode="&#x12f;" horiz-adv-x="278" 
d="M263 613q33 0 33 -36q0 -23 -14.5 -41.5t-35.5 -18.5q-17 0 -25.5 10.5t-8.5 25.5q0 20 13 40t38 20zM246 408q6 0 16 -10q9 -9 -6 -44l-119 -284q-9 -22 3 -22q13 0 46 23t58 51q15 -2 15 -17q-11 -22 -84 -82q-48 -39 -75.5 -79t-27.5 -69q0 -37 41 -37q31 0 51 14
q9 -2 7 -15q-40 -46 -97 -46q-31 0 -47 18t-16 43q0 33 27.5 69t87.5 91q-56 -26 -61 -26q-7 0 -14 9t1 27l127 303q9 19 -2 19q-18 0 -83 -53q-7 1 -11 6t-2 11q38 44 87.5 72t77.5 28z" />
    <glyph glyph-name="Idotaccent" unicode="&#x130;" horiz-adv-x="341" 
d="M133 144l117 372q13 40 17.5 57.5t2.5 32.5t-11.5 19.5t-31.5 8.5l-24 4q-5 6 -3.5 14t9.5 11q60 -3 116 -3q48 0 120 3q6 -3 6 -12t-6 -13l-27 -4q-42 -7 -55.5 -24.5t-37.5 -93.5l-117 -372q-23 -70 -20.5 -92.5t39.5 -26.5l31 -3q4 -5 2.5 -13.5t-6.5 -11.5
q-74 3 -126 3q-55 0 -115 -3q-6 4 -6 12.5t5 12.5l31 3q36 4 51 23.5t39 95.5zM349 706q-17 0 -27 10.5t-10 27.5q0 22 14.5 37.5t33.5 15.5q17 0 26.5 -11.5t9.5 -26.5q0 -24 -14 -38.5t-33 -14.5z" />
    <glyph glyph-name="dotlessi" unicode="&#x131;" horiz-adv-x="278" 
d="M52 22l127 303q9 19 -2 19q-18 0 -83 -53q-7 1 -11 6t-2 11q38 44 87.5 72t77.5 28q6 0 16 -10q9 -8 -6 -44l-119 -284q-9 -22 3 -22q13 0 46 23t58 51q15 -2 15 -17q-15 -28 -78 -73.5t-109 -45.5q-8 0 -16 9q-11 12 -4 27z" />
    <glyph glyph-name="Kcommaaccent" unicode="&#x136;" horiz-adv-x="623" 
d="M133 144l117 372q13 40 17.5 57.5t3.5 32.5t-10 19.5t-28 8.5l-23 4q-5 6 -3.5 14t9.5 11q48 -3 108 -3q52 0 119 3q6 -3 5.5 -12t-8.5 -13l-20 -4q-44 -9 -57.5 -26t-37.5 -92l-42 -132q-6 -16 -2.5 -22t20.5 -6q23 0 43 10q34 20 105 87l100 95q65 63 65 74q0 6 -24 12
l-19 4q-5 4 -4 13.5t8 11.5q50 -3 110 -3q21 0 108 3q7 -4 6.5 -13t-7.5 -12l-21 -4q-40 -7 -67 -18q-58 -24 -177 -134l-128 -117q-13 -12 -14.5 -16.5t6.5 -21.5l110 -220q22 -44 39.5 -61t51.5 -21l26 -3q5 -5 4 -14t-7 -11q-48 3 -106 3q-56 0 -113 -3q-9 19 3 25l26 3
q17 2 22 7.5t2 14.5t-14 32l-105 206q-23 45 -40 45q-24 0 -33 -28l-49 -158q-23 -70 -20.5 -92.5t39.5 -26.5l28 -3q4 -5 2.5 -13.5t-6.5 -11.5q-69 3 -124 3q-54 0 -114 -3q-6 4 -6 12.5t5 12.5l31 3q36 4 51 23.5t39 95.5zM276 -58q28 0 44.5 -20.5t16.5 -46.5
q0 -48 -39.5 -80.5t-89.5 -42.5q-10 8 -5 21q77 37 77 83q0 27 -28 32q-12 3 -12 22q0 14 10.5 23t25.5 9z" />
    <glyph glyph-name="kcommaaccent" unicode="&#x137;" horiz-adv-x="448" 
d="M40 12l183 552q17 52 18.5 68.5t-11.5 22.5l-18 9q-10 7 -2 15q47 22 122 36l6 -5q-12 -43 -49 -147l-103 -296h2q45 60 102 103q53 38 108 38q39 0 55.5 -17t16.5 -38q0 -35 -41 -73q-81 -74 -160 -88q-8 -4 -3 -19q14 -49 37 -94q18 -33 32 -33q21 0 60 47q13 0 13 -12
q-23 -49 -53 -72t-48 -23q-23 0 -46 40q-27 49 -46 107q-12 39 -37 33q-15 -4 -21.5 -11t-15.5 -29l-52 -127q-6 -13 -17 -13q-8 0 -15.5 1.5t-14 8t-2.5 16.5zM393 339q0 10 -8 18t-24 8q-37 0 -97 -51q-28 -24 -55 -56t-37 -53q-4 -8 -1.5 -12t11.5 -3q56 5 147 65
q30 20 47 43.5t17 40.5zM174 -58q28 0 44.5 -20.5t16.5 -46.5q0 -48 -39.5 -80.5t-89.5 -42.5q-10 8 -5 21q77 37 77 83q0 27 -28 32q-12 3 -12 22q0 14 10.5 23t25.5 9z" />
    <glyph glyph-name="Lacute" unicode="&#x139;" horiz-adv-x="546" 
d="M324 516l-110 -354q-30 -82 -18 -106.5t99 -24.5q94 0 135 17t84 87q19 6 22 -6q-8 -25 -29 -68t-35 -64q-74 2 -117 2q-40 1 -114 1h-116q-58 0 -106 -3q-6 4 -6 12.5t5 12.5l24 3q36 5 51 24t39 95l117 372q13 40 17.5 57.5t2.5 32.5t-11.5 19.5t-31.5 8.5l-24 4
q-5 6 -3.5 14t9.5 11q13 0 35.5 -1t41.5 -1.5t37 -0.5q24 0 65.5 1.5t60.5 1.5q6 -3 6 -12t-6 -13l-31 -4q-42 -5 -55.5 -23t-37.5 -95zM487 767l-144 -61q-5 2 -8 8t-1 12l122 98q14 12 23 12q13 0 23 -19q12 -23 6 -35q-4 -8 -21 -15z" />
    <glyph glyph-name="lacute" unicode="&#x13a;" horiz-adv-x="246" 
d="M281 537l-158 -472q-11 -33 4 -33q26 0 115 101q16 2 16 -14q-26 -50 -71.5 -91.5t-100.5 -41.5q-39 0 -39 30q0 19 22 85l159 473q16 54 14.5 67.5t-15.5 19.5l-18 8q-4 3 -4 8.5t4 7.5q63 25 126 30l5 -6q-22 -60 -59 -172zM411 792l-144 -61q-5 2 -8 8t-1 12l122 98
q14 12 23 12q13 0 23 -19q12 -23 6 -35q-4 -7 -21 -15z" />
    <glyph glyph-name="Lcommaaccent" unicode="&#x13b;" horiz-adv-x="546" 
d="M324 516l-110 -354q-30 -82 -18 -106.5t99 -24.5q94 0 135 17t84 87q19 6 22 -6q-8 -25 -29 -68t-35 -64q-74 2 -117 2q-40 1 -114 1h-116q-58 0 -106 -3q-6 4 -6 12.5t5 12.5l24 3q36 5 51 24t39 95l117 372q13 40 17.5 57.5t2.5 32.5t-11.5 19.5t-31.5 8.5l-24 4
q-5 6 -3.5 14t9.5 11q13 0 35.5 -1t41.5 -1.5t37 -0.5q24 0 65.5 1.5t60.5 1.5q6 -3 6 -12t-6 -13l-31 -4q-42 -5 -55.5 -23t-37.5 -95zM252 -58q28 0 44.5 -20.5t16.5 -46.5q0 -48 -39.5 -80.5t-89.5 -42.5q-10 8 -5 21q77 37 77 83q0 27 -28 32q-12 3 -12 22q0 14 10.5 23
t25.5 9z" />
    <glyph glyph-name="lcommaaccent" unicode="&#x13c;" horiz-adv-x="246" 
d="M281 537l-158 -472q-11 -33 4 -33q26 0 115 101q16 2 16 -14q-26 -50 -71.5 -91.5t-100.5 -41.5q-39 0 -39 30q0 19 22 85l159 473q16 54 14.5 67.5t-15.5 19.5l-18 8q-4 3 -4 8.5t4 7.5q63 25 126 30l5 -6q-22 -60 -59 -172zM66 -58q28 0 44.5 -20.5t16.5 -46.5
q0 -48 -39.5 -80.5t-89.5 -42.5q-10 8 -5 21q77 37 77 83q0 27 -28 32q-12 3 -12 22q0 14 10.5 23t25.5 9z" />
    <glyph glyph-name="Lcaron" unicode="&#x13d;" horiz-adv-x="546" 
d="M324 516l-110 -354q-30 -82 -18 -106.5t99 -24.5q94 0 135 17t84 87q19 6 22 -6q-8 -25 -29 -68t-35 -64q-74 2 -117 2q-40 1 -114 1h-116q-58 0 -106 -3q-6 4 -6 12.5t5 12.5l24 3q36 5 51 24t39 95l117 372q13 40 17.5 57.5t2.5 32.5t-11.5 19.5t-31.5 8.5l-24 4
q-5 6 -3.5 14t9.5 11q13 0 35.5 -1t41.5 -1.5t37 -0.5q24 0 65.5 1.5t60.5 1.5q6 -3 6 -12t-6 -13l-31 -4q-42 -5 -55.5 -23t-37.5 -95zM536 684q27 0 42 -20t15 -46q0 -44 -38.5 -78t-83.5 -45q-8 13 -5 21q71 36 71 83q0 23 -24 33q-12 4 -12 21q0 13 10.5 22t24.5 9z" />
    <glyph glyph-name="lcaron" unicode="&#x13e;" horiz-adv-x="246" 
d="M281 537l-158 -472q-11 -33 4 -33q26 0 115 101q16 2 16 -14q-26 -50 -71.5 -91.5t-100.5 -41.5q-39 0 -39 30q0 19 22 85l159 473q16 54 14.5 67.5t-15.5 19.5l-18 8q-4 3 -4 8.5t4 7.5q63 25 126 30l5 -6q-22 -60 -59 -172zM408 715q27 0 42 -20t15 -46
q0 -44 -38.5 -78t-83.5 -45q-8 13 -5 21q71 35 71 83q0 23 -24 33q-12 4 -12 21q0 13 10.5 22t24.5 9z" />
    <glyph glyph-name="Lslash" unicode="&#x141;" horiz-adv-x="554" 
d="M448 441l-170 -102l-56 -177q-8 -26 -11.5 -37.5t-7.5 -29t-3 -24t4 -16t10.5 -12.5t20 -6.5t28.5 -4.5t40 -1q94 0 135 17t84 87q19 6 22 -6q-8 -25 -29 -68t-35 -64q-74 2 -117 2q-40 1 -114 1h-116q-58 0 -106 -3q-6 4 -6 12.5t5 12.5l24 3q36 5 51 24t39 95l44 139
l-114 -68q-10 1 -15 9t-3 20l147 88l58 184q13 40 17.5 57.5t2.5 32.5t-11.5 19.5t-31.5 8.5l-24 4q-5 6 -3.5 14t9.5 11q13 0 35.5 -1t41.5 -1.5t37 -0.5q24 0 65.5 1.5t60.5 1.5q6 -3 6 -12t-6 -13l-31 -4q-42 -5 -56 -23.5t-37 -94.5l-39 -128l138 83q21 -4 17 -30z" />
    <glyph glyph-name="lslash" unicode="&#x142;" horiz-adv-x="259" 
d="M359 405l-150 -102l-80 -238q-11 -33 4 -33q26 0 115 101q16 2 16 -14q-26 -50 -71.5 -91.5t-100.5 -41.5q-39 0 -39 30q0 19 22 85l48 141l-2 2l-81 -57q-8 0 -14 10.5t-4 20.5l120 82l93 274q16 54 14.5 67.5t-15.5 19.5l-18 8q-4 3 -4 8.5t4 7.5q63 25 126 30l5 -6
q-1 -4 -59 -172l-60 -176l3 -2l110 77q8 -1 14.5 -12t3.5 -19z" />
    <glyph glyph-name="Nacute" unicode="&#x143;" horiz-adv-x="739" 
d="M155 233l79 256q33 106 33 119q0 17 -26 22l-40 8q-6 5 -4.5 14t9.5 11q8 -1 23.5 -1.5t23.5 -0.5q7 0 25.5 -0.5t29.5 -0.5h62v-14q0 -23 49 -145l101 -249q41 -98 49 -113q8 0 17 28l79 251q48 152 48 185q0 15 -4.5 20.5t-20.5 8.5l-39 6q-4 7 -2 14.5t8 10.5
q53 -3 113 -3q52 0 95 3q4 -3 4.5 -11.5t-3.5 -13.5l-23 -4q-41 -7 -52 -18q-26 -26 -82 -201l-72 -224q-34 -105 -63 -206q-8 -8 -24 -6q-28 87 -93 244l-79 192q-10 24 -24.5 62t-25 63t-17.5 40q-5 0 -32 -88l-78 -260q-13 -43 -42 -166q-4 -16 2.5 -24.5t16 -11.5
t30.5 -5l23 -3q4 -5 3 -13t-6 -12q-45 3 -114 3q-58 0 -105 -3q-5 3 -6 11t4 14l25 3q31 3 49 17q23 17 76 191zM628 767l-144 -61q-5 2 -8 8t-1 12l122 98q13 12 23 12q13 0 23 -19q12 -23 6 -35q-5 -8 -21 -15z" />
    <glyph glyph-name="nacute" unicode="&#x144;" horiz-adv-x="501" 
d="M245 367l-68 -175l3 -2q60 91 126.5 154.5t118.5 63.5q56 0 56 -54q0 -24 -16 -70q-8 -22 -30.5 -75t-42 -98.5t-20.5 -47.5q-8 -19 2 -19q13 0 43 21t51 47q16 2 16 -14q-28 -47 -79 -79.5t-93 -32.5q-7 0 -15.5 8t-8.5 17t24 66q8 18 38 93.5t43 103.5q21 47 21 73
q0 24 -16 24q-18 0 -57.5 -34t-80.5 -85q-25 -31 -52.5 -75.5t-44 -74t-56.5 -104.5q-7 -12 -18 -12q-8 0 -15 1.5t-12.5 8t-1.5 16.5q49 127 116 315q9 23 -3 23q-34 0 -91 -50q-14 0 -12 15q29 40 70.5 66.5t78.5 26.5q18 0 25.5 -12t0.5 -29zM461 569l-126 -111
q-6 0 -11 4t-5 9l94 143q13 21 24 20q13 0 28 -15t13 -26q0 -10 -17 -24z" />
    <glyph glyph-name="Ncommaaccent" unicode="&#x145;" horiz-adv-x="739" 
d="M155 233l79 256q33 106 33 119q0 17 -26 22l-40 8q-6 5 -4.5 14t9.5 11q8 -1 23.5 -1.5t23.5 -0.5q7 0 25.5 -0.5t29.5 -0.5h62v-14q0 -23 49 -145l101 -249q41 -98 49 -113q8 0 17 28l79 251q48 152 48 185q0 15 -4.5 20.5t-20.5 8.5l-39 6q-4 7 -2 14.5t8 10.5
q53 -3 113 -3q52 0 95 3q4 -3 4.5 -11.5t-3.5 -13.5l-23 -4q-41 -7 -52 -18q-26 -26 -82 -201l-72 -224q-34 -105 -63 -206q-8 -8 -24 -6q-28 87 -93 244l-79 192q-10 24 -24.5 62t-25 63t-17.5 40q-5 0 -32 -88l-78 -260q-13 -43 -42 -166q-4 -16 2.5 -24.5t16 -11.5
t30.5 -5l23 -3q4 -5 3 -13t-6 -12q-45 3 -114 3q-58 0 -105 -3q-5 3 -6 11t4 14l25 3q31 3 49 17q23 17 76 191zM324 -58q28 0 44.5 -20.5t16.5 -46.5q0 -48 -39.5 -80.5t-89.5 -42.5q-10 8 -5 21q77 37 77 83q0 27 -28 32q-12 3 -12 22q0 14 10.5 23t25.5 9z" />
    <glyph glyph-name="ncommaaccent" unicode="&#x146;" horiz-adv-x="501" 
d="M245 367l-68 -175l3 -2q60 91 126.5 154.5t118.5 63.5q56 0 56 -54q0 -24 -16 -70q-8 -22 -30.5 -75t-42 -98.5t-20.5 -47.5q-8 -19 2 -19q13 0 43 21t51 47q16 2 16 -14q-28 -47 -79 -79.5t-93 -32.5q-7 0 -15.5 8t-8.5 17t24 66q8 18 38 93.5t43 103.5q21 47 21 73
q0 24 -16 24q-18 0 -57.5 -34t-80.5 -85q-25 -31 -52.5 -75.5t-44 -74t-56.5 -104.5q-7 -12 -18 -12q-8 0 -15 1.5t-12.5 8t-1.5 16.5q49 127 116 315q9 23 -3 23q-34 0 -91 -50q-14 0 -12 15q29 40 70.5 66.5t78.5 26.5q18 0 25.5 -12t0.5 -29zM200 -58q28 0 44.5 -20.5
t16.5 -46.5q0 -48 -39.5 -80.5t-89.5 -42.5q-10 8 -5 21q77 37 77 83q0 27 -28 32q-12 3 -12 22q0 14 10.5 23t25.5 9z" />
    <glyph glyph-name="Ncaron" unicode="&#x147;" horiz-adv-x="739" 
d="M155 233l79 256q33 106 33 119q0 17 -26 22l-40 8q-6 5 -4.5 14t9.5 11q8 -1 23.5 -1.5t23.5 -0.5q7 0 25.5 -0.5t29.5 -0.5h62v-14q0 -23 49 -145l101 -249q41 -98 49 -113q8 0 17 28l79 251q48 152 48 185q0 15 -4.5 20.5t-20.5 8.5l-39 6q-4 7 -2 14.5t8 10.5
q53 -3 113 -3q52 0 95 3q4 -3 4.5 -11.5t-3.5 -13.5l-23 -4q-41 -7 -52 -18q-26 -26 -82 -201l-72 -224q-34 -105 -63 -206q-8 -8 -24 -6q-28 87 -93 244l-79 192q-10 24 -24.5 62t-25 63t-17.5 40q-5 0 -32 -88l-78 -260q-13 -43 -42 -166q-4 -16 2.5 -24.5t16 -11.5
t30.5 -5l23 -3q4 -5 3 -13t-6 -12q-45 3 -114 3q-58 0 -105 -3q-5 3 -6 11t4 14l25 3q31 3 49 17q23 17 76 191zM678 823l-138 -108q-14 -9 -23 -9t-17 9l-88 108q-1 6 4.5 11t11.5 7l85 -63q9 -7 17 -7q6 0 16 5l123 65q5 0 7.5 -6t1.5 -12z" />
    <glyph glyph-name="ncaron" unicode="&#x148;" horiz-adv-x="501" 
d="M245 367l-68 -175l3 -2q60 91 126.5 154.5t118.5 63.5q56 0 56 -54q0 -24 -16 -70q-8 -22 -30.5 -75t-42 -98.5t-20.5 -47.5q-8 -19 2 -19q13 0 43 21t51 47q16 2 16 -14q-28 -47 -79 -79.5t-93 -32.5q-7 0 -15.5 8t-8.5 17t24 66q8 18 38 93.5t43 103.5q21 47 21 73
q0 24 -16 24q-18 0 -57.5 -34t-80.5 -85q-25 -31 -52.5 -75.5t-44 -74t-56.5 -104.5q-7 -12 -18 -12q-8 0 -15 1.5t-12.5 8t-1.5 16.5q49 127 116 315q9 23 -3 23q-34 0 -91 -50q-14 0 -12 15q29 40 70.5 66.5t78.5 26.5q18 0 25.5 -12t0.5 -29zM320 474l-35 162q4 14 20 10
l43 -87q8 -15 10 -15q6 0 16 12l91 92q5 2 11 -2.5t6 -11.5l-125 -164q-12 -15 -23 -15q-9 0 -14 19z" />
    <glyph glyph-name="Omacron" unicode="&#x14c;" horiz-adv-x="730" 
d="M506 676q105 0 174 -71t63 -203q-4 -85 -40.5 -169.5t-94.5 -139.5q-115 -109 -262 -109q-120 0 -183.5 78t-60.5 183q2 96 42.5 185.5t117.5 154.5q107 91 244 91zM502 645q-80 0 -150 -60q-62 -52 -112 -155t-54 -223q-3 -81 36.5 -136.5t130.5 -55.5q92 0 167 80
q64 69 100 166t39 185q4 94 -38.5 146.5t-118.5 52.5zM635 722h-191q-7 9 -7 24.5t7 24.5h191q7 -9 7 -24.5t-7 -24.5z" />
    <glyph glyph-name="omacron" unicode="&#x14d;" horiz-adv-x="406" 
d="M294 408q52 0 78.5 -35t23.5 -91q-3 -49 -29 -112t-77 -115q-67 -69 -143 -69q-49 0 -76.5 35t-23.5 98q3 51 32 114.5t77 109.5q68 65 138 65zM287 378q-37 0 -73 -48q-41 -55 -69 -130.5t-31 -119.5q-2 -27 9 -45.5t32 -18.5q40 0 79 52q32 43 61.5 123t31.5 121
q2 66 -40 66zM429 504h-185q-7 9 -6.5 25.5t8.5 25.5h185q7 -9 6 -25.5t-8 -25.5z" />
    <glyph glyph-name="Ohungarumlaut" unicode="&#x150;" horiz-adv-x="730" 
d="M506 676q105 0 174 -71t63 -203q-4 -85 -40.5 -169.5t-94.5 -139.5q-115 -109 -262 -109q-120 0 -183.5 78t-60.5 183q2 96 42.5 185.5t117.5 154.5q107 91 244 91zM502 645q-80 0 -150 -60q-62 -52 -112 -155t-54 -223q-3 -81 36.5 -136.5t130.5 -55.5q92 0 167 80
q64 69 100 166t39 185q4 94 -38.5 146.5t-118.5 52.5zM634 836q8 0 25 -12q23 -17 12 -30l-4.5 -4.5l-7 -7l-7.5 -7.5l-73 -69q-19 4 -16 16l47 96q9 18 24 18zM504 836q11 0 26 -13q17 -15 10 -27q-6 -9 -18 -21l-73 -69q-19 4 -16 16l47 96q9 18 24 18z" />
    <glyph glyph-name="ohungarumlaut" unicode="&#x151;" horiz-adv-x="406" 
d="M294 408q52 0 78.5 -35t23.5 -91q-3 -49 -29 -112t-77 -115q-67 -69 -143 -69q-49 0 -76.5 35t-23.5 98q3 51 32 114.5t77 109.5q68 65 138 65zM287 378q-37 0 -73 -48q-41 -55 -69 -130.5t-31 -119.5q-2 -27 9 -45.5t32 -18.5q40 0 79 52q32 43 61.5 123t31.5 121
q2 66 -40 66zM326 581l-91 -122q-12 0 -14 11l52 141q11 31 24 31t25 -9q17 -12 17 -23t-13 -29zM456 581l-91 -122q-12 0 -14 11l52 141q11 31 24 31t25 -9q17 -12 17 -23t-13 -29z" />
    <glyph glyph-name="OE" unicode="&#x152;" horiz-adv-x="979" 
d="M777 660h148q111 0 141 3q-12 -30 -41 -133q-3 -6 -13 -5.5t-12 6.5q7 38 1 59.5t-36 29.5q-34 9 -106 9h-60q-19 0 -25 -5.5t-13 -28.5l-64 -205q-7 -21 -5 -25t23 -4h50q72 0 96.5 8.5t41.5 40.5l16 30q3 5 13.5 4.5t11.5 -6.5q-19 -45 -34 -97q-14 -45 -26 -97
q-5 -6 -13.5 -5.5t-11.5 6.5v28q0 37 -19.5 45t-83.5 8h-50q-21 0 -26.5 -4t-12.5 -25l-41 -135q-15 -50 -18.5 -68.5t1.5 -41.5q6 -11 28.5 -16t82.5 -5q89 0 128.5 17t84.5 87q16 10 23 -6q-8 -27 -29.5 -70.5t-39.5 -61.5q-17 1 -54.5 1.5t-56.5 0.5q-20 0 -59.5 0.5
t-58.5 0.5h-61q-20 0 -54 -2.5t-45 -2.5q-32 -2 -94 -2q-147 0 -226.5 77t-72.5 209q5 85 51.5 166.5t125.5 134.5q126 84 304 84q39 0 101 -2t90 -2zM565 634q-89 0 -161 -34t-115.5 -89t-67.5 -116.5t-28 -124.5q-7 -118 55.5 -182t167.5 -64q29 0 46.5 3.5t38 22.5
t31.5 55l145 459q10 31 7 42t-20 16q-43 12 -99 12z" />
    <glyph glyph-name="oe" unicode="&#x153;" horiz-adv-x="578" 
d="M282 378q-37 0 -71 -48q-39 -55 -66.5 -130.5t-29.5 -119.5q-1 -28 9.5 -46t31.5 -18q40 0 77 52q31 43 59 122t30 122q2 66 -40 66zM608 348q0 -54 -64 -94t-183 -72q-18 -36 -18 -86q0 -27 15.5 -43.5t40.5 -16.5t46 12.5t59 45.5q7 0 11 -5t2 -12q-74 -91 -160 -91
q-61 0 -75 75q-70 -75 -136 -75q-45 0 -72 33.5t-27 89.5t28 121.5t77 112.5q66 65 136 65q38 0 61 -24t29 -66q35 38 81 64t88 26q27 0 44 -19t17 -41zM526 377q-28 0 -75 -48q-48 -50 -80 -118q51 15 80 31.5t58 43.5q20 19 29.5 38.5t9.5 29.5q0 23 -22 23z" />
    <glyph glyph-name="Racute" unicode="&#x154;" horiz-adv-x="574" 
d="M132 144l117 374q22 71 19.5 88t-28.5 20l-38 4q-4 6 -2.5 14t7.5 11q65 8 170 8q132 0 189 -52q46 -41 46 -114q0 -70 -53.5 -118t-118.5 -59q-10 -1 -12.5 -6t0.5 -18q21 -89 50 -173q14 -40 22 -57t26.5 -30.5t50.5 -16.5q9 -5 0 -19q-24 -3 -63 -3t-60 12t-33 47
q-38 112 -59 194q-9 34 -17.5 42t-32.5 8q-39 0 -49 -5t-17 -27l-39 -124q-23 -70 -20.5 -92t40.5 -27l24 -3q4 -5 2.5 -13.5t-6.5 -11.5q-63 3 -120 3q-59 0 -106 -3q-6 4 -6 12.5t5 12.5l22 3q37 5 51.5 24.5t38.5 94.5zM349 600l-70 -229q-9 -31 -3.5 -36.5t43.5 -5.5
q82 0 145.5 51t65.5 130q2 59 -32.5 90.5t-98.5 31.5q-28 0 -36 -5.5t-14 -26.5zM560 767l-144 -61q-5 2 -8 8t-1 12l122 98q13 12 23 12q13 0 23 -19q12 -23 6 -35q-5 -8 -21 -15z" />
    <glyph glyph-name="racute" unicode="&#x155;" horiz-adv-x="341" 
d="M189 408q55 0 23 -95l-43 -126h5q60 112 105 169q40 52 73 52q40 0 40 -49q0 -32 -21 -60q-9 -12 -19 -11t-13 16q-7 39 -21 39q-12 0 -35 -30q-28 -36 -61 -95t-53 -100t-56 -120q-6 -12 -17 -12q-8 0 -15.5 1.5t-14 8t-3.5 16.5q2 7 24.5 72t44.5 132t34 111
q6 21 -8 21q-32 0 -71 -52q-8 -2 -12.5 2.5t-3.5 13.5q57 96 118 96zM408 564l-126 -111q-6 0 -11 4t-5 9l94 143q13 21 24 20q13 0 28 -15t13 -26q0 -10 -17 -24z" />
    <glyph glyph-name="Rcommaaccent" unicode="&#x156;" horiz-adv-x="574" 
d="M132 144l117 374q22 71 19.5 88t-28.5 20l-38 4q-4 6 -2.5 14t7.5 11q65 8 170 8q132 0 189 -52q46 -41 46 -114q0 -70 -53.5 -118t-118.5 -59q-10 -1 -12.5 -6t0.5 -18q21 -89 50 -173q14 -40 22 -57t26.5 -30.5t50.5 -16.5q9 -5 0 -19q-24 -3 -63 -3t-60 12t-33 47
q-38 112 -59 194q-9 34 -17.5 42t-32.5 8q-39 0 -49 -5t-17 -27l-39 -124q-23 -70 -20.5 -92t40.5 -27l24 -3q4 -5 2.5 -13.5t-6.5 -11.5q-63 3 -120 3q-59 0 -106 -3q-6 4 -6 12.5t5 12.5l22 3q37 5 51.5 24.5t38.5 94.5zM349 600l-70 -229q-9 -31 -3.5 -36.5t43.5 -5.5
q82 0 145.5 51t65.5 130q2 59 -32.5 90.5t-98.5 31.5q-28 0 -36 -5.5t-14 -26.5zM276 -58q28 0 44.5 -20.5t16.5 -46.5q0 -48 -39.5 -80.5t-89.5 -42.5q-10 8 -5 21q77 37 77 83q0 27 -28 32q-12 3 -12 22q0 14 10.5 23t25.5 9z" />
    <glyph glyph-name="rcommaaccent" unicode="&#x157;" horiz-adv-x="341" 
d="M189 408q55 0 23 -95l-43 -126h5q60 112 105 169q40 52 73 52q40 0 40 -49q0 -32 -21 -60q-9 -12 -19 -11t-13 16q-7 39 -21 39q-12 0 -35 -30q-28 -36 -61 -95t-53 -100t-56 -120q-6 -12 -17 -12q-8 0 -15.5 1.5t-14 8t-3.5 16.5q2 7 24.5 72t44.5 132t34 111
q6 21 -8 21q-32 0 -71 -52q-8 -2 -12.5 2.5t-3.5 13.5q57 96 118 96zM56 -58q28 0 44.5 -20.5t16.5 -46.5q0 -48 -39.5 -80.5t-89.5 -42.5q-10 8 -5 21q77 37 77 83q0 27 -28 32q-12 3 -12 22q0 14 10.5 23t25.5 9z" />
    <glyph glyph-name="Rcaron" unicode="&#x158;" horiz-adv-x="574" 
d="M132 144l117 374q22 71 19.5 88t-28.5 20l-38 4q-4 6 -2.5 14t7.5 11q65 8 170 8q132 0 189 -52q46 -41 46 -114q0 -70 -53.5 -118t-118.5 -59q-10 -1 -12.5 -6t0.5 -18q21 -89 50 -173q14 -40 22 -57t26.5 -30.5t50.5 -16.5q9 -5 0 -19q-24 -3 -63 -3t-60 12t-33 47
q-38 112 -59 194q-9 34 -17.5 42t-32.5 8q-39 0 -49 -5t-17 -27l-39 -124q-23 -70 -20.5 -92t40.5 -27l24 -3q4 -5 2.5 -13.5t-6.5 -11.5q-63 3 -120 3q-59 0 -106 -3q-6 4 -6 12.5t5 12.5l22 3q37 5 51.5 24.5t38.5 94.5zM349 600l-70 -229q-9 -31 -3.5 -36.5t43.5 -5.5
q82 0 145.5 51t65.5 130q2 59 -32.5 90.5t-98.5 31.5q-28 0 -36 -5.5t-14 -26.5zM588 823l-138 -108q-14 -9 -23 -9t-17 9l-88 108q-1 6 4.5 11t11.5 7l85 -63q9 -7 17 -7q6 0 16 5l123 65q5 0 7.5 -6t1.5 -12z" />
    <glyph glyph-name="rcaron" unicode="&#x159;" horiz-adv-x="341" 
d="M189 408q55 0 23 -95l-43 -126h5q60 112 105 169q40 52 73 52q40 0 40 -49q0 -32 -21 -60q-9 -12 -19 -11t-13 16q-7 39 -21 39q-12 0 -35 -30q-28 -36 -61 -95t-53 -100t-56 -120q-6 -12 -17 -12q-8 0 -15.5 1.5t-14 8t-3.5 16.5q2 7 24.5 72t44.5 132t34 111
q6 21 -8 21q-32 0 -71 -52q-8 -2 -12.5 2.5t-3.5 13.5q57 96 118 96zM262 476l-35 162q4 14 20 10l43 -87q8 -15 10 -15q6 0 16 12l91 92q5 2 11 -2.5t6 -11.5l-125 -164q-12 -15 -23 -15q-9 0 -14 19z" />
    <glyph glyph-name="Sacute" unicode="&#x15a;" horiz-adv-x="471" 
d="M211 -16q-125 0 -175 70q-5 62 18 116q12 10 21 -2q12 -153 148 -153q56 0 101 36t45 105q0 50 -25 84t-75 73q-104 84 -104 174q0 83 60 136t159 53q44 0 84 -13t61 -27q-8 -14 -37 -116q-5 -4 -13.5 -4t-13.5 5q11 56 -10 90t-84 34q-65 0 -100 -36.5t-35 -91.5
q0 -69 97 -144q52 -40 80 -82.5t28 -99.5q0 -90 -63.5 -148.5t-166.5 -58.5zM509 767l-144 -61q-5 2 -8 8t-1 12l122 98q14 12 23 12q13 0 23 -19q12 -23 6 -35q-4 -8 -21 -15z" />
    <glyph glyph-name="sacute" unicode="&#x15b;" horiz-adv-x="262" 
d="M225 408q26 0 43 -18t17 -39q0 -22 -18 -31q-11 -3 -19 8q-12 12 -17 16.5t-17.5 10t-26.5 5.5q-20 0 -30.5 -13t-10.5 -27q0 -34 34 -91q16 -26 22.5 -39t11.5 -32t4 -40q-2 -53 -52 -96q-41 -36 -101 -36q-27 0 -44 17t-17 36q0 17 15 33q13 12 27 0q35 -40 69 -40
q19 0 33.5 17t14.5 40q0 29 -37 88q-35 57 -35 93q0 53 60 105q38 33 74 33zM344 563l-126 -111q-6 0 -11 4t-5 9l94 143q13 21 24 20q13 0 28 -15t13 -26q0 -10 -17 -24z" />
    <glyph glyph-name="Scedilla" unicode="&#x15e;" horiz-adv-x="471" 
d="M156 -83l50 67q-122 2 -170 70q-5 62 18 116q12 10 21 -2q12 -153 148 -153q56 0 101 36t45 105q0 50 -25 84t-75 73q-104 84 -104 174q0 83 60 136t159 53q44 0 84 -13t61 -27q-8 -14 -37 -116q-5 -4 -13.5 -4t-13.5 5q11 56 -10 90t-84 34q-65 0 -100 -36.5t-35 -91.5
q0 -69 97 -144q52 -40 80 -82.5t28 -99.5q0 -83 -54.5 -140t-145.5 -64l-20 -26q-12 -16 1 -26q39 -32 39 -61q0 -34 -31 -57.5t-69 -23.5q-50 0 -50 32q0 8 7 16t18 8q10 0 24 -14q15 -15 21 -15q10 0 19 7.5t9 23.5q0 38 -53 62v4z" />
    <glyph glyph-name="Scedilla" unicode="&#xf6c1;" horiz-adv-x="471" 
d="M156 -83l50 67q-122 2 -170 70q-5 62 18 116q12 10 21 -2q12 -153 148 -153q56 0 101 36t45 105q0 50 -25 84t-75 73q-104 84 -104 174q0 83 60 136t159 53q44 0 84 -13t61 -27q-8 -14 -37 -116q-5 -4 -13.5 -4t-13.5 5q11 56 -10 90t-84 34q-65 0 -100 -36.5t-35 -91.5
q0 -69 97 -144q52 -40 80 -82.5t28 -99.5q0 -83 -54.5 -140t-145.5 -64l-20 -26q-12 -16 1 -26q39 -32 39 -61q0 -34 -31 -57.5t-69 -23.5q-50 0 -50 32q0 8 7 16t18 8q10 0 24 -14q15 -15 21 -15q10 0 19 7.5t9 23.5q0 38 -53 62v4z" />
    <glyph glyph-name="scedilla" unicode="&#x15f;" horiz-adv-x="262" 
d="M21 -93l59 80q-4 -1 -15 -1q-27 0 -44 17t-17 36q0 17 15 33q13 12 27 0q35 -40 69 -40q19 0 33.5 17t14.5 40q0 29 -37 88q-35 57 -35 93q0 53 60 105q38 33 74 33q26 0 43 -18t17 -39q0 -22 -18 -31q-11 -3 -19 8q-12 12 -17 16.5t-17.5 10t-26.5 5.5q-20 0 -30.5 -13
t-10.5 -27q0 -34 34 -91q16 -26 22.5 -39t11.5 -32t4 -40q-2 -53 -52 -96q-20 -19 -47 -26l-33 -45q-11 -13 5 -26q37 -30 37 -65q0 -31 -32 -54t-70 -23q-50 0 -50 32q0 8 7 16t18 8q10 0 24 -14q15 -15 21 -15q10 0 19 7.5t9 23.5q0 38 -53 62v4z" />
    <glyph glyph-name="scedilla" unicode="&#xf6c2;" horiz-adv-x="262" 
d="M21 -93l59 80q-4 -1 -15 -1q-27 0 -44 17t-17 36q0 17 15 33q13 12 27 0q35 -40 69 -40q19 0 33.5 17t14.5 40q0 29 -37 88q-35 57 -35 93q0 53 60 105q38 33 74 33q26 0 43 -18t17 -39q0 -22 -18 -31q-11 -3 -19 8q-12 12 -17 16.5t-17.5 10t-26.5 5.5q-20 0 -30.5 -13
t-10.5 -27q0 -34 34 -91q16 -26 22.5 -39t11.5 -32t4 -40q-2 -53 -52 -96q-20 -19 -47 -26l-33 -45q-11 -13 5 -26q37 -30 37 -65q0 -31 -32 -54t-70 -23q-50 0 -50 32q0 8 7 16t18 8q10 0 24 -14q15 -15 21 -15q10 0 19 7.5t9 23.5q0 38 -53 62v4z" />
    <glyph glyph-name="Scaron" unicode="&#x160;" horiz-adv-x="471" 
d="M211 -16q-125 0 -175 70q-5 62 18 116q12 10 21 -2q12 -153 148 -153q56 0 101 36t45 105q0 50 -25 84t-75 73q-104 84 -104 174q0 83 60 136t159 53q44 0 84 -13t61 -27q-8 -14 -37 -116q-5 -4 -13.5 -4t-13.5 5q11 56 -10 90t-84 34q-65 0 -100 -36.5t-35 -91.5
q0 -69 97 -144q52 -40 80 -82.5t28 -99.5q0 -90 -63.5 -148.5t-166.5 -58.5zM539 823l-138 -108q-14 -9 -23 -9q-10 0 -17 9l-88 108q-1 6 4.5 11t11.5 7l85 -63q9 -7 17 -7q6 0 16 5l123 65q5 0 7.5 -6t1.5 -12z" />
    <glyph glyph-name="scaron" unicode="&#x161;" horiz-adv-x="262" 
d="M225 408q26 0 43 -18t17 -39q0 -22 -18 -31q-11 -3 -19 8q-12 12 -17 16.5t-17.5 10t-26.5 5.5q-20 0 -30.5 -13t-10.5 -27q0 -34 34 -91q16 -26 22.5 -39t11.5 -32t4 -40q-2 -53 -52 -96q-41 -36 -101 -36q-27 0 -44 17t-17 36q0 17 15 33q13 12 27 0q35 -40 69 -40
q19 0 33.5 17t14.5 40q0 29 -37 88q-35 57 -35 93q0 53 60 105q38 33 74 33zM196 472l-35 162q4 14 20 10l43 -87q8 -15 10 -15q6 0 16 12l91 92q5 2 11 -2.5t6 -11.5l-125 -164q-12 -15 -23 -15q-9 0 -14 19z" />
    <glyph glyph-name="Tcommaaccent" unicode="&#x162;" horiz-adv-x="634" 
d="M306 660h370q39 0 54.5 4t30.5 19q13 5 17 -5q-14 -24 -33 -72t-24 -70q-3 -5 -11 -5t-12 5q4 62 -10.5 77.5t-84.5 15.5h-61q-24 0 -30 -6t-16 -38l-138 -441q-23 -70 -20.5 -93t38.5 -26l37 -3q6 -5 5 -13.5t-9 -11.5q-81 3 -132 3q-52 0 -122 -3q-6 4 -6 12.5t5 12.5
l39 3q34 2 50.5 23t39.5 96l138 441q10 33 7 38.5t-28 5.5h-66q-70 0 -99 -17.5t-69 -72.5q-7 -3 -14 0t-9 10q45 71 72 134q3 4 9.5 4t9.5 -4q-2 -14 12.5 -18.5t59.5 -4.5zM251 -58q28 0 44.5 -20.5t16.5 -46.5q0 -48 -39.5 -80.5t-89.5 -42.5q-10 8 -5 21q77 37 77 83
q0 27 -28 32q-12 3 -12 22q0 14 10.5 23t25.5 9z" />
    <glyph glyph-name="Tcommaaccent" unicode="&#x21a;" horiz-adv-x="634" 
d="M306 660h370q39 0 54.5 4t30.5 19q13 5 17 -5q-14 -24 -33 -72t-24 -70q-3 -5 -11 -5t-12 5q4 62 -10.5 77.5t-84.5 15.5h-61q-24 0 -30 -6t-16 -38l-138 -441q-23 -70 -20.5 -93t38.5 -26l37 -3q6 -5 5 -13.5t-9 -11.5q-81 3 -132 3q-52 0 -122 -3q-6 4 -6 12.5t5 12.5
l39 3q34 2 50.5 23t39.5 96l138 441q10 33 7 38.5t-28 5.5h-66q-70 0 -99 -17.5t-69 -72.5q-7 -3 -14 0t-9 10q45 71 72 134q3 4 9.5 4t9.5 -4q-2 -14 12.5 -18.5t59.5 -4.5zM251 -58q28 0 44.5 -20.5t16.5 -46.5q0 -48 -39.5 -80.5t-89.5 -42.5q-10 8 -5 21q77 37 77 83
q0 27 -28 32q-12 3 -12 22q0 14 10.5 23t25.5 9z" />
    <glyph glyph-name="tcommaaccent" unicode="&#x163;" horiz-adv-x="284" 
d="M337 346h-109l-90 -263q-8 -25 7 -25q11 0 50 31t64 59q17 0 14 -18q-40 -59 -99 -101.5t-93 -42.5q-10 0 -18.5 9t-8.5 18q0 15 14 57l94 276h-78q-4 22 11 28l80 14l56 99q7 5 19.5 3t18.5 -9l-29 -98h109q5 -7 1.5 -19.5t-13.5 -17.5zM69 -58q28 0 44.5 -20.5
t16.5 -46.5q0 -48 -39.5 -80.5t-89.5 -42.5q-10 8 -5 21q77 37 77 83q0 27 -28 32q-12 3 -12 22q0 14 10.5 23t25.5 9z" />
    <glyph glyph-name="tcommaaccent" unicode="&#x21b;" horiz-adv-x="284" 
d="M337 346h-109l-90 -263q-8 -25 7 -25q11 0 50 31t64 59q17 0 14 -18q-40 -59 -99 -101.5t-93 -42.5q-10 0 -18.5 9t-8.5 18q0 15 14 57l94 276h-78q-4 22 11 28l80 14l56 99q7 5 19.5 3t18.5 -9l-29 -98h109q5 -7 1.5 -19.5t-13.5 -17.5zM69 -58q28 0 44.5 -20.5
t16.5 -46.5q0 -48 -39.5 -80.5t-89.5 -42.5q-10 8 -5 21q77 37 77 83q0 27 -28 32q-12 3 -12 22q0 14 10.5 23t25.5 9z" />
    <glyph glyph-name="Tcaron" unicode="&#x164;" horiz-adv-x="634" 
d="M306 660h370q39 0 54.5 4t30.5 19q13 5 17 -5q-14 -24 -33 -72t-24 -70q-3 -5 -11 -5t-12 5q4 62 -10.5 77.5t-84.5 15.5h-61q-24 0 -30 -6t-16 -38l-138 -441q-23 -70 -20.5 -93t38.5 -26l37 -3q6 -5 5 -13.5t-9 -11.5q-81 3 -132 3q-52 0 -122 -3q-6 4 -6 12.5t5 12.5
l39 3q34 2 50.5 23t39.5 96l138 441q10 33 7 38.5t-28 5.5h-66q-70 0 -99 -17.5t-69 -72.5q-7 -3 -14 0t-9 10q45 71 72 134q3 4 9.5 4t9.5 -4q-2 -14 12.5 -18.5t59.5 -4.5zM648 823l-138 -108q-14 -9 -23 -9t-17 9l-88 108q-1 6 4.5 11t11.5 7l85 -63q9 -7 17 -7q6 0 16 5
l123 65q5 0 7.5 -6t1.5 -12z" />
    <glyph glyph-name="tcaron" unicode="&#x165;" horiz-adv-x="284" 
d="M337 346h-109l-90 -263q-8 -25 7 -25q11 0 50 31t64 59q17 0 14 -18q-40 -59 -99 -101.5t-93 -42.5q-10 0 -18.5 9t-8.5 18q0 15 14 57l94 276h-78q-4 22 11 28l80 14l56 99q7 5 19.5 3t18.5 -9l-29 -98h109q5 -7 1.5 -19.5t-13.5 -17.5zM365 715q27 0 42 -20t15 -46
q0 -44 -38.5 -78t-83.5 -45q-8 13 -5 21q71 35 71 83q0 23 -24 33q-12 4 -12 21q0 13 10.5 22t24.5 9z" />
    <glyph glyph-name="Umacron" unicode="&#x16a;" horiz-adv-x="734" 
d="M159 266l78 250q16 52 19 72.5t-5.5 31t-36.5 15.5l-25 4q-5 4 -4 12.5t8 11.5q63 -3 117 -3q50 0 123 3q5 -3 5 -11.5t-6 -12.5l-28 -4q-41 -6 -54.5 -24t-37.5 -95l-72 -231q-82 -265 130 -265q167 0 247 248l46 141q30 93 40 155q8 33 2 49.5t-40 21.5l-28 4
q-5 5 -3.5 13t7.5 11q73 -3 107 -3q50 0 108 3q6 -4 6 -12t-6 -12l-23 -4q-36 -6 -49.5 -19.5t-29.5 -54.5q-10 -27 -49 -152l-46 -147q-47 -148 -117 -209q-78 -69 -189 -69q-137 0 -187 72t-7 210zM632 722h-191q-7 9 -7 24.5t7 24.5h191q8 -9 8 -24.5t-8 -24.5z" />
    <glyph glyph-name="umacron" unicode="&#x16b;" horiz-adv-x="496" 
d="M261 378l-112 -292q-13 -34 7 -34q22 0 107 83q26 26 49 55t43.5 62t32.5 54t29.5 55t21.5 41q15 3 30.5 -3t18.5 -15q-2 -5 -23.5 -61t-48 -126t-45.5 -123q-10 -25 4 -25q13 0 44.5 26t53.5 52q17 4 18 -14q-21 -39 -79 -83t-96 -44q-12 0 -20.5 11.5t-4.5 23.5l68 183
l-2 1q-64 -80 -138.5 -149.5t-111.5 -69.5q-29 0 -36 26t7 59l92 243q11 29 0 29q-13 0 -43 -23t-52 -46q-7 -1 -12.5 3.5t-4.5 11.5q21 33 80.5 76t92.5 43q11 0 22.5 -9t7.5 -21zM446 501h-185q-7 9 -7 27t8 27h185q7 -9 6.5 -27t-7.5 -27z" />
    <glyph glyph-name="Uring" unicode="&#x16e;" horiz-adv-x="734" 
d="M159 266l78 250q16 52 19 72.5t-5.5 31t-36.5 15.5l-25 4q-5 4 -4 12.5t8 11.5q63 -3 117 -3q50 0 123 3q5 -3 5 -11.5t-6 -12.5l-28 -4q-41 -6 -54.5 -24t-37.5 -95l-72 -231q-82 -265 130 -265q167 0 247 248l46 141q30 93 40 155q8 33 2 49.5t-40 21.5l-28 4
q-5 5 -3.5 13t7.5 11q73 -3 107 -3q50 0 108 3q6 -4 6 -12t-6 -12l-23 -4q-36 -6 -49.5 -19.5t-29.5 -54.5q-10 -27 -49 -152l-46 -147q-47 -148 -117 -209q-78 -69 -189 -69q-137 0 -187 72t-7 210zM549 868q37 0 61 -24t24 -57t-24 -57t-61 -24t-61 24t-24 57t24 57t61 24
zM504 787q0 -23 13 -38t32 -15q20 0 32.5 15t12.5 38t-13 37.5t-32 14.5t-32 -15t-13 -37z" />
    <glyph glyph-name="uring" unicode="&#x16f;" horiz-adv-x="496" 
d="M261 378l-112 -292q-13 -34 7 -34q22 0 107 83q26 26 49 55t43.5 62t32.5 54t29.5 55t21.5 41q15 3 30.5 -3t18.5 -15q-2 -5 -23.5 -61t-48 -126t-45.5 -123q-10 -25 4 -25q13 0 44.5 26t53.5 52q17 4 18 -14q-21 -39 -79 -83t-96 -44q-12 0 -20.5 11.5t-4.5 23.5l68 183
l-2 1q-64 -80 -138.5 -149.5t-111.5 -69.5q-29 0 -36 26t7 59l92 243q11 29 0 29q-13 0 -43 -23t-52 -46q-7 -1 -12.5 3.5t-4.5 11.5q21 33 80.5 76t92.5 43q11 0 22.5 -9t7.5 -21zM356 625q36 0 60.5 -24.5t24.5 -56.5q0 -33 -24 -57t-61 -24t-61 24t-24 57q0 32 24.5 56.5
t60.5 24.5zM311 544q0 -23 13 -38t32 -15q20 0 32.5 15t12.5 38t-13 37.5t-32 14.5t-32 -15t-13 -37z" />
    <glyph glyph-name="Uhungarumlaut" unicode="&#x170;" horiz-adv-x="734" 
d="M159 266l78 250q16 52 19 72.5t-5.5 31t-36.5 15.5l-25 4q-5 4 -4 12.5t8 11.5q63 -3 117 -3q50 0 123 3q5 -3 5 -11.5t-6 -12.5l-28 -4q-41 -6 -54.5 -24t-37.5 -95l-72 -231q-82 -265 130 -265q167 0 247 248l46 141q30 93 40 155q8 33 2 49.5t-40 21.5l-28 4
q-5 5 -3.5 13t7.5 11q73 -3 107 -3q50 0 108 3q6 -4 6 -12t-6 -12l-23 -4q-36 -6 -49.5 -19.5t-29.5 -54.5q-10 -27 -49 -152l-46 -147q-47 -148 -117 -209q-78 -69 -189 -69q-137 0 -187 72t-7 210zM648 836q8 0 25 -12q23 -17 12 -30l-4.5 -4.5l-7 -7l-7.5 -7.5l-73 -69
q-19 4 -16 16l47 96q9 18 24 18zM518 836q11 0 26 -13q17 -15 10 -27q-6 -9 -18 -21l-73 -69q-19 4 -16 16l47 96q9 18 24 18z" />
    <glyph glyph-name="uhungarumlaut" unicode="&#x171;" horiz-adv-x="496" 
d="M261 378l-112 -292q-13 -34 7 -34q22 0 107 83q26 26 49 55t43.5 62t32.5 54t29.5 55t21.5 41q15 3 30.5 -3t18.5 -15q-2 -5 -23.5 -61t-48 -126t-45.5 -123q-10 -25 4 -25q13 0 44.5 26t53.5 52q17 4 18 -14q-21 -39 -79 -83t-96 -44q-12 0 -20.5 11.5t-4.5 23.5l68 183
l-2 1q-64 -80 -138.5 -149.5t-111.5 -69.5q-29 0 -36 26t7 59l92 243q11 29 0 29q-13 0 -43 -23t-52 -46q-7 -1 -12.5 3.5t-4.5 11.5q21 33 80.5 76t92.5 43q11 0 22.5 -9t7.5 -21zM378 575l-91 -122q-12 0 -14 11l52 141q11 31 24 31t25 -9q17 -12 17 -23t-13 -29zM508 575
l-91 -122q-12 0 -14 11l52 141q11 31 24 31t25 -9q17 -12 17 -23t-13 -29z" />
    <glyph glyph-name="Uogonek" unicode="&#x172;" horiz-adv-x="734" 
d="M705 409l-46 -147q-47 -148 -117 -209q-65 -58 -155 -66q-77 -62 -77 -112q0 -37 41 -37q31 0 51 14q9 -2 7 -15q-40 -46 -97 -46q-31 0 -47 18t-16 45q0 63 94 131q-131 2 -178.5 74t-5.5 207l78 250q16 52 19 72.5t-5.5 31t-36.5 15.5l-25 4q-5 4 -4 12.5t8 11.5
q63 -3 117 -3q50 0 123 3q5 -3 5 -11.5t-6 -12.5l-28 -4q-41 -6 -54.5 -24t-37.5 -95l-72 -231q-82 -265 130 -265q167 0 247 248l46 141q30 93 40 155q8 33 2 49.5t-40 21.5l-28 4q-5 5 -3.5 13t7.5 11q73 -3 107 -3q50 0 108 3q6 -4 6 -12t-6 -12l-23 -4
q-36 -6 -49.5 -19.5t-29.5 -54.5q-10 -27 -49 -152z" />
    <glyph glyph-name="uogonek" unicode="&#x173;" horiz-adv-x="496" 
d="M261 378l-112 -292q-13 -34 7 -34q22 0 107 83q26 26 49 55t43.5 62t32.5 54t29.5 55t21.5 41q15 3 30.5 -3t18.5 -15q-2 -5 -23.5 -61t-48 -126t-45.5 -123q-10 -25 4 -25q13 0 44.5 25.5t55.5 52.5q14 4 16 -14q-7 -14 -45 -50q-47 -45 -71 -70.5t-49 -60.5t-25 -57
q0 -37 41 -37q31 0 51 14q9 -2 7 -15q-40 -46 -97 -46q-31 0 -47 17.5t-16 40.5q0 35 33 73t96 92q-48 -28 -58 -28q-12 0 -18.5 11.5t-1.5 23.5l68 183l-2 1q-64 -80 -138.5 -149.5t-111.5 -69.5q-29 0 -36 26t7 59l92 243q11 29 0 29q-13 0 -43 -23t-52 -46
q-7 -1 -12.5 3.5t-4.5 11.5q21 33 80.5 76t92.5 43q11 0 22.5 -9t7.5 -21z" />
    <glyph glyph-name="Ydieresis" unicode="&#x178;" horiz-adv-x="564" 
d="M299 579l51 -235q4 -19 9.5 -19t20.5 18l123 148q96 118 96 126q0 12 -29 17l-25 4q-5 4 -4.5 12.5t6.5 12.5q59 -3 104 -3q41 0 90 3q5 -3 5 -12t-5 -13l-21 -4q-40 -8 -56 -23q-41 -37 -98 -103l-114 -134q-53 -62 -69 -87.5t-34 -82.5l-19 -60q-17 -54 -20.5 -76
t4.5 -31.5t35 -11.5l36 -3q5 -4 3.5 -13.5t-6.5 -11.5q-84 3 -134 3q-52 0 -119 -3q-6 4 -6 12.5t5 12.5l36 3q35 3 49.5 22.5t40.5 96.5l20 59q14 40 15.5 60.5t-8.5 67.5l-50 217q-11 49 -21 65.5t-36 20.5l-25 4q-4 5 -3 13.5t6 11.5q56 -3 106 -3q59 0 107 3q5 -4 5 -12
t-5 -13l-29 -4q-28 -4 -36 -15t-1 -40zM380 705q-17 0 -26.5 10t-9.5 27q0 23 14 38t33 15q17 0 27 -11.5t10 -26.5q0 -24 -14.5 -38t-33.5 -14zM554 705q-17 0 -26.5 10t-9.5 27q0 23 14 38t33 15q17 0 27 -11.5t10 -26.5q0 -24 -14 -38t-34 -14z" />
    <glyph glyph-name="Zacute" unicode="&#x179;" horiz-adv-x="601" 
d="M120 145l439 457q17 25 -28 27h-153q-83 0 -117.5 -17.5t-79.5 -82.5q-7 -4 -14.5 -0.5t-8.5 12.5q35 59 60 144q6 6 12 0q4 -17 19.5 -21t76.5 -4h267q80 0 107 3q10 -1 8 -12q-9 -6 -26.5 -21.5t-43 -41.5t-46 -47.5t-53 -54.5t-45.5 -47l-229 -238
q-135 -145 -135 -153q0 -17 90 -17h88q144 0 186 22q43 23 82 89q5 3 11.5 0t8.5 -8q-8 -31 -30 -74.5t-39 -62.5q-52 2 -93 2q-34 1 -104 1h-234q-71 0 -110 -3q-4 1 -5 6.5t1 9.5q34 25 138 132zM559 767l-144 -61q-5 2 -8 8t-1 12l122 98q14 12 23 12q13 0 23 -19
q12 -23 6 -35q-4 -8 -21 -15z" />
    <glyph glyph-name="zacute" unicode="&#x17a;" horiz-adv-x="406" 
d="M2 14q0 18 58 71q83 75 243 226q14 14 -12 22q-61 20 -114 20q-24 0 -33.5 -12t-9.5 -24q0 -22 16 -38q0 -10 -9.5 -19t-25.5 -9q-18 0 -27.5 11t-9.5 26q0 30 45 72q45 40 104 40q28 0 64 -10q56 -17 73 -17q7 0 13.5 1t12 4t9.5 5t8 6.5t6 6.5t5.5 6.5t4.5 5.5
q11 1 19 -5t6 -15q-12 -11 -75 -67t-129 -117.5t-122 -118.5l1 -3q9 0 17.5 -0.5t16 -1.5t17 -4t15 -5t15.5 -6t14.5 -6t15.5 -7t14 -7q42 -19 63 -19q17 0 31.5 13t14.5 33q0 15 -10 48q-5 17 2.5 23.5t17.5 6.5q19 0 31 -16t12 -35q0 -45 -52 -87q-44 -35 -80 -35
q-24 0 -82 25q-9 4 -33.5 15.5t-38.5 16t-25 4.5q-24 0 -37 -12.5t-21 -39.5q-39 -3 -39 28zM395 564l-126 -111q-6 0 -11 4t-5 9l94 143q13 21 24 20q13 0 28 -15t13 -26q0 -10 -17 -24z" />
    <glyph glyph-name="Zdotaccent" unicode="&#x17b;" horiz-adv-x="601" 
d="M120 145l439 457q17 25 -28 27h-153q-83 0 -117.5 -17.5t-79.5 -82.5q-7 -4 -14.5 -0.5t-8.5 12.5q35 59 60 144q6 6 12 0q4 -17 19.5 -21t76.5 -4h267q80 0 107 3q10 -1 8 -12q-9 -6 -26.5 -21.5t-43 -41.5t-46 -47.5t-53 -54.5t-45.5 -47l-229 -238
q-135 -145 -135 -153q0 -17 90 -17h88q144 0 186 22q43 23 82 89q5 3 11.5 0t8.5 -8q-8 -31 -30 -74.5t-39 -62.5q-52 2 -93 2q-34 1 -104 1h-234q-71 0 -110 -3q-4 1 -5 6.5t1 9.5q34 25 138 132zM449 706q-17 0 -27 10.5t-10 27.5q0 22 14.5 37.5t33.5 15.5
q17 0 26.5 -11.5t9.5 -26.5q0 -24 -14 -38.5t-33 -14.5z" />
    <glyph glyph-name="zdotaccent" unicode="&#x17c;" horiz-adv-x="406" 
d="M2 14q0 18 58 71q83 75 243 226q14 14 -12 22q-61 20 -114 20q-24 0 -33.5 -12t-9.5 -24q0 -22 16 -38q0 -10 -9.5 -19t-25.5 -9q-18 0 -27.5 11t-9.5 26q0 30 45 72q45 40 104 40q28 0 64 -10q56 -17 73 -17q7 0 13.5 1t12 4t9.5 5t8 6.5t6 6.5t5.5 6.5t4.5 5.5
q11 1 19 -5t6 -15q-12 -11 -75 -67t-129 -117.5t-122 -118.5l1 -3q9 0 17.5 -0.5t16 -1.5t17 -4t15 -5t15.5 -6t14.5 -6t15.5 -7t14 -7q42 -19 63 -19q17 0 31.5 13t14.5 33q0 15 -10 48q-5 17 2.5 23.5t17.5 6.5q19 0 31 -16t12 -35q0 -45 -52 -87q-44 -35 -80 -35
q-24 0 -82 25q-9 4 -33.5 15.5t-38.5 16t-25 4.5q-24 0 -37 -12.5t-21 -39.5q-39 -3 -39 28zM305 502q-18 0 -28.5 11t-10.5 29q0 24 15.5 40t35.5 16q18 0 28 -12t10 -28q0 -26 -15 -41t-35 -15z" />
    <glyph glyph-name="Zcaron" unicode="&#x17d;" horiz-adv-x="601" 
d="M120 145l439 457q17 25 -28 27h-153q-83 0 -117.5 -17.5t-79.5 -82.5q-7 -4 -14.5 -0.5t-8.5 12.5q35 59 60 144q6 6 12 0q4 -17 19.5 -21t76.5 -4h267q80 0 107 3q10 -1 8 -12q-9 -6 -26.5 -21.5t-43 -41.5t-46 -47.5t-53 -54.5t-45.5 -47l-229 -238
q-135 -145 -135 -153q0 -17 90 -17h88q144 0 186 22q43 23 82 89q5 3 11.5 0t8.5 -8q-8 -31 -30 -74.5t-39 -62.5q-52 2 -93 2q-34 1 -104 1h-234q-71 0 -110 -3q-4 1 -5 6.5t1 9.5q34 25 138 132zM591 823l-138 -108q-14 -9 -23 -9q-10 0 -17 9l-88 108q-1 6 4.5 11t11.5 7
l85 -63q9 -7 17 -7q6 0 16 5l123 65q5 0 7.5 -6t1.5 -12z" />
    <glyph glyph-name="zcaron" unicode="&#x17e;" horiz-adv-x="406" 
d="M2 14q0 18 58 71q83 75 243 226q14 14 -12 22q-61 20 -114 20q-24 0 -33.5 -12t-9.5 -24q0 -22 16 -38q0 -10 -9.5 -19t-25.5 -9q-18 0 -27.5 11t-9.5 26q0 30 45 72q45 40 104 40q28 0 64 -10q56 -17 73 -17q7 0 13.5 1t12 4t9.5 5t8 6.5t6 6.5t5.5 6.5t4.5 5.5
q11 1 19 -5t6 -15q-12 -11 -75 -67t-129 -117.5t-122 -118.5l1 -3q9 0 17.5 -0.5t16 -1.5t17 -4t15 -5t15.5 -6t14.5 -6t15.5 -7t14 -7q42 -19 63 -19q17 0 31.5 13t14.5 33q0 15 -10 48q-5 17 2.5 23.5t17.5 6.5q19 0 31 -16t12 -35q0 -45 -52 -87q-44 -35 -80 -35
q-24 0 -82 25q-9 4 -33.5 15.5t-38.5 16t-25 4.5q-24 0 -37 -12.5t-21 -39.5q-39 -3 -39 28zM265 473l-35 162q4 14 20 10l43 -87q7 -15 10 -15q5 0 16 12l91 92q5 2 11 -2.5t6 -11.5l-125 -164q-12 -15 -23 -15q-9 0 -14 19z" />
    <glyph glyph-name="florin" unicode="&#x192;" horiz-adv-x="500" 
d="M207 427h92q30 91 57 138q30 52 79.5 92t103.5 40q31 0 48.5 -16.5t15.5 -34.5q-2 -17 -15 -29.5t-22 -12.5q-12 0 -23 18q-10 18 -19.5 25.5t-24.5 7.5q-59 0 -124 -228h115q6 -4 5 -16t-9 -17h-123q-22 -68 -47 -157q-71 -253 -151 -319q-50 -40 -98 -40
q-31 0 -45.5 18.5t-11.5 45.5q2 14 9 23t12 9q12 0 23 -15q35 -35 61 -35q37 0 78 143q6 21 23.5 81t36.5 124t35 122h-85q-4 4 -2.5 16t6.5 17z" />
    <glyph glyph-name="Scommaaccent" unicode="&#x218;" horiz-adv-x="471" 
d="M211 -16q-125 0 -175 70q-5 62 18 116q12 10 21 -2q12 -153 148 -153q56 0 101 36t45 105q0 50 -25 84t-75 73q-104 84 -104 174q0 83 60 136t159 53q44 0 84 -13t61 -27q-8 -14 -37 -116q-5 -4 -13.5 -4t-13.5 5q11 56 -10 90t-84 34q-65 0 -100 -36.5t-35 -91.5
q0 -69 97 -144q52 -40 80 -82.5t28 -99.5q0 -90 -63.5 -148.5t-166.5 -58.5zM175 -58q28 0 44.5 -20.5t16.5 -46.5q0 -48 -39.5 -80.5t-89.5 -42.5q-10 8 -5 21q77 37 77 83q0 27 -28 32q-12 3 -12 22q0 14 10.5 23t25.5 9z" />
    <glyph glyph-name="scommaaccent" unicode="&#x219;" horiz-adv-x="262" 
d="M225 408q26 0 43 -18t17 -39q0 -22 -18 -31q-11 -3 -19 8q-12 12 -17 16.5t-17.5 10t-26.5 5.5q-20 0 -30.5 -13t-10.5 -27q0 -34 34 -91q16 -26 22.5 -39t11.5 -32t4 -40q-2 -53 -52 -96q-41 -36 -101 -36q-27 0 -44 17t-17 36q0 17 15 33q13 12 27 0q35 -40 69 -40
q19 0 33.5 17t14.5 40q0 29 -37 88q-35 57 -35 93q0 53 60 105q38 33 74 33zM50 -58q28 0 44.5 -20.5t16.5 -46.5q0 -48 -39.5 -80.5t-89.5 -42.5q-10 8 -5 21q77 37 77 83q0 27 -28 32q-12 3 -12 22q0 14 10.5 23t25.5 9z" />
    <glyph glyph-name="circumflex" unicode="&#x2c6;" 
d="M390 631l38 -162q-6 -13 -21 -10l-42 92q-6 13 -9 13q-5 0 -16 -11l-93 -96q-6 -1 -11.5 3t-5.5 11l122 164q12 15 21 15q12 0 17 -19z" />
    <glyph glyph-name="caron" unicode="&#x2c7;" 
d="M304 476l-35 162q4 14 20 10l43 -87q8 -15 10 -15q6 0 16 12l91 92q5 2 11 -2.5t6 -11.5l-125 -164q-12 -15 -23 -15q-9 0 -14 19z" />
    <glyph glyph-name="breve" unicode="&#x2d8;" 
d="M320 495q-105 0 -81 114q4 3 11 3t9 -3q3 -65 70 -65q65 0 92 65q4 3 11 3t9 -3q-18 -114 -121 -114z" />
    <glyph glyph-name="dotaccent" unicode="&#x2d9;" 
d="M304 507q-18 0 -28.5 11t-10.5 29q0 24 15.5 40t35.5 16q18 0 28 -12t10 -28q0 -26 -15 -41t-35 -15z" />
    <glyph glyph-name="ring" unicode="&#x2da;" 
d="M308 638q36 0 60.5 -24t24.5 -57t-24 -57t-61 -24t-61 24t-24 57t24.5 57t60.5 24zM263 557q0 -23 13 -38t32 -15q20 0 32.5 15t12.5 38t-13 37.5t-32 14.5t-32 -15t-13 -37z" />
    <glyph glyph-name="ogonek" unicode="&#x2db;" 
d="M205 20h36q-42 -29 -80 -69.5t-38 -75.5q0 -37 41 -37q31 0 51 14q9 -2 7 -15q-40 -46 -97 -46q-31 0 -47 18t-16 45q0 44 45 89t98 77z" />
    <glyph glyph-name="tilde" unicode="&#x2dc;" 
d="M275 583h50q29 0 41.5 6t28.5 29q11 6 16 -4q-11 -43 -35 -67q-16 -15 -45 -15h-49q-29 0 -45.5 -11t-30.5 -37q-10 -6 -15 4q3 15 13.5 40t20.5 34q18 21 50 21z" />
    <glyph glyph-name="hungarumlaut" unicode="&#x2dd;" 
d="M355 581l-91 -122q-12 0 -14 11l52 141q11 31 24 31t25 -9q17 -12 17 -23t-13 -29zM485 581l-91 -122q-12 0 -14 11l52 141q11 31 24 31t25 -9q17 -12 17 -23t-13 -29z" />
    <glyph glyph-name="Delta" unicode="&#x394;" horiz-adv-x="612" 
d="M525 0h-527q-8 5 -1.5 20t15.5 28q42 60 178 248l196 271q36 50 39 71q10 3 18 8.5t19.5 16.5t13.5 13q9 0 9 -9q3 -48 11 -135l44 -486q2 -16 -3 -31t-12 -15zM104 43h322q23 0 30 5t6 20l-32 413q-1 9 -2 23.5t-1.5 24.5t-1.5 15h-7q-6 -7 -42 -59l-291 -416
q-12 -17 -8.5 -21.5t27.5 -4.5z" />
    <glyph glyph-name="Delta" unicode="&#x2206;" horiz-adv-x="612" 
d="M525 0h-527q-8 5 -1.5 20t15.5 28q42 60 178 248l196 271q36 50 39 71q10 3 18 8.5t19.5 16.5t13.5 13q9 0 9 -9q3 -48 11 -135l44 -486q2 -16 -3 -31t-12 -15zM104 43h322q23 0 30 5t6 20l-32 413q-1 9 -2 23.5t-1.5 24.5t-1.5 15h-7q-6 -7 -42 -59l-291 -416
q-12 -17 -8.5 -21.5t27.5 -4.5z" />
    <glyph glyph-name="Omega" unicode="&#x3a9;" horiz-adv-x="780" 
d="M170 64h69q0 1 -22.5 36t-30 50t-23 48t-22 63.5t-6.5 62.5q0 146 102 249t265 103q130 0 204.5 -68.5t74.5 -182.5q0 -36 -7 -67.5t-23.5 -61t-32 -51t-45 -48.5t-48 -43t-56 -45.5t-55.5 -44.5h62q57 0 92.5 20t73.5 66q4 4 9.5 4t9 -4.5t1.5 -9.5q-43 -61 -86 -147
q-74 7 -84 7h-180l6 20q127 92 201.5 197.5t74.5 215.5q0 99 -47.5 155.5t-147.5 56.5q-129 0 -203.5 -103t-74.5 -252q0 -132 73 -270l-7 -20h-138q-5 0 -86 -7q-13 123 -22 157q5 8 13 8t9 -8q16 -47 40 -66.5t67 -19.5z" />
    <glyph glyph-name="Omega" unicode="&#x2126;" horiz-adv-x="780" 
d="M170 64h69q0 1 -22.5 36t-30 50t-23 48t-22 63.5t-6.5 62.5q0 146 102 249t265 103q130 0 204.5 -68.5t74.5 -182.5q0 -36 -7 -67.5t-23.5 -61t-32 -51t-45 -48.5t-48 -43t-56 -45.5t-55.5 -44.5h62q57 0 92.5 20t73.5 66q4 4 9.5 4t9 -4.5t1.5 -9.5q-43 -61 -86 -147
q-74 7 -84 7h-180l6 20q127 92 201.5 197.5t74.5 215.5q0 99 -47.5 155.5t-147.5 56.5q-129 0 -203.5 -103t-74.5 -252q0 -132 73 -270l-7 -20h-138q-5 0 -86 -7q-13 123 -22 157q5 8 13 8t9 -8q16 -47 40 -66.5t67 -19.5z" />
    <glyph glyph-name="pi" unicode="&#x3c0;" horiz-adv-x="510" 
d="M387 339h-128q-49 -138 -106 -262q-44 -91 -88 -91q-27 0 -30 28q0 3 0.5 5t2 5t3 5t5 5.5t6.5 5.5t8 6.5t8 7.5q71 64 153 285q-59 0 -91 -14.5t-67 -56.5q-5 -6 -11.5 -2.5t-1.5 12.5q30 59 49 77q14 13 31 22q32 17 92 17h212q86 0 107 10q6 3 7 -0.5t-3 -8.5l-34 -55
q-21 -5 -89 -3q-57 -105 -76 -209q-15 -80 35 -80q40 0 91 52q4 4 7 -6q2 -5 -1 -9q-31 -48 -70.5 -73.5t-77.5 -25.5q-25 0 -39 12.5t-16.5 33t-0.5 39t7 37.5q22 84 106 231z" />
    <glyph glyph-name="figuredash" unicode="&#x2012;" horiz-adv-x="500" 
d="M87 340h450l-14 -49h-450z" />
    <glyph glyph-name="endash" unicode="&#x2013;" horiz-adv-x="500" 
d="M16 230h516l-16 -49h-516z" />
    <glyph glyph-name="emdash" unicode="&#x2014;" horiz-adv-x="1000" 
d="M16 230h1016l-16 -49h-1016z" />
    <glyph glyph-name="quoteleft" unicode="&#x2018;" horiz-adv-x="208" 
d="M231 479q-32 0 -50.5 23.5t-18.5 53.5q0 48 45.5 85.5t101.5 53.5q12 -6 6 -19q-89 -42 -89 -101q0 -27 32 -38q15 -6 15 -21t-12.5 -26t-29.5 -11z" />
    <glyph glyph-name="quoteright" unicode="&#x2019;" horiz-adv-x="208" 
d="M253 686q32 0 50.5 -23.5t18.5 -53.5q0 -48 -45.5 -85.5t-101.5 -53.5q-12 6 -6 19q89 42 89 101q0 27 -32 38q-15 6 -15 21t12.5 26t29.5 11z" />
    <glyph glyph-name="quotesinglbase" unicode="&#x201a;" horiz-adv-x="208" 
d="M69 114q32 0 50.5 -23.5t18.5 -53.5q0 -48 -45.5 -85.5t-101.5 -53.5q-12 6 -6 19q89 42 89 101q0 27 -32 38q-15 6 -15 21t12.5 26t29.5 11z" />
    <glyph glyph-name="quotedblleft" unicode="&#x201c;" horiz-adv-x="380" 
d="M237 479q-32 0 -50.5 23.5t-18.5 53.5q0 48 45.5 85.5t101.5 53.5q12 -6 6 -19q-89 -42 -89 -101q0 -27 32 -38q15 -6 15 -21t-12.5 -26t-29.5 -11zM399 479q-32 0 -50.5 23.5t-18.5 53.5q0 48 45.5 85.5t101.5 53.5q12 -6 6 -19q-89 -42 -89 -101q0 -27 32 -38
q15 -6 15 -21t-12.5 -26t-29.5 -11z" />
    <glyph glyph-name="quotedblright" unicode="&#x201d;" horiz-adv-x="380" 
d="M257 686q32 0 50.5 -23.5t18.5 -53.5q0 -48 -45.5 -85.5t-101.5 -53.5q-12 6 -6 19q89 42 89 101q0 27 -32 38q-15 6 -15 21t12.5 26t29.5 11zM419 686q32 0 50.5 -23.5t18.5 -53.5q0 -48 -45.5 -85.5t-101.5 -53.5q-12 6 -6 19q89 42 89 101q0 27 -32 38q-15 6 -15 21
t12.5 26t29.5 11z" />
    <glyph glyph-name="quotedblbase" unicode="&#x201e;" horiz-adv-x="380" 
d="M72 114q32 0 50.5 -23.5t18.5 -53.5q0 -48 -45.5 -85.5t-101.5 -53.5q-12 6 -6 19q89 42 89 101q0 27 -32 38q-15 6 -15 21t12.5 26t29.5 11zM234 114q32 0 50.5 -23.5t18.5 -53.5q0 -48 -45.5 -85.5t-101.5 -53.5q-12 6 -6 19q89 42 89 101q0 27 -32 38q-15 6 -15 21
t12.5 26t29.5 11z" />
    <glyph glyph-name="dagger" unicode="&#x2020;" horiz-adv-x="467" 
d="M188 -127h-34l40 137q40 136 40 252q30 27 47.5 64t39.5 110q-34 0 -76.5 -14.5t-53.5 -14.5q-21 0 -32.5 12.5t-7.5 32.5q10 40 54 40q14 0 51.5 -14.5t71.5 -14.5q20 66 19 113t0 54q4 19 19.5 32.5t36.5 13.5q23 0 31.5 -15.5t3.5 -34.5q-4 -13 -17 -31.5t-30 -51
t-31 -80.5q34 0 76.5 14.5t56.5 14.5q20 0 30 -12.5t6 -31.5t-18.5 -30t-34.5 -11q-15 0 -52 14.5t-71 14.5q-15 -50 -21 -78t-6 -52.5t10 -43.5q-67 -112 -108 -252z" />
    <glyph glyph-name="daggerdbl" unicode="&#x2021;" horiz-adv-x="470" 
d="M174 -124q-25 0 -33 15.5t-3 34.5q2 8 31 57.5t48 114.5q-36 0 -77 -16q-40 -14 -57 -14q-18 0 -28.5 11.5t-6.5 31.5q3 18 17.5 29.5t35.5 11.5q14 0 51.5 -15t71.5 -15q15 52 21 79t5 49.5t-13 36.5q28 22 44.5 55t36.5 101q-36 0 -77 -16q-40 -14 -57 -14
q-18 0 -28.5 11.5t-6.5 31.5q3 18 17.5 29.5t35.5 11.5q14 0 51.5 -15t71.5 -15q19 64 18.5 112t1.5 55q4 16 18.5 29t35.5 13q23 0 31 -15.5t3 -35.5q-2 -8 -14.5 -25t-30 -51t-31.5 -82q34 0 78 15t57 15q20 0 29.5 -13t5.5 -33q-9 -38 -49 -38q-14 0 -56 15
q-38 15 -72 15q-19 -65 -22 -96.5t11 -59.5q-27 -20 -44 -55.5t-39 -109.5q34 0 78 15t57 15q20 0 29.5 -13t5.5 -33q-8 -38 -49 -38q-13 0 -56 15q-37 15 -72 15q-19 -66 -19.5 -121t-1.5 -59q-3 -16 -17.5 -29t-36.5 -13z" />
    <glyph glyph-name="bullet" unicode="&#x2022;" horiz-adv-x="390" 
d="M249 475q58 0 98.5 -40.5t40.5 -98.5t-40.5 -98t-98.5 -40t-98.5 40t-40.5 98t40.5 98.5t98.5 40.5z" />
    <glyph glyph-name="onedotenleader" unicode="&#x2024;" horiz-adv-x="500" 
d="M228 95q21 0 32.5 -13.5t11.5 -31.5q0 -29 -17 -46.5t-40 -17.5q-21 0 -32.5 12.5t-11.5 34.5q0 26 17.5 44t39.5 18z" />
    <glyph glyph-name="twodotenleader" unicode="&#x2025;" horiz-adv-x="500" 
d="M105 95q21 0 32.5 -13.5t11.5 -31.5q0 -29 -17 -46.5t-40 -17.5q-21 0 -32.5 12.5t-11.5 34.5q0 26 17.5 44t39.5 18zM354 95q21 0 32.5 -13.5t11.5 -31.5q0 -29 -17 -46.5t-40 -17.5q-21 0 -32.5 12.5t-11.5 34.5q0 26 17.5 44t39.5 18z" />
    <glyph glyph-name="ellipsis" unicode="&#x2026;" horiz-adv-x="1000" 
d="M473 95q21 0 32.5 -13.5t11.5 -31.5q0 -29 -17 -46.5t-40 -17.5q-21 0 -32.5 12.5t-11.5 34.5q0 26 17.5 44t39.5 18zM806 95q21 0 32.5 -13.5t11.5 -31.5q0 -29 -17 -46.5t-40 -17.5q-21 0 -32.5 12.5t-11.5 34.5q0 26 17.5 44t39.5 18zM140 95q21 0 32.5 -13.5
t11.5 -31.5q0 -29 -17 -46.5t-40 -17.5q-21 0 -32.5 12.5t-11.5 34.5q0 26 17.5 44t39.5 18z" />
    <glyph glyph-name="perthousand" unicode="&#x2030;" horiz-adv-x="1176" 
d="M331 640q51 0 79 -34.5t28 -93.5q0 -88 -57.5 -164.5t-130.5 -76.5q-56 0 -85 34t-29 92q0 92 57 167.5t138 75.5zM201 371q0 -70 46 -70q38 0 69 49t44.5 103t13.5 91q0 66 -45 66q-37 0 -68 -47.5t-45.5 -101.5t-14.5 -90zM706 356q51 0 79 -34.5t28 -93.5
q0 -88 -57.5 -164.5t-130.5 -76.5q-56 0 -85 34t-29 92q0 92 57 167.5t138 75.5zM576 87q0 -70 46 -70q38 0 69 49t44.5 103t13.5 91q0 66 -45 66q-37 0 -68 -47.5t-45.5 -101.5t-14.5 -90zM1043 357q51 0 79 -34.5t28 -93.5q0 -88 -57.5 -164.5t-130.5 -76.5q-56 0 -85 34
t-29 92q0 92 57 167.5t138 75.5zM913 88q0 -70 46 -70q38 0 69 49t44.5 103t13.5 91q0 66 -45 66q-37 0 -68 -47.5t-45.5 -101.5t-14.5 -90zM174 -14q274 325 557 668q10 0 19.5 -7t9.5 -18q-251 -297 -559 -669q-27 0 -27 26z" />
    <glyph glyph-name="guilsinglleft" unicode="&#x2039;" horiz-adv-x="260" 
d="M146 194l40 -145q-2 -6 -8 -9t-11 -1q-52 94 -88 151q-10 15 6 31q26 26 77 76t75 74q12 2 14 -13l-100 -140q-9 -11 -5 -24z" />
    <glyph glyph-name="guilsinglright" unicode="&#x203a;" horiz-adv-x="260" 
d="M51 52l100 140q9 11 5 24l-40 145q2 6 8 9t11 1q52 -94 88 -151q10 -15 -6 -31q-26 -26 -77 -76t-75 -74q-12 -2 -14 13z" />
    <glyph glyph-name="fraction" unicode="&#x2044;" horiz-adv-x="100" 
d="M-182 -14q274 325 557 668q10 0 19.5 -7t9.5 -18q-251 -297 -559 -669q-27 0 -27 26z" />
    <glyph glyph-name="fraction" unicode="&#x2215;" horiz-adv-x="100" 
d="M-182 -14q274 325 557 668q10 0 19.5 -7t9.5 -18q-251 -297 -559 -669q-27 0 -27 26z" />
    <glyph glyph-name="zerosuperior" unicode="&#x2070;" 
d="M340 708q57 0 84.5 -36.5t27.5 -88.5q0 -57 -22 -115t-59 -98q-55 -62 -122 -62q-58 0 -85.5 36t-27.5 93q0 55 22.5 111.5t57.5 96.5q56 63 124 63zM351 454q35 86 35 169q0 24 -11.5 41.5t-34.5 17.5q-40 0 -76 -61q-26 -45 -44 -110t-18 -108q0 -69 46 -69
q24 0 45.5 21t32.5 42.5t25 56.5z" />
    <glyph glyph-name="foursuperior" unicode="&#x2074;" 
d="M282 429h-157q-10 0 -6 12q4 10 17 21l286 273q12 12 31 12q18 0 18 -8q0 -4 -7 -13l-276 -257q-5 -10 17 -11h86q13 0 17 2.5t8 13.5l37 111q5 9 10 12q22 11 45 11q14 0 7 -19l-39 -117q-2 -5 -2.5 -7.5t0.5 -4t3.5 -2t7.5 -0.5h42q5 -4 2 -14.5t-10 -14.5h-38
q-14 0 -17.5 -2t-5.5 -10l-12 -35q-10 -25 -7.5 -34.5t24.5 -12.5l24 -3q3 -5 1.5 -11t-5.5 -8q-38 2 -94 2q-24 0 -84 -2q-4 2 -3.5 8.5t5.5 10.5l24 3q23 3 34 11.5t20 35.5l11 33q4 8 1.5 11t-15.5 3z" />
    <glyph glyph-name="fivesuperior" unicode="&#x2075;" 
d="M405 653l-137 -17q-24 -3 -29 -14l-12 -25q-6 -11 15 -15l15 -3q33 -7 61 -19t52.5 -40.5t24.5 -67.5q0 -47 -28.5 -84t-74 -57.5t-95 -31t-99.5 -11.5q-7 3 -8 13t5 14q111 2 173.5 41t62.5 102q0 47 -42 70.5t-96 28.5q-22 2 -14 19l53 113q8 16 22 18l180 21l4 -4
q-2 -12 -12.5 -28.5t-20.5 -22.5z" />
    <glyph glyph-name="sixsuperior" unicode="&#x2076;" 
d="M491 731q11 -8 2 -19q-105 -26 -165 -64q-60 -40 -92 -104.5t-32 -127.5q0 -36 17 -59t49 -23q38 0 62 37.5t24 77.5q0 36 -17 54t-44 18q-13 0 -28 -4q-5 2 -5.5 7t3.5 9q25 21 65 21t67.5 -27t27.5 -72q0 -58 -47.5 -102.5t-112.5 -44.5q-62 0 -97 33t-35 95
q0 60 37.5 121t101.5 103q92 60 219 71z" />
    <glyph glyph-name="sevensuperior" unicode="&#x2077;" 
d="M291 701h109q69 0 90 2q6 -2 4 -9q-37 -47 -72 -98l-216 -311q-8 -4 -16 0.5t-11 13.5l217 312q17 24 17 31q0 8 -15 8h-117q-34 0 -48.5 -6.5t-28.5 -26.5q-4 -4 -11 -2t-8 8q19 37 34 80q42 -2 72 -2z" />
    <glyph glyph-name="eightsuperior" unicode="&#x2078;" 
d="M329 708q47 0 77.5 -23.5t30.5 -64.5q0 -21 -8.5 -37t-25.5 -27.5t-29 -17t-32 -13.5q68 -45 68 -101q0 -52 -44.5 -84t-108.5 -32q-58 0 -94 25.5t-36 70.5q0 76 118 114q-51 30 -51 80q0 45 38 77.5t97 32.5zM269 504q-35 -12 -57.5 -39.5t-22.5 -56.5q0 -36 22 -55
t56 -19t58 21.5t24 55.5q0 31 -20 51t-60 42zM318 539q26 9 44.5 31t19.5 51q0 27 -16.5 44t-45.5 17q-28 0 -48.5 -20t-20.5 -49q0 -23 15.5 -38t51.5 -36z" />
    <glyph glyph-name="ninesuperior" unicode="&#x2079;" 
d="M170 567q0 55 44.5 98t109.5 43q62 0 94 -34.5t32 -92.5q0 -72 -52 -144q-41 -59 -112 -98t-161 -51q-6 2 -7.5 10t3.5 12q121 23 190 106q71 86 71 190q0 32 -15 54t-48 22q-37 0 -60 -30t-23 -69q0 -31 16 -53t41 -22q15 0 27 2q4 -1 5 -7t-2 -9q-27 -20 -60 -20
q-39 0 -66 26t-27 67z" />
    <glyph glyph-name="parenleftsuperior" unicode="&#x207d;" horiz-adv-x="240" 
d="M221 430q0 -108 39 -175q-4 -12 -18 -7q-85 87 -85 204q0 69 29 133.5t83 110.5q62 52 131 72q13 -2 9 -16q-71 -36 -113 -91q-75 -100 -75 -231z" />
    <glyph glyph-name="parenrightsuperior" unicode="&#x207e;" horiz-adv-x="240" 
d="M245 583q0 108 -39 175q4 12 18 7q85 -87 85 -204q0 -69 -29 -133.5t-83 -110.5q-62 -52 -131 -72q-13 2 -9 16q71 36 113 91q75 100 75 231z" />
    <glyph glyph-name="nsuperior" unicode="&#x207f;" horiz-adv-x="415" 
d="M270 579l-49 -116l3 -2q44 62 93 104.5t90 42.5q69 0 33 -88q-6 -16 -23.5 -54t-33 -70t-15.5 -33q-4 -11 3 -11q9 0 32 14t39 31q6 1 10 -3t2 -10q-20 -31 -60.5 -53.5t-75.5 -22.5q-8 0 -15.5 5.5t-7.5 12.5t19 46q28 61 63 140l5 10q4 9 6.5 17.5t5 18t0.5 15.5t-9 6
q-32 0 -104 -82q-12 -13 -22.5 -26.5t-24 -35.5t-20 -32.5t-25.5 -43.5t-25 -43q-5 -8 -18 -8q-7 0 -13 1t-11.5 5.5t-2.5 11.5q4 9 90 224q7 17 -4 17q-24 0 -69 -36q-5 0 -8 4.5t-1 9.5q22 27 55.5 45t67.5 18q14 0 19.5 -8.5t0.5 -20.5z" />
    <glyph glyph-name="zeroinferior" unicode="&#x2080;" 
d="M185 229q57 0 84.5 -36.5t27.5 -88.5q0 -57 -22 -115t-59 -98q-55 -62 -122 -62q-58 0 -85.5 36t-27.5 93q0 55 22.5 111.5t57.5 96.5q56 63 124 63zM47 -76q0 -69 46 -69q24 0 45.5 21t32.5 42.5t25 56.5q35 86 35 169q0 24 -11.5 41.5t-35.5 17.5q-39 0 -75 -61
q-26 -45 -44 -110t-18 -108z" />
    <glyph glyph-name="oneinferior" unicode="&#x2081;" 
d="M125 168l-30 5q-8 10 2 17q79 12 126 35q9 2 11 -6q-19 -53 -24 -71l-67 -228q-12 -38 -9 -50t29 -15l19 -2q4 -3 3 -10t-6 -9q-52 2 -95 2q-47 0 -83 -2q-3 2 -3 9.5t3 9.5l18 2q30 4 39.5 15t21.5 51l58 195q9 32 8 38q1 6 -4.5 9t-16.5 5z" />
    <glyph glyph-name="twoinferior" unicode="&#x2082;" 
d="M75 -116h62q38 0 57 6.5t34 28.5q4 3 12 2t10 -5q-17 -27 -43 -82q-32 2 -102 2h-86q-51 0 -75 -2q-9 6 -3 15q51 31 125 90q2 1 22 17.5t25.5 21t24 20.5t25.5 24t20 24t18 27.5t10 26.5t5 29q0 27 -18 44.5t-47 17.5q-47 0 -94 -58q-5 -2 -10 1t-6 9q21 39 58.5 62.5
t79.5 23.5q49 0 79 -25.5t30 -68.5q0 -40 -28.5 -73t-86.5 -76l-50 -37q-66 -49 -66 -60q0 -5 18 -5z" />
    <glyph glyph-name="threeinferior" unicode="&#x2083;" 
d="M176 229q39 0 63.5 -19.5t24.5 -49.5q0 -52 -97 -84q-8 -7 6 -10q32 -8 55.5 -30.5t23.5 -57.5q0 -55 -41 -98t-97 -63t-110 -20q-34 0 -53.5 10.5t-18.5 30.5q0 12 9 21t22 9q20 0 34 -27q9 -18 30 -18q61 0 106 44t45 103q0 31 -19.5 50t-50.5 19q-34 0 -71 -29
q-20 9 -8 31q3 1 23 8t35.5 13t37.5 17t37 21.5t26 25t11 29.5q0 20 -14 30.5t-34 10.5q-25 0 -51.5 -17t-45.5 -42q-15 -2 -15 13q21 34 58 56.5t79 22.5z" />
    <glyph glyph-name="fourinferior" unicode="&#x2084;" 
d="M127 -50h-157q-10 0 -6 12q4 10 17 21l286 273q12 12 31 12q18 0 18 -8q0 -4 -7 -13l-276 -257q-5 -10 17 -11h86q13 0 17 2.5t8 13.5l37 111q5 9 10 12q22 11 45 11q14 0 7 -19l-39 -117q-2 -5 -2.5 -7.5t0.5 -4t3.5 -2t7.5 -0.5h42q5 -4 2 -14.5t-10 -14.5h-38
q-14 0 -17.5 -2t-5.5 -10l-12 -35q-10 -25 -7.5 -34.5t24.5 -12.5l24 -3q3 -5 1.5 -11t-5.5 -8q-38 2 -94 2q-24 0 -84 -2q-4 2 -3.5 8.5t5.5 10.5l24 3q23 3 34 11.5t20 35.5l11 33q4 8 1.5 11t-15.5 3z" />
    <glyph glyph-name="fiveinferior" unicode="&#x2085;" 
d="M250 174l-137 -17q-24 -3 -29 -14l-12 -25q-6 -11 15 -15l15 -3q33 -7 61 -19t52.5 -40.5t24.5 -67.5q0 -47 -28.5 -84t-74 -57.5t-95 -31t-99.5 -11.5q-7 3 -8 13t5 14q111 2 173.5 41t62.5 102q0 47 -42 70.5t-96 28.5q-22 2 -14 19l53 113q8 16 22 18l180 21l4 -4
q-2 -12 -12.5 -28.5t-20.5 -22.5z" />
    <glyph glyph-name="sixinferior" unicode="&#x2086;" 
d="M336 252q11 -8 2 -19q-105 -26 -165 -64q-60 -40 -92 -104.5t-32 -127.5q0 -36 17 -59t49 -23q38 0 62 37.5t24 77.5q0 36 -17 54t-44 18q-13 0 -28 -4q-5 2 -5.5 7t3.5 9q24 21 65 21q40 0 67.5 -27t27.5 -72q0 -58 -47.5 -102.5t-112.5 -44.5q-62 0 -97 33t-35 95
q0 60 37.5 121t101.5 103q92 60 219 71z" />
    <glyph glyph-name="seveninferior" unicode="&#x2087;" 
d="M136 222h109q69 0 90 2q6 -2 4 -9q-37 -47 -72 -98l-216 -311q-8 -4 -16 0.5t-11 13.5l217 312q17 24 17 31q0 8 -15 8h-117q-34 0 -48.5 -6.5t-28.5 -26.5q-4 -4 -11 -2t-8 8q19 37 34 80q42 -2 72 -2z" />
    <glyph glyph-name="eightinferior" unicode="&#x2088;" 
d="M174 229q47 0 77.5 -23.5t30.5 -64.5q0 -21 -8.5 -37t-25.5 -27.5t-29 -17t-32 -13.5q68 -45 68 -101q0 -52 -44.5 -84t-108.5 -32q-58 0 -94 25.5t-36 70.5q0 76 118 114q-51 30 -51 80q0 45 38 77.5t97 32.5zM114 25q-35 -12 -57.5 -39.5t-22.5 -56.5q0 -36 22 -55
t56 -19t58 21.5t24 55.5q0 30 -20 50.5t-60 42.5zM163 60q26 9 44.5 31t19.5 51q0 27 -16.5 44t-45.5 17t-49 -20.5t-20 -48.5q0 -23 15.5 -38t51.5 -36z" />
    <glyph glyph-name="nineinferior" unicode="&#x2089;" 
d="M15 88q0 55 44.5 98t109.5 43q62 0 94 -34.5t32 -92.5q0 -72 -52 -144q-41 -59 -112 -98t-161 -51q-6 2 -7.5 10t3.5 12q121 23 190 106q71 86 71 190q0 32 -15 54t-48 22q-37 0 -60 -30t-23 -69q0 -31 16 -53t41 -22q15 0 27 2q4 -1 5 -7t-2 -9q-27 -20 -60 -20
q-39 0 -66 26t-27 67z" />
    <glyph glyph-name="parenleftinferior" unicode="&#x208d;" horiz-adv-x="240" 
d="M86 -49q0 -108 39 -175q-4 -12 -18 -7q-85 87 -85 204q0 69 29 133.5t83 110.5q62 52 131 72q13 -2 9 -16q-71 -36 -113 -91q-75 -100 -75 -231z" />
    <glyph glyph-name="parenrightinferior" unicode="&#x208e;" horiz-adv-x="240" 
d="M110 104q0 108 -39 175q4 12 18 7q85 -87 85 -204q0 -69 -29 -133.5t-83 -110.5q-62 -52 -131 -72q-13 2 -9 16q71 36 113 91q75 100 75 231z" />
    <glyph glyph-name="colonmonetary" unicode="&#x20a1;" horiz-adv-x="620" 
d="M491 595l-210 -545q22 -12 54 -17l217 565q-30 1 -61 -3zM358 1l-24 -64q-18 -11 -36 0l26 67q-31 3 -56 12l-30 -79q-7 -5 -17.5 -5t-17.5 5l35 90q-130 53 -130 217q0 77 34 149t95 124q95 82 227 102l30 78q7 5 17.5 5t17.5 -5l-27 -72q30 2 44 2q12 0 17 -1l27 71
q15 13 34 0l-28 -73q34 -5 96 -24q-27 -72 -41 -124q-2 -5 -11.5 -4.5t-11.5 5.5q20 93 -44 114l-215 -561q115 0 192 125q18 6 21 -7q-21 -64 -58 -127q-17 0 -70 -10.5t-87 -10.5q-7 0 -9 1zM253 68l199 520q-84 -25 -154 -93q-38 -38 -70.5 -112.5t-32.5 -155.5
q0 -112 58 -159z" />
    <glyph glyph-name="franc" unicode="&#x20a3;" horiz-adv-x="500" 
d="M60 210h84l86 274q9 29 13 43.5t7 30.5t1.5 22.5t-6.5 12.5t-14 8t-24 3l-14 1q-4 3 0 12.5t9 11.5q72 -3 107 -3h166q109 0 123 3q-16 -48 -37 -125q-3 -5 -11.5 -6t-10.5 3q2 22 2 39t-9 30t-29 19q-22 6 -86 6h-55q-20 0 -25 -5t-13 -31l-53 -170q-5 -19 -2.5 -22.5
t23.5 -3.5h62q60 0 78 6q19 7 35 32l12 19q5 4 13.5 4t9.5 -4q-1 -4 -11 -29.5t-16 -46.5q-6 -19 -11.5 -41t-8.5 -31q-4 -4 -12 -4t-11 4l-1 18q-2 26 -21 33q-14 5 -67 5h-62q-20 0 -26.5 -4.5t-11.5 -21.5l-29 -92h191q5 -4 1 -16t-11 -16h-191l-11 -36
q-24 -74 -22 -94.5t40 -23.5l35 -3q4 -3 0 -12.5t-9 -11.5q-89 3 -125 3q-42 0 -104 -3q-3 2 -1 11t7 13l23 3q36 4 49.5 23t36.5 95l11 36h-84q-4 4 -0.5 16t10.5 16z" />
    <glyph glyph-name="lira" unicode="&#x20a4;" horiz-adv-x="500" 
d="M94 364h86q10 0 12.5 1.5t3.5 7.5l7 28q27 109 86 174t146 65q47 0 74 -23q11 -11 11 -23q0 -15 -15 -29.5t-24 -14.5q-6 0 -14 9q-29 39 -68 39q-80 0 -113 -155q-1 -8 -6.5 -32.5t-7.5 -37.5q-2 -10 0 -12.5t11 -2.5h147q6 -3 2.5 -17t-10.5 -15h-139q-13 0 -17 -2
t-6 -12l-7 -35q-2 -9 0 -11.5t14 -2.5h140q6 -5 3 -18t-11 -14h-139q-21 0 -26 -13q-9 -25 -41.5 -66.5t-77.5 -71.5l1 -2q35 5 75 -1q20 -3 80 -31q56 -26 86 -26q50 0 56 72q3 35 26 35q12 0 23 -12.5t11 -27.5q0 -36 -53.5 -76.5t-112.5 -40.5q-47 0 -114 40
q-62 36 -100 36q-35 0 -42 -33q-2 -10 -18.5 -18.5t-26.5 -8.5q-18 0 -13 18q7 28 60 65q40 28 69 71.5t37 76.5q3 8 0.5 11t-13.5 3h-89q-5 2 -2 14.5t10 17.5h91q17 0 18 9l11 46q3 8 1 11t-13 3h-87q-5 2 -2 15.5t10 16.5z" />
    <glyph glyph-name="peseta" unicode="&#x20a7;" horiz-adv-x="500" 
d="M262 470h201q6 61 -27.5 96t-98.5 35q-24 0 -31 -5.5t-14 -28.5zM108 470h86l7 24q19 60 17.5 79t-34.5 22l-41 4q-3 5 0 13t10 11q45 8 173 8q119 0 165 -41q50 -45 45 -120h49q5 -4 1 -16t-11 -16h-46q-20 -94 -129 -140q-66 -28 -133 -28q-8 2 -7 9.5t7 9.5
q77 14 127 52.5t63 96.5h-205l-93 -295q-24 -75 -20 -94t51 -25l24 -3q2 -4 -1.5 -13t-8.5 -11q-88 3 -125 3q-53 0 -103 -3q-4 2 -2 11t8 13l24 3q35 4 48 23t37 96l93 295h-86q-4 4 -0.5 16t10.5 16z" />
    <glyph glyph-name="Euro" unicode="&#x20ac;" horiz-adv-x="500" 
d="M130 384h52q30 79 91 139q117 117 300 117q65 0 142 -30q-26 -69 -41 -127q-3 -5 -13 -4.5t-12 5.5q14 63 -8 93t-84 30q-120 0 -215 -97q-46 -50 -73 -126h332q5 -4 0.5 -17.5t-14.5 -17.5h-329q-10 -44 -11 -56h310q5 -4 0.5 -17.5t-14.5 -17.5h-300q-3 -20 -3 -35
q0 -99 42 -151.5t114 -52.5q115 0 188 129q18 6 22 -7q-22 -64 -59 -133q-10 0 -72 -11q-53 -11 -86 -11q-43 0 -82 12.5t-75 39.5t-57 79t-21 123q0 11 2 18h-61q-4 8 -0.5 19.5t14.5 15.5h49q4 25 13 56h-55q-4 8 -0.5 19.5t14.5 15.5z" />
    <glyph glyph-name="afii61289" unicode="&#x2113;" horiz-adv-x="430" 
d="M144 289l49 156q40 125 96.5 196t129.5 71q41 0 64 -29.5t23 -66.5q0 -41 -21.5 -84t-50 -75.5t-73 -68t-73.5 -55.5t-69 -44l-36 -114q-20 -73 -8.5 -107t41.5 -34q65 0 134 93q6 4 14 -1.5t6 -13.5q-33 -61 -82 -93.5t-99 -32.5q-62 0 -82.5 52t4.5 133l22 75
q-42 -29 -100 -59q-19 7 -11 28q19 14 60 37.5t62 36.5zM293 543l-61 -207q36 24 69.5 50.5t71.5 64t60.5 81.5t22.5 86q0 60 -52 60q-30 0 -61 -35t-50 -100z" />
    <glyph glyph-name="trademark" unicode="&#x2122;" horiz-adv-x="550" 
d="M230 531v98v6t-1 3.5t-3 1.5h-6h-17q-35 0 -43 -32q-8 -3 -10 3q5 32 12 60h9q6 -8 10.5 -9.5t17.5 -1.5h115q17 0 28 11h8q-7 -28 -5 -63q-1 -2 -5 -2.5t-5 1.5q-2 13 -4.5 18.5t-10.5 10t-22 4.5h-21q-5 0 -6 -1.5t-1 -9.5v-101q0 -22 2.5 -29.5t13.5 -10.5l15 -2
q2 -2 1.5 -7t-2.5 -6q-20 1 -48 1q-36 0 -52 -1q-7 3 -1 13l14 2q17 2 17 43zM584 517l-2 89q0 9 -1 10q-1 0 -17 -30l-25 -49l-8 -16t-13.5 -28t-8.5 -20q-9 -3 -11 -1q-7 20 -26 57l-25 50q-19 41 -21 42q-2 -3 -3 -47q-1 -17 -1 -61q0 -15 3.5 -19.5t15.5 -6.5l8 -1
q4 -6 0 -13q-9 1 -43 1q-22 0 -37 -1q-2 1 -2.5 5.5t1.5 7.5l5 1q21 2 23 21q8 78 8 119q0 17 -22 20l-7 1q-1 2 -1 7t2 6q10 -1 31 -1q27 0 42 1q0 -10 22 -51l25 -47q16 -28 17 -28q2 2 17 28l24 43q15 27 23 55q15 -1 30 -1q25 0 36 1q4 -1 4.5 -6.5t-3.5 -6.5l-9 -1
q-17 -2 -17 -22q0 -63 3 -109q1 -15 3 -20t9 -7l14 -3q2 -2 2 -7t-2 -6q-13 1 -46 1q-28 0 -41 -1q-2 2 -2.5 6.5t2.5 6.5l9 3q11 4 13 8t2 20z" />
    <glyph glyph-name="estimated" unicode="&#x212e;" horiz-adv-x="820" 
d="M835 306h-591q-5 0 -5 -5v-178q0 -11 8 -21q91 -96 224 -96q69 0 130 28.5t105 79.5h53q-51 -59 -126.5 -93.5t-162.5 -34.5q-151 0 -258 96t-107 232t107 232.5t258 96.5t258 -96.5t107 -232.5v-8zM701 329v180q0 12 -9 21q-91 93 -221 93q-131 0 -223 -95q-9 -9 -9 -23
v-176q0 -5 5 -5h453q4 0 4 5z" />
    <glyph glyph-name="onethird" unicode="&#x2153;" horiz-adv-x="820" 
d="M147 -14q274 325 557 668q10 0 19.5 -7t9.5 -18q-251 -297 -559 -669q-27 0 -27 26zM168 332l58 195q9 32 8 38q1 6 -4.5 9t-16.5 5l-30 5q-8 10 2 17q79 12 126 35q9 2 11 -6q-19 -53 -24 -71l-67 -228q-12 -38 -9 -50t29 -15l19 -2q4 -3 3 -10t-6 -9q-52 2 -95 2
q-47 0 -83 -2q-3 2 -3 9.5t3 9.5l18 2q30 4 39.5 15t21.5 51zM685 393q39 0 63.5 -19.5t24.5 -49.5q0 -52 -97 -84q-8 -7 6 -10q32 -8 55.5 -30.5t23.5 -57.5q0 -55 -41 -98t-97 -63t-110 -20q-34 0 -53.5 10.5t-18.5 30.5q0 12 9 21t22 9q20 0 34 -27q9 -18 30 -18
q61 0 106 44t45 103q0 31 -19.5 50t-50.5 19q-34 0 -71 -29q-20 9 -8 31q3 1 23 8t35.5 13t37.5 17t37 21.5t26 25t11 29.5q0 20 -14 30.5t-34 10.5q-25 0 -51.5 -17t-45.5 -42q-15 -2 -15 13q21 34 58 56.5t79 22.5z" />
    <glyph glyph-name="twothirds" unicode="&#x2154;" horiz-adv-x="820" 
d="M180 -14q274 325 557 668q10 0 19.5 -7t9.5 -18q-251 -297 -559 -669q-27 0 -27 26zM197 295h62q38 0 57 6.5t34 28.5q4 3 12 2t10 -5q-17 -27 -43 -82q-32 2 -102 2h-86q-51 0 -75 -2q-9 6 -3 15q51 31 125 90q2 1 22 17.5t25.5 21t24 20.5t25.5 24t20 24t18 27.5
t10 26.5t5 29q0 27 -18 44.5t-47 17.5q-47 0 -94 -58q-5 -2 -10 1t-6 9q21 39 58.5 62.5t79.5 23.5q49 0 79 -25.5t30 -68.5q0 -40 -28.5 -73t-86.5 -76l-50 -37q-66 -50 -66 -60q0 -5 18 -5zM697 393q39 0 63.5 -19.5t24.5 -49.5q0 -52 -97 -84q-8 -7 6 -10
q32 -8 55.5 -30.5t23.5 -57.5q0 -55 -41 -98t-97 -63t-110 -20q-34 0 -53.5 10.5t-18.5 30.5q0 12 9 21t22 9q20 0 34 -27q9 -18 30 -18q61 0 106 44t45 103q0 31 -19.5 50t-50.5 19q-34 0 -71 -29q-20 9 -8 31q3 1 23 8t35.5 13t37.5 17t37 21.5t26 25t11 29.5
q0 20 -14 30.5t-34 10.5q-25 0 -51.5 -17t-45.5 -42q-15 -2 -15 13q21 34 58 56.5t79 22.5z" />
    <glyph glyph-name="oneeighth" unicode="&#x215b;" horiz-adv-x="820" 
d="M683 393q47 0 77.5 -23.5t30.5 -64.5q0 -21 -8.5 -37t-25.5 -27.5t-29 -17t-32 -13.5q68 -45 68 -101q0 -52 -44.5 -84t-108.5 -32q-58 0 -94 25.5t-36 70.5q0 76 118 114q-51 30 -51 80q0 45 38 77.5t97 32.5zM623 189q-35 -12 -57.5 -39.5t-22.5 -56.5q0 -36 22 -55
t56 -19t58 21.5t24 55.5q0 30 -20 50.5t-60 42.5zM672 224q26 9 44.5 31t19.5 51q0 27 -16.5 44t-45.5 17q-28 0 -48.5 -20.5t-20.5 -48.5q0 -23 15.5 -38t51.5 -36zM143 -14q274 325 557 668q10 0 19.5 -7t9.5 -18q-251 -297 -559 -669q-27 0 -27 26zM176 332l58 195
q9 32 8 38q1 6 -4.5 9t-16.5 5l-30 5q-8 10 2 17q79 12 126 35q9 2 11 -6q-19 -53 -24 -71l-67 -228q-12 -38 -9 -50t29 -15l19 -2q4 -3 3 -10t-6 -9q-52 2 -95 2q-47 0 -83 -2q-3 2 -3 9.5t3 9.5l18 2q30 4 39.5 15t21.5 51z" />
    <glyph glyph-name="threeeighths" unicode="&#x215c;" horiz-adv-x="820" 
d="M687 393q47 0 77.5 -23.5t30.5 -64.5q0 -21 -8.5 -37t-25.5 -27.5t-29 -17t-32 -13.5q68 -45 68 -101q0 -52 -44.5 -84t-108.5 -32q-58 0 -94 25.5t-36 70.5q0 76 118 114q-51 30 -51 80q0 45 38 77.5t97 32.5zM627 189q-35 -12 -57.5 -39.5t-22.5 -56.5q0 -36 22 -55
t56 -19t58 21.5t24 55.5q0 30 -20 50.5t-60 42.5zM676 224q26 9 44.5 31t19.5 51q0 27 -16.5 44t-45.5 17q-28 0 -48.5 -20.5t-20.5 -48.5q0 -23 15.5 -38t51.5 -36zM172 -14q274 325 557 668q10 0 19.5 -7t9.5 -18q-251 -297 -559 -669q-27 0 -27 26zM308 640
q39 0 63.5 -19.5t24.5 -49.5q0 -52 -97 -84q-8 -7 6 -10q32 -8 55.5 -30.5t23.5 -57.5q0 -55 -41 -98t-97 -63t-110 -20q-34 0 -53.5 10.5t-18.5 30.5q0 12 9 21t22 9q20 0 34 -27q9 -18 30 -18q61 0 106 44t45 103q0 31 -19.5 50t-50.5 19q-34 0 -71 -29q-20 9 -8 31
q3 1 23 8t35.5 13t37.5 17t37 21.5t26 25t11 29.5q0 20 -14 30.5t-34 10.5q-25 0 -51.5 -17t-45.5 -42q-15 -2 -15 13q21 34 58 56.5t79 22.5z" />
    <glyph glyph-name="fiveeighths" unicode="&#x215d;" horiz-adv-x="820" 
d="M690 393q47 0 77.5 -23.5t30.5 -64.5q0 -21 -8.5 -37t-25.5 -27.5t-29 -17t-32 -13.5q68 -45 68 -101q0 -52 -44.5 -84t-108.5 -32q-58 0 -94 25.5t-36 70.5q0 76 118 114q-51 30 -51 80q0 45 38 77.5t97 32.5zM630 189q-35 -12 -57.5 -39.5t-22.5 -56.5q0 -36 22 -55
t56 -19t58 21.5t24 55.5q0 30 -20 50.5t-60 42.5zM679 224q26 9 44.5 31t19.5 51q0 27 -16.5 44t-45.5 17t-49 -20.5t-20 -48.5q0 -23 15.5 -38t51.5 -36zM176 -14q274 325 557 668q10 0 19.5 -7t9.5 -18q-251 -297 -559 -669q-27 0 -27 26zM387 585l-137 -17
q-24 -3 -29 -14l-12 -25q-3 -6 1.5 -8.5t13.5 -4.5l15 -3q24 -5 45.5 -13t43.5 -22.5t35.5 -38.5t13.5 -54q0 -63 -50 -106.5t-114 -60.5t-133 -18q-7 3 -8 13t5 14q111 2 173 41t62 102q0 46 -41.5 69t-95.5 28q-23 2 -14 21l53 113q8 16 22 18l180 21l4 -4
q-2 -12 -12.5 -28.5t-20.5 -22.5z" />
    <glyph glyph-name="seveneighths" unicode="&#x215e;" horiz-adv-x="820" 
d="M689 393q47 0 77.5 -23.5t30.5 -64.5q0 -21 -8.5 -37t-25.5 -27.5t-29 -17t-32 -13.5q68 -45 68 -101q0 -52 -44.5 -84t-108.5 -32q-58 0 -94 25.5t-36 70.5q0 76 118 114q-51 30 -51 80q0 45 38 77.5t97 32.5zM629 189q-35 -12 -57.5 -39.5t-22.5 -56.5q0 -36 22 -55
t56 -19t58 21.5t24 55.5q0 30 -20 50.5t-60 42.5zM678 224q26 9 44.5 31t19.5 51q0 27 -16.5 44t-45.5 17q-28 0 -48.5 -20.5t-20.5 -48.5q0 -23 15.5 -38t51.5 -36zM156 -14q274 325 557 668q10 0 19.5 -7t9.5 -18q-251 -297 -559 -669q-27 0 -27 26zM258 633h109
q69 0 90 2q6 -2 4 -9q-37 -47 -72 -98l-216 -311q-8 -4 -16 0.5t-11 13.5l217 312q17 24 17 31q0 8 -15 8h-117q-34 0 -48.5 -6.5t-28.5 -26.5q-4 -4 -11 -2t-8 8q19 37 34 80q42 -2 72 -2z" />
    <glyph glyph-name="partialdiff" unicode="&#x2202;" horiz-adv-x="480" 
d="M278 387q38 0 59.5 -12t61.5 -52q53 130 49 225q-2 52 -30.5 87t-91.5 35q-34 0 -80 -23q-21 -11 -34 1.5t-11 24.5q4 11 18 20q45 21 99 21q51 0 89 -20.5t59 -54t31 -77.5t8.5 -90t-12.5 -93q-32 -139 -104 -249q-95 -144 -211 -144q-73 0 -109 57t-18 136
q18 78 86 143t141 65zM295 351q-58 0 -107.5 -69t-64.5 -135q-11 -48 1 -90t50 -42q114 0 211 275q-39 61 -90 61z" />
    <glyph glyph-name="product" unicode="&#x220f;" horiz-adv-x="763" 
d="M675 663h-257q-34 0 -42.5 -4.5t-15.5 -27.5l-186 -591q-25 -79 -22 -100t41 -25l27 -3q3 -3 2 -13t-6 -12q-85 3 -126 3q-18 0 -102 -3q-6 2 -6 11.5t6 13.5l14 3q43 9 58 28t39 97l161 510q25 79 21.5 101t-41.5 25l-24 2q-7 3 -3 13t13 12q14 0 54.5 -1.5t64.5 -1.5
h430q50 0 110 3q4 -2 2.5 -12t-8.5 -13l-21 -2q-41 -4 -55.5 -24t-40.5 -102l-160 -510q-26 -79 -23 -99.5t43 -25.5l22 -3q8 -3 6 -13t-9 -12q-76 3 -120 3q-56 0 -110 -3q-6 2 -6 11t6 14l19 3q44 7 58 25.5t39 99.5l185 591q7 23 2 27.5t-39 4.5z" />
    <glyph glyph-name="summation" unicode="&#x2211;" horiz-adv-x="680" 
d="M720 700l-32 -143q-2 -5 -8.5 -7t-11.5 0t-5 7q-1 60 -12 78q-21 32 -92 32h-263l156 -350q8 -17 -11 -36l-340 -328h342q53 0 81 21t69 79q3 5 10 6.5t12.5 -1.5t5.5 -11q-19 -31 -85 -164q-5 0 -28.5 3.5t-35.5 3.5h-436q-4 0 -38 -2q-5 -1 -6 6q-1 11 8 20l367 349
q18 18 9 38l-168 382q-3 7 2 13t11 6q22 -2 68 -2h431z" />
    <glyph glyph-name="minus" unicode="&#x2212;" horiz-adv-x="560" 
d="M503 181h-385v49h385v-49z" />
    <glyph glyph-name="radical" unicode="&#x221a;" horiz-adv-x="560" 
d="M129 417l-8 33l162 72l106 -403l308 798l34 -5l-366 -950l-129 502z" />
    <glyph glyph-name="infinity" unicode="&#x221e;" horiz-adv-x="780" 
d="M96 279q7 68 69 105.5t133 6.5q33 -15 56.5 -32t72.5 -62q49 45 72.5 62t56.5 32q71 31 133 -6.5t69 -105.5q6 -59 -37.5 -109.5t-109.5 -44.5q-29 3 -55.5 12.5t-47.5 23.5t-35 26t-28.5 26.5l-17.5 17.5l-17.5 -17.5t-28.5 -26.5t-35 -26t-47.5 -23.5t-55.5 -12.5
q-66 -6 -109.5 44.5t-37.5 109.5zM146 259q1 -43 37.5 -68.5t78.5 -15.5q27 6 48 18t33.5 23t50.5 48q-80 67 -119 81q-58 20 -94 -12.5t-35 -73.5zM708 259q1 41 -35 73.5t-94 12.5q-39 -14 -119 -81q31 -30 39 -37.5t26.5 -22t32 -19.5t34.5 -10q42 -10 78.5 15.5
t37.5 68.5z" />
    <glyph glyph-name="integral" unicode="&#x222b;" horiz-adv-x="340" 
d="M263 388l-52 -194q-47 -174 -98.5 -258t-117.5 -84q-37 0 -42 40q-5 32 32 49q29 13 52 -17q21 -26 46 27q12 26 19 59q30 136 69 288l28 111q52 207 105 288q48 76 99 76q22 0 33 -15t6 -35q-3 -16 -19.5 -26t-31.5 -10q-16 0 -26 12q-14 14 -24 7.5t-15 -21.5
q-4 -12 -24 -120t-39 -177z" />
    <glyph glyph-name="approxequal" unicode="&#x2248;" horiz-adv-x="560" 
d="M474 352l31 -22q-37 -83 -108 -83q-40 0 -94 26q-4 2 -13.5 6.5t-13 6.5t-11 5t-12 4.5t-11 3.5t-13 2.5t-12.5 0.5q-42 0 -85 -56l-30 25q40 81 121 81q35 0 103 -35q42 -21 73 -21q41 0 75 56zM474 199l31 -22q-37 -83 -110 -83q-38 0 -92 26q-3 1 -13 6t-13.5 6.5
t-11.5 5.5t-12.5 5t-11.5 3t-13.5 2.5t-13.5 0.5q-39 0 -82 -56l-30 25q40 81 118 81q36 0 102 -33q43 -23 77 -23q41 0 75 56z" />
    <glyph glyph-name="notequal" unicode="&#x2260;" horiz-adv-x="560" 
d="M103 305h232l63 96l38 -26l-46 -70h98v-49h-131l-67 -101h198v-49h-230l-64 -97l-38 26l47 71h-100v49h133l67 101h-200v49z" />
    <glyph glyph-name="lessequal" unicode="&#x2264;" horiz-adv-x="560" 
d="M478 49v-49h-385v49h385zM91 328l389 185v-58l-317 -148v-2l317 -149v-57l-389 184v45z" />
    <glyph glyph-name="greaterequal" unicode="&#x2265;" horiz-adv-x="560" 
d="M100 513l389 -185v-45l-389 -184v57l317 149v2l-317 148v58zM488 49v-49h-385v49h385z" />
    <glyph glyph-name="lozenge" unicode="&#x25ca;" horiz-adv-x="550" 
d="M244 -40h-60l-74 382l311 373h60l77 -373zM498 347l-61 314l-267 -325l58 -322z" />
    <glyph glyph-name="A.swash" unicode="&#xe000;" horiz-adv-x="1340" 
d="M423 -64q-128 0 -219 75q-58 48 -86.5 114t-28.5 136q0 80 40 144q32 53 69 53q18 0 27.5 -10.5t9.5 -24.5q0 -18 -13 -25q-27 -18 -51 -68.5t-24 -117.5q0 -93 63 -159q69 -73 209 -73q43 0 87 10.5t91 36t81 46t84.5 61.5t73 60t73.5 64q12 10 81 75.5t147.5 135
t149.5 121.5q115 86 190 86q18 0 31.5 -8t13.5 -22q0 -10 -6.5 -15.5t-14.5 -5.5q-3 0 -20 5t-31 5q-38 0 -57 -25q-25 -35 -61 -129q-59 -150 -120 -379q-12 -45 -8 -57.5t34 -16.5l43 -6q10 -17 -2 -25q-51 3 -136 3q-65 0 -122 -3q-7 5 -7 13t5 12l46 7q34 5 46 19t29 70
q23 77 60 185q-98 -12 -200 -18q-38 -41 -115 -113.5t-132 -115.5q-65 -50 -140.5 -79.5t-115.5 -35t-74 -5.5zM1047 330l164 8q37 117 96 228h-3q-44 -34 -86.5 -72t-73.5 -68t-97 -96z" />
    <glyph glyph-name="Aacute.swash" unicode="&#xe001;" horiz-adv-x="1340" 
d="M423 -64q-128 0 -219 75q-58 48 -86.5 114t-28.5 136q0 80 40 144q32 53 69 53q18 0 27.5 -10.5t9.5 -24.5q0 -18 -13 -25q-27 -18 -51 -68.5t-24 -117.5q0 -93 63 -159q69 -73 209 -73q43 0 87 10.5t91 36t81 46t84.5 61.5t73 60t73.5 64q12 10 81 75.5t147.5 135
t149.5 121.5q115 86 190 86q18 0 31.5 -8t13.5 -22q0 -10 -6.5 -15.5t-14.5 -5.5q-3 0 -20 5t-31 5q-38 0 -57 -25q-25 -35 -61 -129q-59 -150 -120 -379q-12 -45 -8 -57.5t34 -16.5l43 -6q10 -17 -2 -25q-51 3 -136 3q-65 0 -122 -3q-7 5 -7 13t5 12l46 7q34 5 46 19t29 70
q23 77 60 185q-98 -12 -200 -18q-38 -41 -115 -113.5t-132 -115.5q-65 -50 -140.5 -79.5t-115.5 -35t-74 -5.5zM1047 330l164 8q37 117 96 228h-3q-44 -34 -86.5 -72t-73.5 -68t-97 -96zM1508 767l-144 -61q-5 2 -8 8t-1 12l122 98q13 12 23 12q13 0 23 -19q12 -23 6 -35
q-5 -8 -21 -15z" />
    <glyph glyph-name="Abreve.swash" unicode="&#xe002;" horiz-adv-x="1340" 
d="M423 -64q-128 0 -219 75q-58 48 -86.5 114t-28.5 136q0 80 40 144q32 53 69 53q18 0 27.5 -10.5t9.5 -24.5q0 -18 -13 -25q-27 -18 -51 -68.5t-24 -117.5q0 -93 63 -159q69 -73 209 -73q43 0 87 10.5t91 36t81 46t84.5 61.5t73 60t73.5 64q12 10 81 75.5t147.5 135
t149.5 121.5q115 86 190 86q18 0 31.5 -8t13.5 -22q0 -10 -6.5 -15.5t-14.5 -5.5q-3 0 -20 5t-31 5q-38 0 -57 -25q-25 -35 -61 -129q-59 -150 -120 -379q-12 -45 -8 -57.5t34 -16.5l43 -6q10 -17 -2 -25q-51 3 -136 3q-65 0 -122 -3q-7 5 -7 13t5 12l46 7q34 5 46 19t29 70
q23 77 60 185q-98 -12 -200 -18q-38 -41 -115 -113.5t-132 -115.5q-65 -50 -140.5 -79.5t-115.5 -35t-74 -5.5zM1047 330l164 8q37 117 96 228h-3q-44 -34 -86.5 -72t-73.5 -68t-97 -96zM1395 715q-105 0 -75 114q4 3 11 3t9 -3q0 -65 66 -65t96 65q4 3 11 3t9 -3
q-24 -114 -127 -114z" />
    <glyph glyph-name="Acircumflex.swash" unicode="&#xe003;" horiz-adv-x="1340" 
d="M423 -64q-128 0 -219 75q-58 48 -86.5 114t-28.5 136q0 80 40 144q32 53 69 53q18 0 27.5 -10.5t9.5 -24.5q0 -18 -13 -25q-27 -18 -51 -68.5t-24 -117.5q0 -93 63 -159q69 -73 209 -73q43 0 87 10.5t91 36t81 46t84.5 61.5t73 60t73.5 64q12 10 81 75.5t147.5 135
t149.5 121.5q115 86 190 86q18 0 31.5 -8t13.5 -22q0 -10 -6.5 -15.5t-14.5 -5.5q-3 0 -20 5t-31 5q-38 0 -57 -25q-25 -35 -61 -129q-59 -150 -120 -379q-12 -45 -8 -57.5t34 -16.5l43 -6q10 -17 -2 -25q-51 3 -136 3q-65 0 -122 -3q-7 5 -7 13t5 12l46 7q34 5 46 19t29 70
q23 77 60 185q-98 -12 -200 -18q-38 -41 -115 -113.5t-132 -115.5q-65 -50 -140.5 -79.5t-115.5 -35t-74 -5.5zM1047 330l164 8q37 117 96 228h-3q-44 -34 -86.5 -72t-73.5 -68t-97 -96zM1426 827l83 -109q-1 -6 -6.5 -11.5t-10.5 -5.5l-84 62q-8 8 -14 8t-17 -6l-128 -64
q-5 0 -7.5 5.5t-0.5 11.5l147 109q12 9 22 9q12 0 16 -9z" />
    <glyph glyph-name="Adieresis.swash" unicode="&#xe004;" horiz-adv-x="1340" 
d="M423 -64q-128 0 -219 75q-58 48 -86.5 114t-28.5 136q0 80 40 144q32 53 69 53q18 0 27.5 -10.5t9.5 -24.5q0 -18 -13 -25q-27 -18 -51 -68.5t-24 -117.5q0 -93 63 -159q69 -73 209 -73q43 0 87 10.5t91 36t81 46t84.5 61.5t73 60t73.5 64q12 10 81 75.5t147.5 135
t149.5 121.5q115 86 190 86q18 0 31.5 -8t13.5 -22q0 -10 -6.5 -15.5t-14.5 -5.5q-3 0 -20 5t-31 5q-38 0 -57 -25q-25 -35 -61 -129q-59 -150 -120 -379q-12 -45 -8 -57.5t34 -16.5l43 -6q10 -17 -2 -25q-51 3 -136 3q-65 0 -122 -3q-7 5 -7 13t5 12l46 7q34 5 46 19t29 70
q23 77 60 185q-98 -12 -200 -18q-38 -41 -115 -113.5t-132 -115.5q-65 -50 -140.5 -79.5t-115.5 -35t-74 -5.5zM1047 330l164 8q37 117 96 228h-3q-44 -34 -86.5 -72t-73.5 -68t-97 -96zM1304 705q-17 0 -26.5 10t-9.5 27q0 23 14 38t33 15q17 0 27 -11.5t10 -26.5
q0 -24 -14.5 -38t-33.5 -14zM1478 705q-17 0 -26.5 10t-9.5 27q0 23 14 38t33 15q17 0 27 -11.5t10 -26.5q0 -24 -14 -38t-34 -14z" />
    <glyph glyph-name="Agrave.swash" unicode="&#xe005;" horiz-adv-x="1340" 
d="M423 -64q-128 0 -219 75q-58 48 -86.5 114t-28.5 136q0 80 40 144q32 53 69 53q18 0 27.5 -10.5t9.5 -24.5q0 -18 -13 -25q-27 -18 -51 -68.5t-24 -117.5q0 -93 63 -159q69 -73 209 -73q43 0 87 10.5t91 36t81 46t84.5 61.5t73 60t73.5 64q12 10 81 75.5t147.5 135
t149.5 121.5q115 86 190 86q18 0 31.5 -8t13.5 -22q0 -10 -6.5 -15.5t-14.5 -5.5q-3 0 -20 5t-31 5q-38 0 -57 -25q-25 -35 -61 -129q-59 -150 -120 -379q-12 -45 -8 -57.5t34 -16.5l43 -6q10 -17 -2 -25q-51 3 -136 3q-65 0 -122 -3q-7 5 -7 13t5 12l46 7q34 5 46 19t29 70
q23 77 60 185q-98 -12 -200 -18q-38 -41 -115 -113.5t-132 -115.5q-65 -50 -140.5 -79.5t-115.5 -35t-74 -5.5zM1047 330l164 8q37 117 96 228h-3q-44 -34 -86.5 -72t-73.5 -68t-97 -96zM1432 706l-144 61q-16 7 -21 15q-6 12 6 35q10 19 23 19q10 0 23 -12l122 -98
q2 -6 -1 -12t-8 -8z" />
    <glyph glyph-name="Amacron.swash" unicode="&#xe006;" horiz-adv-x="1340" 
d="M423 -64q-128 0 -219 75q-58 48 -86.5 114t-28.5 136q0 80 40 144q32 53 69 53q18 0 27.5 -10.5t9.5 -24.5q0 -18 -13 -25q-27 -18 -51 -68.5t-24 -117.5q0 -93 63 -159q69 -73 209 -73q43 0 87 10.5t91 36t81 46t84.5 61.5t73 60t73.5 64q12 10 81 75.5t147.5 135
t149.5 121.5q115 86 190 86q18 0 31.5 -8t13.5 -22q0 -10 -6.5 -15.5t-14.5 -5.5q-3 0 -20 5t-31 5q-38 0 -57 -25q-25 -35 -61 -129q-59 -150 -120 -379q-12 -45 -8 -57.5t34 -16.5l43 -6q10 -17 -2 -25q-51 3 -136 3q-65 0 -122 -3q-7 5 -7 13t5 12l46 7q34 5 46 19t29 70
q23 77 60 185q-98 -12 -200 -18q-38 -41 -115 -113.5t-132 -115.5q-65 -50 -140.5 -79.5t-115.5 -35t-74 -5.5zM1047 330l164 8q37 117 96 228h-3q-44 -34 -86.5 -72t-73.5 -68t-97 -96zM1510 722h-191q-7 9 -7 24.5t7 24.5h191q8 -9 8 -24.5t-8 -24.5z" />
    <glyph glyph-name="Aogonek.swash" unicode="&#xe007;" horiz-adv-x="1340" 
d="M423 -64q-128 0 -219 75q-58 48 -86.5 114t-28.5 136q0 80 40 144q32 53 69 53q18 0 27.5 -10.5t9.5 -24.5q0 -18 -13 -25q-27 -18 -51 -68.5t-24 -117.5q0 -93 63 -159q69 -73 209 -73q43 0 87 10.5t91 36t81 46t84.5 61.5t73 60t73.5 64q12 10 81 75.5t147.5 135
t149.5 121.5q115 86 190 86q18 0 31.5 -8t13.5 -22q0 -10 -6.5 -15.5t-14.5 -5.5q-3 0 -20 5t-31 5q-38 0 -57 -25q-25 -35 -61 -129q-59 -150 -120 -379q-12 -45 -8 -57.5t34 -16.5l43 -6q10 -17 -2 -25q-5 0 -120 4q-26 -20 -47.5 -52t-21.5 -62q0 -21 13 -34t33 -13
q30 0 58 14q9 -2 7 -15q-43 -46 -92 -46q-39 0 -59.5 19t-20.5 49q0 70 90 139q-83 -2 -98 -3q-7 5 -7 13t5 12l46 7q34 5 46 19t29 70q23 77 60 185q-98 -12 -200 -18q-38 -41 -115 -113.5t-132 -115.5q-65 -50 -140.5 -79.5t-115.5 -35t-74 -5.5zM1047 330l164 8
q37 117 96 228h-3q-44 -34 -86.5 -72t-73.5 -68t-97 -96z" />
    <glyph glyph-name="Aring.swash" unicode="&#xe008;" horiz-adv-x="1340" 
d="M423 -64q-128 0 -219 75q-58 48 -86.5 114t-28.5 136q0 80 40 144q32 53 69 53q18 0 27.5 -10.5t9.5 -24.5q0 -18 -13 -25q-27 -18 -51 -68.5t-24 -117.5q0 -93 63 -159q69 -73 209 -73q43 0 87 10.5t91 36t81 46t84.5 61.5t73 60t73.5 64q12 10 81 75.5t147.5 135
t149.5 121.5q115 86 190 86q18 0 31.5 -8t13.5 -22q0 -10 -6.5 -15.5t-14.5 -5.5q-3 0 -20 5t-31 5q-38 0 -57 -25q-25 -35 -61 -129q-59 -150 -120 -379q-12 -45 -8 -57.5t34 -16.5l43 -6q10 -17 -2 -25q-51 3 -136 3q-65 0 -122 -3q-7 5 -7 13t5 12l46 7q34 5 46 19t29 70
q23 77 60 185q-98 -12 -200 -18q-38 -41 -115 -113.5t-132 -115.5q-65 -50 -140.5 -79.5t-115.5 -35t-74 -5.5zM1047 330l164 8q37 117 96 228h-3q-44 -34 -86.5 -72t-73.5 -68t-97 -96zM1390 868q36 0 60.5 -24t24.5 -57t-24 -57t-61 -24t-61 24t-24 57t24.5 57t60.5 24z
M1345 787q0 -23 13 -38t32 -15q20 0 32.5 15t12.5 38t-13 37.5t-32 14.5t-32 -15t-13 -37z" />
    <glyph glyph-name="Atilde.swash" unicode="&#xe009;" horiz-adv-x="1340" 
d="M423 -64q-128 0 -219 75q-58 48 -86.5 114t-28.5 136q0 80 40 144q32 53 69 53q18 0 27.5 -10.5t9.5 -24.5q0 -18 -13 -25q-27 -18 -51 -68.5t-24 -117.5q0 -93 63 -159q69 -73 209 -73q43 0 87 10.5t91 36t81 46t84.5 61.5t73 60t73.5 64q12 10 81 75.5t147.5 135
t149.5 121.5q115 86 190 86q18 0 31.5 -8t13.5 -22q0 -10 -6.5 -15.5t-14.5 -5.5q-3 0 -20 5t-31 5q-38 0 -57 -25q-25 -35 -61 -129q-59 -150 -120 -379q-12 -45 -8 -57.5t34 -16.5l43 -6q10 -17 -2 -25q-51 3 -136 3q-65 0 -122 -3q-7 5 -7 13t5 12l46 7q34 5 46 19t29 70
q23 77 60 185q-98 -12 -200 -18q-38 -41 -115 -113.5t-132 -115.5q-65 -50 -140.5 -79.5t-115.5 -35t-74 -5.5zM1047 330l164 8q37 117 96 228h-3q-44 -34 -86.5 -72t-73.5 -68t-97 -96zM1351 790h50q28 0 40.5 6.5t29.5 30.5q11 6 16 -4q-11 -43 -35 -67q-16 -15 -45 -15
h-49q-29 0 -45.5 -11t-30.5 -37q-10 -6 -15 4q3 15 13.5 40t20.5 34q17 19 50 19z" />
    <glyph glyph-name="B.swash" unicode="&#xe00a;" horiz-adv-x="820" 
d="M264 22l26 3q37 4 51 18.5t31 64.5l182 532q-80 0 -166 -26t-142 -60q-66 -40 -72 -75q-1 -15 13 -22.5t31 -7.5q33 0 31 -43q0 -14 -13 -27t-34 -13q-27 0 -46.5 24t-18.5 56q1 81 79 141q117 89 364 89q164 0 233 -48q53 -38 53 -104q0 -59 -51 -102.5t-127 -54.5
q-7 -1 -9 -3t0.5 -4.5t8.5 -4.5q52 -19 81.5 -57.5t29.5 -94.5q0 -23 -7 -47t-27.5 -53.5t-52.5 -52t-87 -38t-126 -15.5q-18 0 -58.5 1.5t-66.5 1.5q-56 0 -109 -3q-6 4 -6 12.5t5 12.5zM565 350q-25 0 -31 -4t-13 -23l-73 -215q-15 -45 0 -62.5t68 -17.5q34 0 66.5 9.5
t62 29.5t48 56.5t18.5 85.5q0 72 -44 106.5t-102 34.5zM784 533q0 50 -33.5 78.5t-120.5 29.5l-81 -234q-6 -17 -1 -22t29 -5q31 0 63.5 7t66.5 23t55.5 48t21.5 75z" />
    </font>
</defs>
</svg>
